<?xml version="1.0" encoding="UTF-8"?>
<!DOCTYPE svg PUBLIC "-//W3C//DTD SVG 1.1//EN" "http://www.w3.org/Graphics/SVG/1.1/DTD/svg11.dtd">
<svg xmlns="http://www.w3.org/2000/svg" version="1.1" width="508px" height="500px" style="shape-rendering:geometricPrecision; text-rendering:geometricPrecision; image-rendering:optimizeQuality; fill-rule:evenodd; clip-rule:evenodd" xmlns:xlink="http://www.w3.org/1999/xlink">
<g><path style="opacity:0.991" fill="#151030" d="M 232.5,3.5 C 324.057,-0.956788 398.223,32.3765 455,103.5C 504.444,174.362 515.778,251.028 489,333.5C 454.877,419.278 392.711,472.445 302.5,493C 203.85,508.876 122.017,479.376 57,404.5C -0.795972,327.018 -12.1293,243.018 23,152.5C 56.1184,81.3854 110.285,34.5521 185.5,12C 201.109,8.04225 216.775,5.20892 232.5,3.5 Z"/></g>
<g><path style="opacity:1" fill="#fafafa" d="M 263.5,84.5 C 261.598,87.3373 260.931,90.6707 261.5,94.5C 255.5,94.5 249.5,94.5 243.5,94.5C 243.665,91.4816 243.498,88.4816 243,85.5C 225.946,76.6703 220.946,63.3369 228,45.5C 239.253,30.2056 253.086,27.3722 269.5,37C 283.031,50.049 284.031,64.049 272.5,79C 269.806,81.3465 266.806,83.1798 263.5,84.5 Z"/></g>
<g><path style="opacity:1" fill="#181433" d="M 248.5,50.5 C 257.544,49.7128 261.71,53.7128 261,62.5C 256.525,69.5397 251.192,70.2064 245,64.5C 242.236,58.6915 243.403,54.0248 248.5,50.5 Z"/></g>
<g><path style="opacity:1" fill="#fafafa" d="M 139.5,80.5 C 150.099,79.9758 158.932,83.6425 166,91.5C 167.993,93.8175 169.159,96.4842 169.5,99.5C 179.19,99.1682 188.856,99.5016 198.5,100.5C 194.403,106.766 189.737,112.6 184.5,118C 179.511,118.499 174.511,118.666 169.5,118.5C 166.685,127.48 160.685,133.314 151.5,136C 133.013,139.006 121.179,131.506 116,113.5C 115.102,96.2379 122.935,85.2379 139.5,80.5 Z"/></g>
<g><path style="opacity:1" fill="#f9f9fa" d="M 353.5,81.5 C 370.461,79.6429 381.961,86.6429 388,102.5C 390.251,119.908 383.085,131.408 366.5,137C 351.586,139.211 340.92,133.544 334.5,120C 328.141,119.831 321.807,119.331 315.5,118.5C 313.318,111.966 309.985,106.132 305.5,101C 315.085,99.883 324.752,99.0496 334.5,98.5C 338.691,90.3026 345.024,84.636 353.5,81.5 Z"/></g>
<g><path style="opacity:1" fill="#98979c" d="M 263.5,84.5 C 262.577,88.0641 262.244,91.7307 262.5,95.5C 255.978,95.8235 249.645,95.4902 243.5,94.5C 249.5,94.5 255.5,94.5 261.5,94.5C 260.931,90.6707 261.598,87.3373 263.5,84.5 Z"/></g>
<g><path style="opacity:1" fill="#191533" d="M 356.5,100.5 C 366.158,98.9934 370.325,102.993 369,112.5C 365.96,118.368 361.46,119.868 355.5,117C 349.976,111.129 350.309,105.629 356.5,100.5 Z"/></g>
<g><path style="opacity:1" fill="#191433" d="M 140.5,100.5 C 149.645,99.6238 153.478,103.624 152,112.5C 149.647,117.426 145.814,119.26 140.5,118C 135.777,114.746 134.277,110.246 136,104.5C 137.397,102.93 138.897,101.596 140.5,100.5 Z"/></g>
<g><path style="opacity:1" fill="#d8d8d9" d="M 289.5,120.5 C 264.477,119.843 239.811,120.51 215.5,122.5C 214.596,121.791 214.263,120.791 214.5,119.5C 239.672,119.169 264.672,119.502 289.5,120.5 Z"/></g>
<g><path style="opacity:1" fill="#fdfdfd" d="M 289.5,120.5 C 320.346,196.207 350.679,272.207 380.5,348.5C 354.598,349.827 328.598,349.827 302.5,348.5C 299.993,340.478 296.993,332.645 293.5,325C 268.493,324.833 243.493,324.333 218.5,323.5C 223.737,308.623 229.07,293.79 234.5,279C 248.179,278.833 261.846,278.333 275.5,277.5C 255.216,225.933 235.216,174.267 215.5,122.5C 239.811,120.51 264.477,119.843 289.5,120.5 Z"/></g>
<g><path style="opacity:1" fill="#fcfcfc" d="M 198.5,349.5 C 173.661,349.831 148.994,349.498 124.5,348.5C 151.054,275.626 178.221,202.959 206,130.5C 218.179,160.533 229.679,190.866 240.5,221.5C 226.695,264.248 212.695,306.914 198.5,349.5 Z"/></g>
<g><path style="opacity:1" fill="#3c3a4c" d="M 390.5,172.5 C 372.468,171.847 354.802,172.514 337.5,174.5C 336.596,173.791 336.263,172.791 336.5,171.5C 354.674,171.17 372.674,171.503 390.5,172.5 Z"/></g>
<g><path style="opacity:1" fill="#fdfdfd" d="M 157.5,190.5 C 143.5,190.5 129.5,190.5 115.5,190.5C 115.5,227.5 115.5,264.5 115.5,301.5C 110.167,316.167 104.833,330.833 99.5,345.5C 98.5011,292.336 98.1677,239.003 98.5,185.5C 100.253,179.246 104.253,175.079 110.5,173C 128.176,172.167 145.843,172.334 163.5,173.5C 161.214,179.071 159.214,184.738 157.5,190.5 Z"/></g>
<g><path style="opacity:1" fill="#fdfdfd" d="M 390.5,172.5 C 398.577,173.529 403.91,177.862 406.5,185.5C 406.832,239.003 406.499,292.336 405.5,345.5C 399.833,330.833 394.167,316.167 388.5,301.5C 388.5,264.5 388.5,227.5 388.5,190.5C 373.833,190.5 359.167,190.5 344.5,190.5C 342.203,185.23 339.869,179.897 337.5,174.5C 354.802,172.514 372.468,171.847 390.5,172.5 Z"/></g>
<g><path style="opacity:1" fill="#d1d0d3" d="M 98.5,185.5 C 98.1677,239.003 98.5011,292.336 99.5,345.5C 99.5,348.167 99.5,350.833 99.5,353.5C 98.5104,359.31 98.1771,365.31 98.5,371.5C 97.1667,309.5 97.1667,247.5 98.5,185.5 Z"/></g>
<g><path style="opacity:1" fill="#d0d0d3" d="M 406.5,185.5 C 407.833,247.5 407.833,309.5 406.5,371.5C 406.823,365.31 406.49,359.31 405.5,353.5C 405.5,350.833 405.5,348.167 405.5,345.5C 406.499,292.336 406.832,239.003 406.5,185.5 Z"/></g>
<g><path style="opacity:1" fill="#a9a8af" d="M 157.5,190.5 C 144.01,191.496 130.344,191.829 116.5,191.5C 116.832,228.337 116.498,265.004 115.5,301.5C 115.5,264.5 115.5,227.5 115.5,190.5C 129.5,190.5 143.5,190.5 157.5,190.5 Z"/></g>
<g><path style="opacity:1" fill="#4a485a" d="M 344.5,190.5 C 359.167,190.5 373.833,190.5 388.5,190.5C 388.5,227.5 388.5,264.5 388.5,301.5C 387.502,265.004 387.168,228.337 387.5,191.5C 372.99,191.829 358.657,191.496 344.5,190.5 Z"/></g>
<g><path style="opacity:1" fill="#8b8a90" d="M 124.5,348.5 C 148.994,349.498 173.661,349.831 198.5,349.5C 173.663,350.829 148.663,350.829 123.5,349.5C 123.624,348.893 123.957,348.56 124.5,348.5 Z"/></g>
<g><path style="opacity:1" fill="#8a898f" d="M 302.5,348.5 C 328.598,349.827 354.598,349.827 380.5,348.5C 381.043,348.56 381.376,348.893 381.5,349.5C 368.333,349.833 355.167,350.167 342,350.5C 328.483,350.499 315.316,349.833 302.5,348.5 Z"/></g>
<g><path style="opacity:1" fill="#fafafb" d="M 99.5,353.5 C 101.261,362.775 106.594,369.275 115.5,373C 130.457,374.125 145.457,374.625 160.5,374.5C 173.833,374.333 187.167,374.167 200.5,374C 206.411,373.544 211.411,371.211 215.5,367C 238.833,366.333 262.167,366.333 285.5,367C 288.876,370.356 292.876,372.69 297.5,374C 326.167,374.667 354.833,374.667 383.5,374C 395.569,372.093 402.903,365.26 405.5,353.5C 406.49,359.31 406.823,365.31 406.5,371.5C 404.01,379.919 398.344,384.252 389.5,384.5C 346.833,384.5 304.167,384.5 261.5,384.5C 261.172,396.345 261.505,408.012 262.5,419.5C 280.836,419.333 299.17,419.5 317.5,420C 323.612,423.293 325.112,428.127 322,434.5C 320.59,435.787 319.09,436.954 317.5,438C 274.167,438.667 230.833,438.667 187.5,438C 180.349,434.521 178.849,429.354 183,422.5C 183.671,421.748 184.504,421.414 185.5,421.5C 204.787,420.525 224.12,420.191 243.5,420.5C 243.828,408.322 243.495,396.322 242.5,384.5C 198.499,384.667 154.499,384.5 110.5,384C 104.253,381.921 100.253,377.754 98.5,371.5C 98.1771,365.31 98.5104,359.31 99.5,353.5 Z"/></g>
<g><path style="opacity:1" fill="#322f47" d="M 389.5,384.5 C 347.337,385.499 305.003,385.832 262.5,385.5C 262.5,396.833 262.5,408.167 262.5,419.5C 261.505,408.012 261.172,396.345 261.5,384.5C 304.167,384.5 346.833,384.5 389.5,384.5 Z"/></g>
<g><path style="opacity:1" fill="#c0bfc3" d="M 242.5,384.5 C 243.495,396.322 243.828,408.322 243.5,420.5C 224.12,420.191 204.787,420.525 185.5,421.5C 185.611,420.883 185.944,420.383 186.5,420C 205.164,419.5 223.83,419.333 242.5,419.5C 242.5,407.833 242.5,396.167 242.5,384.5 Z"/></g>
</svg>
