<svg xmlns="http://www.w3.org/2000/svg" version="1.1" xmlns:xlink="http://www.w3.org/1999/xlink" xmlns:svgjs="http://svgjs.dev/svgjs" width="1000" height="1000" viewBox="0 0 1000 1000"><g transform="matrix(1,0,0,1,-0.9663475141127833,-0.966347514112897)"><svg viewBox="0 0 166 166" data-background-color="#fffdfd" preserveAspectRatio="xMidYMid meet" height="1000" width="1000" xmlns="http://www.w3.org/2000/svg" xmlns:xlink="http://www.w3.org/1999/xlink"><g id="tight-bounds" transform="matrix(1,0,0,1,0.1604136873427251,0.1604136873427393)"><svg viewBox="0 0 165.67917262531452 165.67917262531452" height="165.67917262531452" width="165.67917262531452"><g><svg></svg></g><g><svg viewBox="0 0 165.67917262531452 165.67917262531452" height="165.67917262531452" width="165.67917262531452"><g><path d="M0 82.84c0-45.751 37.089-82.84 82.84-82.84 45.751 0 82.84 37.089 82.839 82.84 0 45.751-37.089 82.84-82.839 82.839-45.751 0-82.84-37.089-82.84-82.839zM82.84 162.201c43.83 0 79.361-35.531 79.361-79.361 0-43.83-35.531-79.361-79.361-79.361-43.83 0-79.361 35.531-79.361 79.361 0 43.83 35.531 79.361 79.361 79.361z" data-fill-palette-color="tertiary" fill="#2f80ed" stroke="transparent"></path><ellipse rx="79.52600286015097" ry="79.52600286015097" cx="82.83958631265726" cy="82.83958631265726" fill="#2f80ed" stroke="transparent" stroke-width="0" fill-opacity="1" data-fill-palette-color="tertiary"></ellipse></g><g transform="matrix(1,0,0,1,38.900263450850545,63.55247693765726)"><svg viewBox="0 0 87.87864572361343 38.57421875" height="38.57421875" width="87.87864572361343"><g><svg viewBox="0 0 87.87864572361343 38.57421875" height="38.57421875" width="87.87864572361343"><g><svg viewBox="0 0 87.87864572361343 38.57421875" height="38.57421875" width="87.87864572361343"><g id="textblocktransform"><svg viewBox="0 0 87.87864572361343 38.57421875" height="38.57421875" width="87.87864572361343" id="textblock"><g><svg viewBox="0 0 87.87864572361343 38.57421875" height="38.57421875" width="87.87864572361343"><g><svg><g></g><g></g></svg></g><g><svg><g><svg></svg></g><g></g></svg></g><g id="text-0"><svg viewBox="0 0 87.87864572361343 38.57421875" height="38.57421875" width="87.87864572361343"><g transform="matrix(1,0,0,1,0,0)"><svg width="28.8818359375" viewBox="-0.15 -37.84 28.889999999999997 38.57000000000001" height="38.57421875" data-palette-color="#ffffff"><path d="M24.1-16.02L24.1-8.84Q24.63-7.35 25.88-6.86L25.88-6.86Q24.9-6.54 24.05-5.71 23.19-4.88 23.12-4.64L23.12-4.64Q22.34-2.22 18.87-0.68L18.87-0.68Q15.67 0.73 12.89 0.73 10.11 0.73 8.19 0.04 6.27-0.66 4.81-1.9L4.81-1.9Q1.59-4.61 1.59-8.54L1.59-8.54Q1.59-11.13-0.15-12.28L-0.15-12.28Q0.59-13.48 1.9-13.48L1.9-13.48Q2.64-13.48 3.32-13.06L3.32-13.06Q4.47-14.53 7.67-14.53L7.67-14.53Q8.2-14.53 8.42-14.26L8.42-14.26Q8.11-13.89 8.29-13.2 8.47-12.5 8.47-12.33L8.47-12.33 8.47-12.04Q8.47-11.91 8.52-11.79L8.52-11.79Q8.76-11.84 9.03-11.84 9.3-11.84 9.7-11.69 10.11-11.55 10.42-11.28L10.42-11.28Q11.16-10.67 11.16-9.84L11.16-9.84Q11.16-9.62 11.08-9.45L11.08-9.45Q10.64-9.62 10.13-9.62 9.62-9.62 9.11-9.45 8.59-9.28 8.15-8.89L8.15-8.89Q7.18-8.03 7.18-6.4L7.18-6.4Q7.18-4.81 8.4-3.66L8.4-3.66Q9.64-2.54 11.61-2.54 13.57-2.54 15.11-3.69L15.11-3.69 15.11-16.02Q15.11-17.14 14.65-17.68L14.65-17.68Q13.92-18.58 12.13-19.46L12.13-19.46Q13.79-20.21 14.28-20.8L14.28-20.8Q15.11-21.75 15.11-22.95L15.11-22.95 15.11-33.25Q14.28-35.13 12.11-35.13L12.11-35.13Q11.28-35.13 10.74-34.72L10.74-34.72Q10.47-35.08 10.47-35.56 10.47-36.04 10.75-36.45 11.04-36.87 11.52-37.16L11.52-37.16Q12.65-37.84 14.1-37.84 15.55-37.84 16.77-37.04L16.77-37.04Q18.04-37.84 19.6-37.84 21.17-37.84 22.44-37.04L22.44-37.04Q23.66-37.84 24.73-37.84 25.81-37.84 26.49-37.66 27.17-37.48 27.69-37.16L27.69-37.16Q28.74-36.52 28.74-35.57L28.74-35.57Q28.74-35.08 28.47-34.72L28.47-34.72Q27.93-35.13 27.1-35.13L27.1-35.13Q24.93-35.13 24.1-33.25L24.1-33.25 24.1-22.95Q24.1-21.75 24.61-21.17L24.61-21.17Q25.42-20.21 27.08-19.46L27.08-19.46Q25.29-18.58 24.8-18.02L24.8-18.02Q24.1-17.14 24.1-16.02L24.1-16.02ZM17.46-9.64L17.46-6.47Q18.68-6.93 18.8-9.67L18.8-9.67Q18.95-12.4 18.95-17.24 18.95-22.07 18.93-23.67 18.92-25.27 18.9-26.25L18.9-26.25Q18.82-29.13 18.35-29.72 17.87-30.32 17.46-30.52L17.46-30.52Q17.46-22.02 17.16-20.85L17.16-20.85Q16.82-19.87 15.5-19.46L15.5-19.46Q16.97-18.95 17.16-18.21L17.16-18.21Q17.46-17.04 17.46-9.64L17.46-9.64Z" opacity="1" transform="matrix(1,0,0,1,0,0)" fill="#ffffff" class="undefined-text-0" data-fill-palette-color="quaternary"></path></svg></g><g><svg xmlns="http://www.w3.org/2000/svg" xmlns:xlink="http://www.w3.org/1999/xlink" version="1.0" x="43.6171875" y="0" viewBox="1.118 4.1185758 47.921 41.76353899999999" enable-background="new 0 0 50 50" xml:space="preserve" height="38.57421875" width="44.26145822361344" class="icon-g$-0" data-fill-palette-color="accent" id="g$-0"><g fill="#ffffff" data-fill-palette-color="accent"><g fill="#ffffff" data-fill-palette-color="accent"><polygon fill="#ffffff" points="10.821,24.951 21,32.193 21,39.035 1.118,24.891 21,11.118 21,17.9   " data-fill-palette-color="accent"></polygon></g><g fill="#ffffff" data-fill-palette-color="accent"><polygon fill="#ffffff" points="49.039,25.277 35.815,16.063 34.219,21.712 39.475,25.338 31.411,30.97 29,38.79 29,39.424   " data-fill-palette-color="accent"></polygon></g><rect x="25.577" y="3.983" transform="matrix(0.9606 0.278 -0.278 0.9606 8.0575 -6.8179)" fill="#ffffff" width="4.981" height="42.035" data-fill-palette-color="accent"></rect></g></svg></g></svg></g></svg></g></svg></g></svg></g><g></g></svg></g></svg></g></svg></g><defs></defs></svg><rect width="165.67917262531452" height="165.67917262531452" fill="none" stroke="none" visibility="hidden"></rect></g></svg></g></svg>