<?xml version="1.0" encoding="UTF-8"?>
<!DOCTYPE svg PUBLIC "-//W3C//DTD SVG 1.1//EN" "http://www.w3.org/Graphics/SVG/1.1/DTD/svg11.dtd">
<svg xmlns="http://www.w3.org/2000/svg" version="1.1" width="500px" height="500px" style="shape-rendering:geometricPrecision; text-rendering:geometricPrecision; image-rendering:optimizeQuality; fill-rule:evenodd; clip-rule:evenodd" xmlns:xlink="http://www.w3.org/1999/xlink">
<g><path style="opacity:1" fill="#d0abc1" d="M 91.5,0.5 C 91.5,0.166667 91.5,-0.166667 91.5,-0.5C 96.5,-0.5 101.5,-0.5 106.5,-0.5C 111.366,3.76947 117.033,6.76947 123.5,8.5C 126.319,11.9096 129.986,13.7429 134.5,14C 148.812,22.1577 163.478,29.8243 178.5,37C 186.135,43.3186 194.801,47.8186 204.5,50.5C 204.5,53.1667 204.5,55.8333 204.5,58.5C 202.983,58.4894 201.816,57.8228 201,56.5C 198.522,57.4467 196.188,57.4467 194,56.5C 193,55.1667 192,53.8333 191,52.5C 189.951,53.5171 188.784,53.6838 187.5,53C 184.395,50.2102 181.062,47.8769 177.5,46C 173.201,44.8596 169.534,42.6929 166.5,39.5C 164.556,38.8108 162.556,38.3108 160.5,38C 153.95,35.2407 147.45,31.7407 141,27.5C 140.617,28.056 140.117,28.3893 139.5,28.5C 137.901,28.7678 136.568,28.4345 135.5,27.5C 135.649,26.448 135.483,25.448 135,24.5C 134.667,24.8333 134.333,25.1667 134,25.5C 131.293,24.2759 128.793,22.4425 126.5,20C 117.77,15.7154 109.103,11.5487 100.5,7.5C 100.67,6.17793 100.337,5.01127 99.5,4C 97.0646,2.28453 94.3979,1.11786 91.5,0.5 Z"/></g>
<g><path style="opacity:1" fill="#d6b2c3" d="M 106.5,-0.5 C 108.167,-0.5 109.833,-0.5 111.5,-0.5C 141.958,16.231 172.958,32.231 204.5,47.5C 204.5,48.5 204.5,49.5 204.5,50.5C 194.801,47.8186 186.135,43.3186 178.5,37C 163.478,29.8243 148.812,22.1577 134.5,14C 129.986,13.7429 126.319,11.9096 123.5,8.5C 117.033,6.76947 111.366,3.76947 106.5,-0.5 Z"/></g>
<g><path style="opacity:1" fill="#dbb8c4" d="M 111.5,-0.5 C 113.167,-0.5 114.833,-0.5 116.5,-0.5C 145.448,15.3096 174.781,30.643 204.5,45.5C 204.5,46.1667 204.5,46.8333 204.5,47.5C 172.958,32.231 141.958,16.231 111.5,-0.5 Z"/></g>
<g><path style="opacity:1" fill="#e5c4c6" d="M 121.5,-0.5 C 123.5,-0.5 125.5,-0.5 127.5,-0.5C 146.275,10.0577 165.275,20.391 184.5,30.5C 190.736,32.8377 196.569,35.8377 202,39.5C 202.333,39.1667 202.667,38.8333 203,38.5C 203.278,39.4158 203.778,40.0825 204.5,40.5C 204.5,41.1667 204.5,41.8333 204.5,42.5C 176.575,28.3728 148.908,14.0394 121.5,-0.5 Z"/></g>
<g><path style="opacity:0.994" fill="#f1d1c9" d="M 133.5,-0.5 C 135.167,-0.5 136.833,-0.5 138.5,-0.5C 160.824,11.9974 183.491,23.9974 206.5,35.5C 206.167,36.1667 205.833,36.8333 205.5,37.5C 181.133,25.319 157.133,12.6523 133.5,-0.5 Z"/></g>
<g><path style="opacity:0.991" fill="#f9d9cb" d="M 138.5,-0.5 C 144.833,-0.5 151.167,-0.5 157.5,-0.5C 157.953,0.458367 158.619,1.2917 159.5,2C 177.288,10.96 194.955,20.1267 212.5,29.5C 210.194,31.1394 208.194,33.1394 206.5,35.5C 183.491,23.9974 160.824,11.9974 138.5,-0.5 Z"/></g>
<g><path style="opacity:0.99" fill="#f6d1cd" d="M 157.5,-0.5 C 159.5,-0.5 161.5,-0.5 163.5,-0.5C 180.943,9.20722 198.61,18.5406 216.5,27.5C 215.486,28.6737 214.153,29.3404 212.5,29.5C 194.955,20.1267 177.288,10.96 159.5,2C 158.619,1.2917 157.953,0.458367 157.5,-0.5 Z"/></g>
<g><path style="opacity:0.995" fill="#f0c4cf" d="M 170.5,-0.5 C 172.833,-0.5 175.167,-0.5 177.5,-0.5C 193.532,8.18122 209.532,16.8479 225.5,25.5C 224.167,25.8333 222.833,26.1667 221.5,26.5C 204.697,17.3272 187.697,8.32723 170.5,-0.5 Z"/></g>
<g><path style="opacity:0.991" fill="#eab8d1" d="M 183.5,-0.5 C 185.833,-0.5 188.167,-0.5 190.5,-0.5C 204.963,7.23231 219.296,15.2323 233.5,23.5C 232.041,23.4326 230.708,23.7659 229.5,24.5C 215.17,16.4241 200.67,8.42411 186,0.5C 184.841,1.566 184.008,1.23267 183.5,-0.5 Z"/></g>
<g><path style="opacity:0.987" fill="#e7b2d2" d="M 190.5,-0.5 C 192.833,-0.5 195.167,-0.5 197.5,-0.5C 210.852,6.63265 224.186,13.966 237.5,21.5C 236.329,22.3446 234.995,23.0113 233.5,23.5C 219.296,15.2323 204.963,7.23231 190.5,-0.5 Z"/></g>
<g><path style="opacity:0.992" fill="#e4abd3" d="M 197.5,-0.5 C 199.833,-0.5 202.167,-0.5 204.5,-0.5C 217.59,6.3098 230.59,13.3098 243.5,20.5C 241.5,20.8333 239.5,21.1667 237.5,21.5C 224.186,13.966 210.852,6.63265 197.5,-0.5 Z"/></g>
<g><path style="opacity:0.991" fill="#e1a5d3" d="M 204.5,-0.5 C 207.167,-0.5 209.833,-0.5 212.5,-0.5C 216.408,2.22206 220.241,5.22206 224,8.5C 224.561,7.97814 225.228,7.6448 226,7.5C 233.541,11.5155 240.708,15.1822 247.5,18.5C 246.329,19.3446 244.995,20.0113 243.5,20.5C 230.59,13.3098 217.59,6.3098 204.5,-0.5 Z"/></g>
<g><path style="opacity:0.991" fill="#df9fd4" d="M 212.5,-0.5 C 214.167,-0.5 215.833,-0.5 217.5,-0.5C 228.802,5.48516 240.135,11.4852 251.5,17.5C 250.432,18.4345 249.099,18.7678 247.5,18.5C 240.708,15.1822 233.541,11.5155 226,7.5C 225.228,7.6448 224.561,7.97814 224,8.5C 220.241,5.22206 216.408,2.22206 212.5,-0.5 Z"/></g>
<g><path style="opacity:0.991" fill="#dc99d5" d="M 217.5,-0.5 C 220.5,-0.5 223.5,-0.5 226.5,-0.5C 235.719,5.27699 245.386,10.277 255.5,14.5C 255.306,16.9118 253.973,17.9118 251.5,17.5C 240.135,11.4852 228.802,5.48516 217.5,-0.5 Z"/></g>
<g><path style="opacity:0.998" fill="#d78ed7" d="M 226.5,-0.5 C 230.833,-0.5 235.167,-0.5 239.5,-0.5C 244.564,2.52826 249.897,5.19493 255.5,7.5C 255.5,9.83333 255.5,12.1667 255.5,14.5C 245.386,10.277 235.719,5.27699 226.5,-0.5 Z"/></g>
<g><path style="opacity:0.997" fill="#d285d8" d="M 239.5,-0.5 C 244.833,-0.5 250.167,-0.5 255.5,-0.5C 255.5,2.16667 255.5,4.83333 255.5,7.5C 249.897,5.19493 244.564,2.52826 239.5,-0.5 Z"/></g>
<g><path style="opacity:0.997" fill="#edbed0" d="M 177.5,-0.5 C 179.5,-0.5 181.5,-0.5 183.5,-0.5C 184.008,1.23267 184.841,1.566 186,0.5C 200.67,8.42411 215.17,16.4241 229.5,24.5C 228.167,24.8333 226.833,25.1667 225.5,25.5C 209.532,16.8479 193.532,8.18122 177.5,-0.5 Z"/></g>
<g><path style="opacity:0.99" fill="#dc99d5" d="M 320.5,1.5 C 323.167,1.5 325.833,1.5 328.5,1.5C 342.35,9.57565 356.683,16.909 371.5,23.5C 372.451,24.9187 372.784,26.5853 372.5,28.5C 354.645,20.2645 337.312,11.2645 320.5,1.5 Z"/></g>
<g><path style="opacity:0.99" fill="#d992d6" d="M 328.5,1.5 C 330.833,1.5 333.167,1.5 335.5,1.5C 347.214,8.02342 359.214,14.0234 371.5,19.5C 371.5,20.8333 371.5,22.1667 371.5,23.5C 356.683,16.909 342.35,9.57565 328.5,1.5 Z"/></g>
<g><path style="opacity:0.984" fill="#d68cd7" d="M 335.5,1.5 C 337.833,1.5 340.167,1.5 342.5,1.5C 351.767,6.46915 361.1,11.4692 370.5,16.5C 371.11,17.391 371.443,18.391 371.5,19.5C 359.214,14.0234 347.214,8.02342 335.5,1.5 Z"/></g>
<g><path style="opacity:0.976" fill="#d386d8" d="M 342.5,1.5 C 345.167,1.5 347.833,1.5 350.5,1.5C 356.574,5.20131 362.908,8.53464 369.5,11.5C 370.451,12.9187 370.784,14.5853 370.5,16.5C 361.1,11.4692 351.767,6.46915 342.5,1.5 Z"/></g>
<g><path style="opacity:0.976" fill="#d07fd9" d="M 350.5,1.5 C 356.5,1.5 362.5,1.5 368.5,1.5C 369.051,4.80673 369.384,8.14006 369.5,11.5C 362.908,8.53464 356.574,5.20131 350.5,1.5 Z"/></g>
<g><path style="opacity:0.965" fill="#caa5c0" d="M 91.5,0.5 C 94.3979,1.11786 97.0646,2.28453 99.5,4C 100.337,5.01127 100.67,6.17793 100.5,7.5C 109.103,11.5487 117.77,15.7154 126.5,20C 128.793,22.4425 131.293,24.2759 134,25.5C 134.333,25.1667 134.667,24.8333 135,24.5C 135.483,25.448 135.649,26.448 135.5,27.5C 121.15,24.1627 106.817,20.6627 92.5,17C 91.5268,11.5934 91.1934,6.09345 91.5,0.5 Z"/></g>
<g><path style="opacity:0.986" fill="#e1a5d3" d="M 312.5,2.5 C 316.662,3.8314 320.495,5.8314 324,8.5C 324.333,8.16667 324.667,7.83333 325,7.5C 328.106,10.2134 331.606,12.3801 335.5,14C 336.784,14.6838 337.951,14.5171 339,13.5C 339.249,14.624 339.749,15.624 340.5,16.5C 342.815,17.2343 344.648,18.5676 346,20.5C 348.291,19.6894 350.125,20.5228 351.5,23C 358.724,26.4462 366.058,29.6129 373.5,32.5C 373.433,33.9587 373.766,35.2921 374.5,36.5C 353.36,26.0969 332.36,15.4302 311.5,4.5C 311.833,3.83333 312.167,3.16667 312.5,2.5 Z"/></g>
<g><path style="opacity:1" fill="#f3cace" d="M 163.5,-0.5 C 165.833,-0.5 168.167,-0.5 170.5,-0.5C 187.697,8.32723 204.697,17.3272 221.5,26.5C 219.958,27.3007 218.292,27.634 216.5,27.5C 198.61,18.5406 180.943,9.20722 163.5,-0.5 Z"/></g>
<g><path style="opacity:0.98" fill="#e4abd3" d="M 311.5,4.5 C 332.36,15.4302 353.36,26.0969 374.5,36.5C 374.5,37.8333 374.5,39.1667 374.5,40.5C 352.682,29.7578 331.015,18.7578 309.5,7.5C 309.427,5.97306 310.094,4.97306 311.5,4.5 Z"/></g>
<g><path style="opacity:0.985" fill="#e7b2d2" d="M 309.5,7.5 C 331.015,18.7578 352.682,29.7578 374.5,40.5C 375.301,42.0418 375.634,43.7085 375.5,45.5C 352.847,33.8399 330.18,22.1732 307.5,10.5C 307.427,8.97306 308.094,7.97306 309.5,7.5 Z"/></g>
<g><path style="opacity:0.986" fill="#eab8d1" d="M 307.5,10.5 C 330.18,22.1732 352.847,33.8399 375.5,45.5C 375.833,46.8333 376.167,48.1667 376.5,49.5C 352.744,37.3577 329.078,25.0243 305.5,12.5C 305.833,11.5 306.5,10.8333 307.5,10.5 Z"/></g>
<g><path style="opacity:0.978" fill="#df9fd4" d="M 312.5,2.5 C 314.948,1.52693 317.615,1.1936 320.5,1.5C 337.312,11.2645 354.645,20.2645 372.5,28.5C 373.234,29.7079 373.567,31.0413 373.5,32.5C 366.058,29.6129 358.724,26.4462 351.5,23C 350.125,20.5228 348.291,19.6894 346,20.5C 344.648,18.5676 342.815,17.2343 340.5,16.5C 339.749,15.624 339.249,14.624 339,13.5C 337.951,14.5171 336.784,14.6838 335.5,14C 331.606,12.3801 328.106,10.2134 325,7.5C 324.667,7.83333 324.333,8.16667 324,8.5C 320.495,5.8314 316.662,3.8314 312.5,2.5 Z"/></g>
<g><path style="opacity:0.982" fill="#f0c4cf" d="M 303.5,15.5 C 328.063,28.279 352.396,40.6124 376.5,52.5C 377.434,53.5676 377.768,54.901 377.5,56.5C 352.419,43.2928 327.086,30.6261 301.5,18.5C 301.427,16.9731 302.094,15.9731 303.5,15.5 Z"/></g>
<g><path style="opacity:1" fill="#ebcac8" d="M 127.5,-0.5 C 129.5,-0.5 131.5,-0.5 133.5,-0.5C 157.133,12.6523 181.133,25.319 205.5,37.5C 205.443,38.609 205.11,39.609 204.5,40.5C 203.778,40.0825 203.278,39.4158 203,38.5C 202.667,38.8333 202.333,39.1667 202,39.5C 196.569,35.8377 190.736,32.8377 184.5,30.5C 165.275,20.391 146.275,10.0577 127.5,-0.5 Z"/></g>
<g><path style="opacity:0.988" fill="#f6d1cd" d="M 299.5,21.5 C 326.247,34.3752 352.58,47.3752 378.5,60.5C 378.5,61.8333 378.5,63.1667 378.5,64.5C 351.349,51.0912 324.349,37.4245 297.5,23.5C 297.833,22.5 298.5,21.8333 299.5,21.5 Z"/></g>
<g><path style="opacity:0.984" fill="#f8d7cc" d="M 297.5,23.5 C 324.349,37.4245 351.349,51.0912 378.5,64.5C 379.434,65.5676 379.768,66.901 379.5,68.5C 351.666,54.4169 323.999,40.0835 296.5,25.5C 296.328,24.5084 296.662,23.8417 297.5,23.5 Z"/></g>
<g><path style="opacity:1" fill="#e0bec5" d="M 116.5,-0.5 C 118.167,-0.5 119.833,-0.5 121.5,-0.5C 148.908,14.0394 176.575,28.3728 204.5,42.5C 204.5,43.5 204.5,44.5 204.5,45.5C 174.781,30.643 145.448,15.3096 116.5,-0.5 Z"/></g>
<g><path style="opacity:0.982" fill="#f9dacb" d="M 296.5,25.5 C 323.999,40.0835 351.666,54.4169 379.5,68.5C 380.219,70.7638 380.552,73.0971 380.5,75.5C 351.547,60.6859 322.214,45.6859 292.5,30.5C 293.124,28.246 294.457,26.5794 296.5,25.5 Z"/></g>
<g><path style="opacity:1" fill="#edbed0" d="M 305.5,12.5 C 329.078,25.0243 352.744,37.3577 376.5,49.5C 376.5,50.5 376.5,51.5 376.5,52.5C 352.396,40.6124 328.063,28.279 303.5,15.5C 303.932,14.2905 304.599,13.2905 305.5,12.5 Z"/></g>
<g><path style="opacity:0.988" fill="#cba5c0" d="M 204.5,58.5 C 204.5,62.5 204.5,66.5 204.5,70.5C 185.505,59.6901 166.838,49.6901 148.5,40.5C 147.407,34.946 144.407,30.946 139.5,28.5C 140.117,28.3893 140.617,28.056 141,27.5C 147.45,31.7407 153.95,35.2407 160.5,38C 162.556,38.3108 164.556,38.8108 166.5,39.5C 169.534,42.6929 173.201,44.8596 177.5,46C 181.062,47.8769 184.395,50.2102 187.5,53C 188.784,53.6838 189.951,53.5171 191,52.5C 192,53.8333 193,55.1667 194,56.5C 196.188,57.4467 198.522,57.4467 201,56.5C 201.816,57.8228 202.983,58.4894 204.5,58.5 Z"/></g>
<g><path style="opacity:0.985" fill="#f1d1c9" d="M 292.5,30.5 C 322.214,45.6859 351.547,60.6859 380.5,75.5C 381.11,76.391 381.443,77.391 381.5,78.5C 351.466,63.8136 321.466,48.4803 291.5,32.5C 291.328,31.5084 291.662,30.8417 292.5,30.5 Z"/></g>
<g><path style="opacity:0.989" fill="#e5c4c6" d="M 289.5,34.5 C 319.874,50.2434 350.541,66.2434 381.5,82.5C 382.338,82.8417 382.672,83.5084 382.5,84.5C 350.514,69.5082 319.181,53.5082 288.5,36.5C 288.328,35.5084 288.662,34.8417 289.5,34.5 Z"/></g>
<g><path style="opacity:0.986" fill="#dbb8c4" d="M 286.5,38.5 C 318.008,55.6452 350.008,71.9785 382.5,87.5C 383.11,88.391 383.443,89.391 383.5,90.5C 358.75,78.6252 334.083,66.4586 309.5,54C 301.348,49.7577 293.348,45.2577 285.5,40.5C 285.833,39.8333 286.167,39.1667 286.5,38.5 Z"/></g>
<g><path style="opacity:0.989" fill="#d6b3c3" d="M 285.5,40.5 C 293.348,45.2577 301.348,49.7577 309.5,54C 334.083,66.4586 358.75,78.6252 383.5,90.5C 383.5,91.8333 383.5,93.1667 383.5,94.5C 350.418,76.6263 317.085,59.293 283.5,42.5C 283.833,41.5 284.5,40.8333 285.5,40.5 Z"/></g>
<g><path style="opacity:1" fill="#f3cace" d="M 301.5,18.5 C 327.086,30.6261 352.419,43.2928 377.5,56.5C 377.833,57.8333 378.167,59.1667 378.5,60.5C 352.58,47.3752 326.247,34.3752 299.5,21.5C 299.427,19.9731 300.094,18.9731 301.5,18.5 Z"/></g>
<g><path style="opacity:1" fill="#e0bec5" d="M 288.5,36.5 C 319.181,53.5082 350.514,69.5082 382.5,84.5C 382.5,85.5 382.5,86.5 382.5,87.5C 350.008,71.9785 318.008,55.6452 286.5,38.5C 286.833,37.5 287.5,36.8333 288.5,36.5 Z"/></g>
<g><path style="opacity:0.999" fill="#c59fbf" d="M 148.5,40.5 C 166.838,49.6901 185.505,59.6901 204.5,70.5C 204.5,73.1667 204.5,75.8333 204.5,78.5C 185.708,69.0038 167.041,59.3371 148.5,49.5C 148.5,46.5 148.5,43.5 148.5,40.5 Z"/></g>
<g><path style="opacity:0.99" fill="#d0abc2" d="M 283.5,42.5 C 317.085,59.293 350.418,76.6263 383.5,94.5C 384.581,97.6267 385.247,100.96 385.5,104.5C 382.392,104.056 379.726,102.722 377.5,100.5C 376.914,100.709 376.414,101.043 376,101.5C 371.113,98.9662 366.446,95.9662 362,92.5C 361.439,93.0219 360.772,93.3552 360,93.5C 351.806,88.3585 343.806,83.3585 336,78.5C 335.026,80.8776 334.359,80.5443 334,77.5C 333.667,77.8333 333.333,78.1667 333,78.5C 328.977,76.1291 324.977,73.7957 321,71.5C 320.667,72.1667 320.333,72.8333 320,73.5C 313.586,68.0962 306.419,63.9295 298.5,61C 298.833,60.6667 299.167,60.3333 299.5,60C 297.324,59.8371 295.491,59.0037 294,57.5C 292.434,58.0606 291.101,57.3939 290,55.5C 289.667,55.8333 289.333,56.1667 289,56.5C 285.708,54.0251 282.208,52.0251 278.5,50.5C 279.655,47.5251 281.322,44.8584 283.5,42.5 Z"/></g>
<g><path style="opacity:1" fill="#ebcac7" d="M 291.5,32.5 C 321.466,48.4803 351.466,63.8136 381.5,78.5C 381.5,79.8333 381.5,81.1667 381.5,82.5C 350.541,66.2434 319.874,50.2434 289.5,34.5C 289.833,33.5 290.5,32.8333 291.5,32.5 Z"/></g>
<g><path style="opacity:0.989" fill="#caa5c0" d="M 278.5,50.5 C 282.208,52.0251 285.708,54.0251 289,56.5C 289.333,56.1667 289.667,55.8333 290,55.5C 291.101,57.3939 292.434,58.0606 294,57.5C 295.491,59.0037 297.324,59.8371 299.5,60C 299.167,60.3333 298.833,60.6667 298.5,61C 306.419,63.9295 313.586,68.0962 320,73.5C 320.333,72.8333 320.667,72.1667 321,71.5C 324.977,73.7957 328.977,76.1291 333,78.5C 333.333,78.1667 333.667,77.8333 334,77.5C 334.359,80.5443 335.026,80.8776 336,78.5C 343.806,83.3585 351.806,88.3585 360,93.5C 360.772,93.3552 361.439,93.0219 362,92.5C 366.446,95.9662 371.113,98.9662 376,101.5C 376.414,101.043 376.914,100.709 377.5,100.5C 379.726,102.722 382.392,104.056 385.5,104.5C 386.485,108.076 387.152,111.742 387.5,115.5C 348.5,95.7747 310.5,76.1081 273.5,56.5C 274.701,54.0905 276.367,52.0905 278.5,50.5 Z"/></g>
<g><path style="opacity:0.999" fill="#bf98be" d="M 148.5,49.5 C 167.041,59.3371 185.708,69.0038 204.5,78.5C 204.5,81.8333 204.5,85.1667 204.5,88.5C 187.375,79.9722 170.709,71.3056 154.5,62.5C 152.47,61.8283 150.47,61.1616 148.5,60.5C 148.5,56.8333 148.5,53.1667 148.5,49.5 Z"/></g>
<g><path style="opacity:0.99" fill="#c59fbf" d="M 273.5,56.5 C 310.5,76.1081 348.5,95.7747 387.5,115.5C 388.062,118.546 388.729,121.546 389.5,124.5C 388.883,124.611 388.383,124.944 388,125.5C 348.385,103.963 308.551,83.296 268.5,63.5C 269.934,60.9528 271.6,58.6195 273.5,56.5 Z"/></g>
<g><path style="opacity:0.999" fill="#ba92bd" d="M 148.5,60.5 C 150.47,61.1616 152.47,61.8283 154.5,62.5C 170.709,71.3056 187.375,79.9722 204.5,88.5C 204.5,91.5 204.5,94.5 204.5,97.5C 203.279,96.9717 202.113,96.305 201,95.5C 200.667,95.8333 200.333,96.1667 200,96.5C 194.094,91.8671 187.594,88.3671 180.5,86C 178.217,84.1883 175.384,82.3549 172,80.5C 171.667,80.8333 171.333,81.1667 171,81.5C 170.626,80.5838 170.126,79.7504 169.5,79C 162.268,76.1004 155.268,72.9338 148.5,69.5C 148.5,66.5 148.5,63.5 148.5,60.5 Z"/></g>
<g><path style="opacity:0.99" fill="#bf98be" d="M 268.5,63.5 C 308.551,83.296 348.385,103.963 388,125.5C 388.383,124.944 388.883,124.611 389.5,124.5C 389.844,128.894 390.51,133.228 391.5,137.5C 374.697,128.363 357.53,119.029 340,109.5C 338.836,109.165 337.503,109.165 336,109.5C 331.165,105.435 325.832,102.102 320,99.5C 318.442,100.345 317.442,99.6785 317,97.5C 316.667,97.8333 316.333,98.1667 316,98.5C 310.795,95.3162 305.461,92.3162 300,89.5C 299.667,89.8333 299.333,90.1667 299,90.5C 297.667,89.1667 296.333,87.8333 295,86.5C 294.667,86.8333 294.333,87.1667 294,87.5C 289.446,85.4472 285.279,82.7805 281.5,79.5C 280.914,79.7093 280.414,80.0426 280,80.5C 274.494,77.0668 268.994,73.7334 263.5,70.5C 264.934,67.9528 266.6,65.6195 268.5,63.5 Z"/></g>
<g><path style="opacity:0.991" fill="#ba92bd" d="M 263.5,70.5 C 268.994,73.7334 274.494,77.0668 280,80.5C 280.414,80.0426 280.914,79.7093 281.5,79.5C 285.279,82.7805 289.446,85.4472 294,87.5C 294.333,87.1667 294.667,86.8333 295,86.5C 296.333,87.8333 297.667,89.1667 299,90.5C 299.333,90.1667 299.667,89.8333 300,89.5C 305.461,92.3162 310.795,95.3162 316,98.5C 316.333,98.1667 316.667,97.8333 317,97.5C 317.442,99.6785 318.442,100.345 320,99.5C 325.832,102.102 331.165,105.435 336,109.5C 337.503,109.165 338.836,109.165 340,109.5C 357.53,119.029 374.697,128.363 391.5,137.5C 391.963,140.482 392.296,143.482 392.5,146.5C 389.302,145.981 387.302,144.647 386.5,142.5C 385.914,142.709 385.414,143.043 385,143.5C 372.833,135.983 359.333,128.983 344.5,122.5C 343.667,121.5 342.833,120.5 342,119.5C 341.667,119.833 341.333,120.167 341,120.5C 334.04,116.564 327.04,112.564 320,108.5C 315.038,106.817 309.871,104.65 304.5,102C 302.905,99.8981 300.905,98.3981 298.5,97.5C 298.167,97.5 297.833,97.5 297.5,97.5C 289.865,93.9908 282.365,89.9908 275,85.5C 274.667,85.8333 274.333,86.1667 274,86.5C 273.558,84.3215 272.558,83.6548 271,84.5C 269.54,82.5776 267.873,81.9109 266,82.5C 263.985,80.1328 261.818,78.7995 259.5,78.5C 260.399,75.605 261.733,72.9384 263.5,70.5 Z"/></g>
<g><path style="opacity:0.999" fill="#b086ba" d="M 148.5,78.5 C 155.172,80.2621 161.338,83.5955 167,88.5C 168.716,87.4477 169.716,88.1144 170,90.5C 172.184,89.8919 174.184,90.5586 176,92.5C 176.333,92.1667 176.667,91.8333 177,91.5C 182.628,95.2701 189.128,98.7701 196.5,102C 199.407,103.609 202.073,105.442 204.5,107.5C 204.5,109.833 204.5,112.167 204.5,114.5C 201.559,114.285 198.892,112.785 196.5,110C 195.216,109.316 194.049,109.483 193,110.5C 192.691,109.234 192.191,108.067 191.5,107C 188.751,105.877 186.251,104.377 184,102.5C 183.275,103.059 182.442,103.392 181.5,103.5C 170.583,97.5424 159.583,91.8758 148.5,86.5C 148.5,83.8333 148.5,81.1667 148.5,78.5 Z"/></g>
<g><path style="opacity:1" fill="#b48cbb" d="M 259.5,78.5 C 261.818,78.7995 263.985,80.1328 266,82.5C 267.873,81.9109 269.54,82.5776 271,84.5C 272.558,83.6548 273.558,84.3215 274,86.5C 274.333,86.1667 274.667,85.8333 275,85.5C 282.365,89.9908 289.865,93.9908 297.5,97.5C 295.357,99.1307 293.69,101.131 292.5,103.5C 290.007,102.041 287.341,100.708 284.5,99.5C 275.221,95.1561 265.721,90.4894 256,85.5C 255.617,86.056 255.117,86.3893 254.5,86.5C 255.383,83.2957 257.05,80.6291 259.5,78.5 Z"/></g>
<g><path style="opacity:0.973" fill="#b086ba" d="M 292.5,103.5 C 291.32,106.54 289.653,109.206 287.5,111.5C 279.855,106.688 272.188,102.522 264.5,99C 263.833,98 263.167,97 262.5,96C 258.368,95.0137 254.368,93.847 250.5,92.5C 251.351,90.1184 252.684,88.1184 254.5,86.5C 255.117,86.3893 255.617,86.056 256,85.5C 265.721,90.4894 275.221,95.1561 284.5,99.5C 287.341,100.708 290.007,102.041 292.5,103.5 Z"/></g>
<g><path style="opacity:0.999" fill="#ab81b9" d="M 148.5,86.5 C 159.583,91.8758 170.583,97.5424 181.5,103.5C 182.442,103.392 183.275,103.059 184,102.5C 186.251,104.377 188.751,105.877 191.5,107C 192.191,108.067 192.691,109.234 193,110.5C 194.049,109.483 195.216,109.316 196.5,110C 198.892,112.785 201.559,114.285 204.5,114.5C 204.5,118.167 204.5,121.833 204.5,125.5C 185.824,115.847 167.157,106.18 148.5,96.5C 148.5,93.1667 148.5,89.8333 148.5,86.5 Z"/></g>
<g><path style="opacity:0.999" fill="#b48cbb" d="M 148.5,69.5 C 155.268,72.9338 162.268,76.1004 169.5,79C 170.126,79.7504 170.626,80.5838 171,81.5C 171.333,81.1667 171.667,80.8333 172,80.5C 175.384,82.3549 178.217,84.1883 180.5,86C 187.594,88.3671 194.094,91.8671 200,96.5C 200.333,96.1667 200.667,95.8333 201,95.5C 202.113,96.305 203.279,96.9717 204.5,97.5C 204.5,100.833 204.5,104.167 204.5,107.5C 202.073,105.442 199.407,103.609 196.5,102C 189.128,98.7701 182.628,95.2701 177,91.5C 176.667,91.8333 176.333,92.1667 176,92.5C 174.184,90.5586 172.184,89.8919 170,90.5C 169.716,88.1144 168.716,87.4477 167,88.5C 161.338,83.5955 155.172,80.2621 148.5,78.5C 148.5,75.5 148.5,72.5 148.5,69.5 Z"/></g>
<g><path style="opacity:0.975" fill="#ac81b9" d="M 250.5,92.5 C 254.368,93.847 258.368,95.0137 262.5,96C 263.167,97 263.833,98 264.5,99C 272.188,102.522 279.855,106.688 287.5,111.5C 286.416,114.004 285.083,116.337 283.5,118.5C 278.477,117.665 274.144,115.499 270.5,112C 261.843,108.782 253.843,104.616 246.5,99.5C 247.584,96.9959 248.917,94.6626 250.5,92.5 Z"/></g>
<g><path style="opacity:0.999" fill="#b186ba" d="M 148.5,96.5 C 167.157,106.18 185.824,115.847 204.5,125.5C 204.5,127.833 204.5,130.167 204.5,132.5C 189.369,124.55 174.703,116.55 160.5,108.5C 159.232,109.428 157.899,109.595 156.5,109C 153.967,106.492 151.301,104.992 148.5,104.5C 148.5,101.833 148.5,99.1667 148.5,96.5 Z"/></g>
<g><path style="opacity:0.967" fill="#b186ba" d="M 246.5,99.5 C 253.843,104.616 261.843,108.782 270.5,112C 274.144,115.499 278.477,117.665 283.5,118.5C 282.89,120.434 281.89,122.101 280.5,123.5C 275.623,124.143 271.79,122.477 269,118.5C 262.247,114.084 255.247,110.084 248,106.5C 246.125,105.377 243.958,105.377 241.5,106.5C 242.934,103.953 244.6,101.619 246.5,99.5 Z"/></g>
<g><path style="opacity:0.999" fill="#b78cbc" d="M 148.5,104.5 C 151.301,104.992 153.967,106.492 156.5,109C 157.899,109.595 159.232,109.428 160.5,108.5C 174.703,116.55 189.369,124.55 204.5,132.5C 204.5,135.167 204.5,137.833 204.5,140.5C 201.331,137.783 197.664,135.95 193.5,135C 191.5,133.333 189.5,131.667 187.5,130C 182.937,128.593 178.603,126.926 174.5,125C 165.909,119.873 157.243,115.04 148.5,110.5C 148.5,108.5 148.5,106.5 148.5,104.5 Z"/></g>
<g><path style="opacity:0.974" fill="#b78cbc" d="M 280.5,123.5 C 279.416,126.004 278.083,128.337 276.5,130.5C 264.263,123.55 251.93,116.883 239.5,110.5C 240.167,109.167 240.833,107.833 241.5,106.5C 243.958,105.377 246.125,105.377 248,106.5C 255.247,110.084 262.247,114.084 269,118.5C 271.79,122.477 275.623,124.143 280.5,123.5 Z"/></g>
<g><path style="opacity:0.988" fill="#b087ba" d="M 299.5,107.5 C 313.586,115.159 327.419,122.493 341,129.5C 341.333,129.167 341.667,128.833 342,128.5C 342.442,130.679 343.442,131.345 345,130.5C 347.409,133.041 350.076,134.374 353,134.5C 354.391,137.636 356.558,138.803 359.5,138C 363.042,139.786 366.542,142.286 370,145.5C 371.049,144.483 372.216,144.316 373.5,145C 375.508,147.533 378.008,149.366 381,150.5C 381.333,149.833 381.667,149.167 382,148.5C 383.008,150.259 384.508,151.426 386.5,152C 385.66,153.666 386.16,153.833 388,152.5C 388.317,154.301 388.984,154.634 390,153.5C 391.615,154.386 393.115,155.386 394.5,156.5C 395.092,159.127 395.425,161.794 395.5,164.5C 365.769,148.89 336.269,133.557 307,118.5C 305.076,118.652 303.242,118.652 301.5,118.5C 300.598,115.003 299.931,111.337 299.5,107.5 Z"/></g>
<g><path style="opacity:0.973" fill="#bd92bd" d="M 239.5,110.5 C 251.93,116.883 264.263,123.55 276.5,130.5C 275.833,131.833 275.167,133.167 274.5,134.5C 261.264,129.215 248.597,122.882 236.5,115.5C 237.263,113.632 238.263,111.965 239.5,110.5 Z"/></g>
<g><path style="opacity:0.999" fill="#be92bd" d="M 148.5,110.5 C 157.243,115.04 165.909,119.873 174.5,125C 178.603,126.926 182.937,128.593 187.5,130C 189.5,131.667 191.5,133.333 193.5,135C 197.664,135.95 201.331,137.783 204.5,140.5C 204.5,142.167 204.5,143.833 204.5,145.5C 193.399,141.759 183.233,136.426 174,129.5C 173.667,129.833 173.333,130.167 173,130.5C 170.621,128.116 167.787,126.616 164.5,126C 163.965,123.891 162.965,123.391 161.5,124.5C 157.167,121.342 152.834,119.009 148.5,117.5C 148.5,115.167 148.5,112.833 148.5,110.5 Z"/></g>
<g><path style="opacity:0.968" fill="#c498be" d="M 236.5,115.5 C 248.597,122.882 261.264,129.215 274.5,134.5C 273.066,137.047 271.4,139.381 269.5,141.5C 261.833,136.325 253.667,131.992 245,128.5C 241.505,125.27 237.339,123.27 232.5,122.5C 233.079,119.669 234.412,117.336 236.5,115.5 Z"/></g>
<g><path style="opacity:0.999" fill="#c499be" d="M 148.5,117.5 C 152.834,119.009 157.167,121.342 161.5,124.5C 162.965,123.391 163.965,123.891 164.5,126C 167.787,126.616 170.621,128.116 173,130.5C 173.333,130.167 173.667,129.833 174,129.5C 183.233,136.426 193.399,141.759 204.5,145.5C 204.5,148.167 204.5,150.833 204.5,153.5C 198.225,151.353 192.391,148.353 187,144.5C 186.667,144.833 186.333,145.167 186,145.5C 183.459,143.804 180.959,141.971 178.5,140C 168.067,135.278 158.067,130.445 148.5,125.5C 148.5,122.833 148.5,120.167 148.5,117.5 Z"/></g>
<g><path style="opacity:0.988" fill="#ac81b9" d="M 301.5,118.5 C 303.242,118.652 305.076,118.652 307,118.5C 336.269,133.557 365.769,148.89 395.5,164.5C 396.701,169.008 397.701,173.675 398.5,178.5C 381.152,169.753 364.319,160.753 348,151.5C 342.869,150.847 338.202,148.514 334,144.5C 333.667,144.833 333.333,145.167 333,145.5C 331.667,144.167 330.333,142.833 329,141.5C 328.586,141.957 328.086,142.291 327.5,142.5C 319.637,137.216 311.304,132.883 302.5,129.5C 301.756,125.881 301.423,122.215 301.5,118.5 Z"/></g>
<g><path style="opacity:0.972" fill="#ca9fc0" d="M 232.5,122.5 C 237.339,123.27 241.505,125.27 245,128.5C 253.667,131.992 261.833,136.325 269.5,141.5C 269.25,143.674 268.25,145.341 266.5,146.5C 253.966,139.738 241.633,133.404 229.5,127.5C 229.75,125.326 230.75,123.659 232.5,122.5 Z"/></g>
<g><path style="opacity:0.999" fill="#cb9fc0" d="M 148.5,125.5 C 158.067,130.445 168.067,135.278 178.5,140C 180.959,141.971 183.459,143.804 186,145.5C 186.333,145.167 186.667,144.833 187,144.5C 192.391,148.353 198.225,151.353 204.5,153.5C 204.5,156.167 204.5,158.833 204.5,161.5C 186.092,151.111 167.426,141.111 148.5,131.5C 148.5,129.5 148.5,127.5 148.5,125.5 Z"/></g>
<g><path style="opacity:0.957" fill="#d0a4c1" d="M 229.5,127.5 C 241.633,133.404 253.966,139.738 266.5,146.5C 266.34,148.153 265.674,149.486 264.5,150.5C 251.581,144.707 238.914,138.374 226.5,131.5C 227.026,129.77 228.026,128.436 229.5,127.5 Z"/></g>
<g><path style="opacity:0.986" fill="#b187ba" d="M 302.5,129.5 C 311.304,132.883 319.637,137.216 327.5,142.5C 328.086,142.291 328.586,141.957 329,141.5C 330.333,142.833 331.667,144.167 333,145.5C 333.333,145.167 333.667,144.833 334,144.5C 338.202,148.514 342.869,150.847 348,151.5C 364.319,160.753 381.152,169.753 398.5,178.5C 398.963,181.482 399.296,184.482 399.5,187.5C 397.139,185.653 394.472,184.32 391.5,183.5C 390.422,180.792 388.422,179.292 385.5,179C 385.833,178.667 386.167,178.333 386.5,178C 383.086,177.703 379.753,177.036 376.5,176C 372.489,173.121 368.322,170.621 364,168.5C 362.636,169.258 361.469,168.758 360.5,167C 358.35,165.589 356.016,164.755 353.5,164.5C 353.688,162.897 353.188,161.563 352,160.5C 349.765,161.239 347.765,161.239 346,160.5C 344.167,159.333 342.667,157.833 341.5,156C 332.484,153.318 324.484,149.485 317.5,144.5C 313.035,142.036 308.368,140.036 303.5,138.5C 303.037,135.518 302.704,132.518 302.5,129.5 Z"/></g>
<g><path style="opacity:0.999" fill="#d0a4c1" d="M 148.5,131.5 C 167.426,141.111 186.092,151.111 204.5,161.5C 204.5,163.167 204.5,164.833 204.5,166.5C 185.884,156.842 167.217,147.176 148.5,137.5C 148.5,135.5 148.5,133.5 148.5,131.5 Z"/></g>
<g><path style="opacity:0.968" fill="#dbafc3" d="M 226.5,131.5 C 238.914,138.374 251.581,144.707 264.5,150.5C 263.833,151.833 263.167,153.167 262.5,154.5C 249.474,148.756 236.807,142.423 224.5,135.5C 224.733,133.938 225.4,132.605 226.5,131.5 Z"/></g>
<g><path style="opacity:0.999" fill="#d7abc2" d="M 148.5,137.5 C 167.217,147.176 185.884,156.842 204.5,166.5C 204.5,167.167 204.5,167.833 204.5,168.5C 185.771,159.136 167.104,149.802 148.5,140.5C 148.5,139.5 148.5,138.5 148.5,137.5 Z"/></g>
<g><path style="opacity:0.97" fill="#e8bcc6" d="M 224.5,135.5 C 236.807,142.423 249.474,148.756 262.5,154.5C 261.488,155.872 260.488,157.205 259.5,158.5C 246.93,152.309 234.264,146.309 221.5,140.5C 222.11,138.566 223.11,136.899 224.5,135.5 Z"/></g>
<g><path style="opacity:0.988" fill="#b88dbc" d="M 303.5,138.5 C 308.368,140.036 313.035,142.036 317.5,144.5C 324.484,149.485 332.484,153.318 341.5,156C 342.667,157.833 344.167,159.333 346,160.5C 347.765,161.239 349.765,161.239 352,160.5C 353.188,161.563 353.688,162.897 353.5,164.5C 356.016,164.755 358.35,165.589 360.5,167C 361.469,168.758 362.636,169.258 364,168.5C 368.322,170.621 372.489,173.121 376.5,176C 379.753,177.036 383.086,177.703 386.5,178C 386.167,178.333 385.833,178.667 385.5,179C 388.422,179.292 390.422,180.792 391.5,183.5C 394.472,184.32 397.139,185.653 399.5,187.5C 400.369,189.717 400.702,192.05 400.5,194.5C 396.686,192.966 393.519,190.632 391,187.5C 390.586,187.957 390.086,188.291 389.5,188.5C 382.733,183.688 375.733,180.188 368.5,178C 365.495,176.052 362.662,173.886 360,171.5C 359.667,171.833 359.333,172.167 359,172.5C 352.777,168.562 345.944,164.729 338.5,161C 335.304,160.604 332.47,159.438 330,157.5C 326.698,156.635 323.698,154.635 321,151.5C 320.586,151.957 320.086,152.291 319.5,152.5C 315.242,149.283 310.242,146.616 304.5,144.5C 304.483,142.435 304.15,140.435 303.5,138.5 Z"/></g>
<g><path style="opacity:1" fill="#ddb1c3" d="M 148.5,140.5 C 167.104,149.802 185.771,159.136 204.5,168.5C 204.068,169.71 203.401,170.71 202.5,171.5C 184.807,161.473 166.807,151.807 148.5,142.5C 148.5,141.833 148.5,141.167 148.5,140.5 Z"/></g>
<g><path style="opacity:0.963" fill="#f3c8c7" d="M 221.5,140.5 C 234.264,146.309 246.93,152.309 259.5,158.5C 258.226,161.76 256.56,164.76 254.5,167.5C 241.586,161.709 228.919,155.376 216.5,148.5C 217.669,145.489 219.336,142.822 221.5,140.5 Z"/></g>
<g><path style="opacity:0.999" fill="#e4b8c5" d="M 148.5,142.5 C 166.807,151.807 184.807,161.473 202.5,171.5C 202.5,172.167 202.167,172.5 201.5,172.5C 183.886,163.302 166.22,154.302 148.5,145.5C 148.5,144.5 148.5,143.5 148.5,142.5 Z"/></g>
<g><path style="opacity:1" fill="#b48cbb" d="M 298.5,97.5 C 300.905,98.3981 302.905,99.8981 304.5,102C 309.871,104.65 315.038,106.817 320,108.5C 327.04,112.564 334.04,116.564 341,120.5C 341.333,120.167 341.667,119.833 342,119.5C 342.833,120.5 343.667,121.5 344.5,122.5C 359.333,128.983 372.833,135.983 385,143.5C 385.414,143.043 385.914,142.709 386.5,142.5C 387.302,144.647 389.302,145.981 392.5,146.5C 393.378,149.761 394.044,153.094 394.5,156.5C 393.115,155.386 391.615,154.386 390,153.5C 388.984,154.634 388.317,154.301 388,152.5C 386.16,153.833 385.66,153.666 386.5,152C 384.508,151.426 383.008,150.259 382,148.5C 381.667,149.167 381.333,149.833 381,150.5C 378.008,149.366 375.508,147.533 373.5,145C 372.216,144.316 371.049,144.483 370,145.5C 366.542,142.286 363.042,139.786 359.5,138C 356.558,138.803 354.391,137.636 353,134.5C 350.076,134.374 347.409,133.041 345,130.5C 343.442,131.345 342.442,130.679 342,128.5C 341.667,128.833 341.333,129.167 341,129.5C 327.419,122.493 313.586,115.159 299.5,107.5C 299.167,104.167 298.833,100.833 298.5,97.5 Z"/></g>
<g><path style="opacity:1" fill="#eabdc6" d="M 148.5,145.5 C 166.22,154.302 183.886,163.302 201.5,172.5C 201.5,172.833 201.5,173.167 201.5,173.5C 201.068,174.71 200.401,175.71 199.5,176.5C 199.719,175.325 199.386,174.325 198.5,173.5C 181.735,165.023 165.068,156.356 148.5,147.5C 148.5,146.833 148.5,146.167 148.5,145.5 Z"/></g>
<g><path style="opacity:0.989" fill="#bd92bd" d="M 304.5,144.5 C 310.242,146.616 315.242,149.283 319.5,152.5C 320.086,152.291 320.586,151.957 321,151.5C 323.698,154.635 326.698,156.635 330,157.5C 332.47,159.438 335.304,160.604 338.5,161C 345.944,164.729 352.777,168.562 359,172.5C 359.333,172.167 359.667,171.833 360,171.5C 362.662,173.886 365.495,176.052 368.5,178C 375.733,180.188 382.733,183.688 389.5,188.5C 390.086,188.291 390.586,187.957 391,187.5C 393.519,190.632 396.686,192.966 400.5,194.5C 401.461,196.265 401.795,198.265 401.5,200.5C 399.742,199.001 397.909,198.668 396,199.5C 394.615,198.449 393.615,197.116 393,195.5C 392.667,195.833 392.333,196.167 392,196.5C 389.667,194.833 387.333,193.167 385,191.5C 383.251,192.299 381.918,191.632 381,189.5C 380.667,189.833 380.333,190.167 380,190.5C 377,188.5 374,186.5 371,184.5C 353.556,177.023 336.389,168.19 319.5,158C 315.064,156.394 310.73,154.56 306.5,152.5C 305.629,149.997 304.963,147.33 304.5,144.5 Z"/></g>
<g><path style="opacity:1" fill="#f5c9c7" d="M 148.5,150.5 C 163.097,157.224 177.431,164.391 191.5,172C 194.266,173.371 196.599,175.204 198.5,177.5C 198.443,178.609 198.11,179.609 197.5,180.5C 195.801,180.66 194.134,180.494 192.5,180C 184.91,176.579 177.744,172.413 171,167.5C 163.42,164.292 155.92,160.959 148.5,157.5C 148.5,155.167 148.5,152.833 148.5,150.5 Z"/></g>
<g><path style="opacity:0.988" fill="#c498be" d="M 306.5,152.5 C 310.73,154.56 315.064,156.394 319.5,158C 336.389,168.19 353.556,177.023 371,184.5C 374,186.5 377,188.5 380,190.5C 380.333,190.167 380.667,189.833 381,189.5C 381.918,191.632 383.251,192.299 385,191.5C 387.333,193.167 389.667,194.833 392,196.5C 392.333,196.167 392.667,195.833 393,195.5C 393.615,197.116 394.615,198.449 396,199.5C 397.909,198.668 399.742,199.001 401.5,200.5C 402.475,203.311 403.142,206.311 403.5,209.5C 395.377,205.241 387.044,201.575 378.5,198.5C 378.5,197.5 378.5,196.5 378.5,195.5C 376.801,195.66 375.134,195.494 373.5,195C 365.539,191.002 357.539,187.002 349.5,183C 347.391,181.859 345.558,180.359 344,178.5C 343.667,178.833 343.333,179.167 343,179.5C 339.521,176.879 335.855,174.546 332,172.5C 331.667,172.833 331.333,173.167 331,173.5C 324.337,168.863 317.17,165.03 309.5,162C 308.934,161.005 308.267,160.172 307.5,159.5C 306.631,157.283 306.298,154.95 306.5,152.5 Z"/></g>
<g><path style="opacity:0.979" fill="#c6aeae" d="M 212.5,154.5 C 225.182,161.343 238.182,167.343 251.5,172.5C 250.737,174.368 249.737,176.035 248.5,177.5C 235.904,170.867 223.237,164.2 210.5,157.5C 211.167,156.5 211.833,155.5 212.5,154.5 Z"/></g>
<g><path style="opacity:1" fill="#dfbdbb" d="M 216.5,148.5 C 228.919,155.376 241.586,161.709 254.5,167.5C 254.068,168.71 253.401,169.71 252.5,170.5C 239.828,164.166 227.162,157.832 214.5,151.5C 214.932,150.29 215.599,149.29 216.5,148.5 Z"/></g>
<g><path style="opacity:0.987" fill="#cb9fc0" d="M 307.5,159.5 C 308.267,160.172 308.934,161.005 309.5,162C 317.17,165.03 324.337,168.863 331,173.5C 331.333,173.167 331.667,172.833 332,172.5C 335.855,174.546 339.521,176.879 343,179.5C 343.333,179.167 343.667,178.833 344,178.5C 345.558,180.359 347.391,181.859 349.5,183C 357.539,187.002 365.539,191.002 373.5,195C 375.134,195.494 376.801,195.66 378.5,195.5C 378.5,196.5 378.5,197.5 378.5,198.5C 387.044,201.575 395.377,205.241 403.5,209.5C 404.092,212.127 404.425,214.794 404.5,217.5C 372.453,200.48 340.453,184.146 308.5,168.5C 308.037,165.518 307.704,162.518 307.5,159.5 Z"/></g>
<g><path style="opacity:1" fill="#d3b5b5" d="M 214.5,151.5 C 227.162,157.832 239.828,164.166 252.5,170.5C 252.672,171.492 252.338,172.158 251.5,172.5C 238.182,167.343 225.182,161.343 212.5,154.5C 212.932,153.29 213.599,152.29 214.5,151.5 Z"/></g>
<g><path style="opacity:0.999" fill="#d5b6b6" d="M 148.5,162.5 C 163.171,170.73 178.171,178.396 193.5,185.5C 193.443,186.609 193.11,187.609 192.5,188.5C 177.612,181.723 162.946,174.389 148.5,166.5C 148.5,165.167 148.5,163.833 148.5,162.5 Z"/></g>
<g><path style="opacity:0.97" fill="#ac9ea1" d="M 208.5,160.5 C 221.362,166.994 234.028,173.66 246.5,180.5C 245.89,182.434 244.89,184.101 243.5,185.5C 231.302,179.255 218.635,172.921 205.5,166.5C 206.471,164.517 207.471,162.517 208.5,160.5 Z"/></g>
<g><path style="opacity:1" fill="#b9a6a8" d="M 210.5,157.5 C 223.237,164.2 235.904,170.867 248.5,177.5C 248.068,178.71 247.401,179.71 246.5,180.5C 234.028,173.66 221.362,166.994 208.5,160.5C 209.167,159.5 209.833,158.5 210.5,157.5 Z"/></g>
<g><path style="opacity:1" fill="#f1c4c7" d="M 148.5,147.5 C 165.068,156.356 181.735,165.023 198.5,173.5C 199.386,174.325 199.719,175.325 199.5,176.5C 199.5,177.167 199.167,177.5 198.5,177.5C 196.599,175.204 194.266,173.371 191.5,172C 177.431,164.391 163.097,157.224 148.5,150.5C 148.5,149.5 148.5,148.5 148.5,147.5 Z"/></g>
<g><path style="opacity:0.991" fill="#d0a4c1" d="M 308.5,168.5 C 340.453,184.146 372.453,200.48 404.5,217.5C 405.341,219.379 405.675,221.379 405.5,223.5C 373.5,207.167 341.5,190.833 309.5,174.5C 309.675,172.379 309.341,170.379 308.5,168.5 Z"/></g>
<g><path style="opacity:0.981" fill="#a1979b" d="M 204.5,166.5 C 204.833,166.5 205.167,166.5 205.5,166.5C 218.635,172.921 231.302,179.255 243.5,185.5C 242.416,188.004 241.083,190.337 239.5,192.5C 226.5,186.667 213.833,180.333 201.5,173.5C 201.5,173.167 201.5,172.833 201.5,172.5C 202.167,172.5 202.5,172.167 202.5,171.5C 203.401,170.71 204.068,169.71 204.5,168.5C 204.5,167.833 204.5,167.167 204.5,166.5 Z"/></g>
<g><path style="opacity:1" fill="#c4acad" d="M 148.5,166.5 C 162.946,174.389 177.612,181.723 192.5,188.5C 191.248,190.001 190.248,191.668 189.5,193.5C 176.18,186.064 162.513,179.397 148.5,173.5C 148.5,171.167 148.5,168.833 148.5,166.5 Z"/></g>
<g><path style="opacity:0.987" fill="#d7abc2" d="M 309.5,174.5 C 341.5,190.833 373.5,207.167 405.5,223.5C 406.404,224.209 406.737,225.209 406.5,226.5C 374.469,210.151 342.469,193.818 310.5,177.5C 310.443,176.391 310.11,175.391 309.5,174.5 Z"/></g>
<g><path style="opacity:1" fill="#e2bebd" d="M 148.5,157.5 C 155.92,160.959 163.42,164.292 171,167.5C 177.744,172.413 184.91,176.579 192.5,180C 194.134,180.494 195.801,180.66 197.5,180.5C 197.5,180.833 197.5,181.167 197.5,181.5C 196.167,182.833 194.833,184.167 193.5,185.5C 178.171,178.396 163.171,170.73 148.5,162.5C 148.5,160.833 148.5,159.167 148.5,157.5 Z"/></g>
<g><path style="opacity:0.991" fill="#deb1c3" d="M 310.5,177.5 C 342.469,193.818 374.469,210.151 406.5,226.5C 406.5,227.5 406.5,228.5 406.5,229.5C 374.322,213.409 342.322,196.742 310.5,179.5C 310.5,178.833 310.5,178.167 310.5,177.5 Z"/></g>
<g><path style="opacity:0.991" fill="#949094" d="M 201.5,173.5 C 213.833,180.333 226.5,186.667 239.5,192.5C 238.32,195.54 236.653,198.206 234.5,200.5C 222.25,193.876 209.917,187.542 197.5,181.5C 197.5,181.167 197.5,180.833 197.5,180.5C 198.11,179.609 198.443,178.609 198.5,177.5C 199.167,177.5 199.5,177.167 199.5,176.5C 200.401,175.71 201.068,174.71 201.5,173.5 Z"/></g>
<g><path style="opacity:0.999" fill="#a79b9e" d="M 148.5,176.5 C 161.113,183.926 174.113,190.593 187.5,196.5C 186.154,198.537 184.82,200.537 183.5,202.5C 179.435,202.596 176.102,201.096 173.5,198C 165.034,194.345 156.701,190.511 148.5,186.5C 148.5,183.167 148.5,179.833 148.5,176.5 Z"/></g>
<g><path style="opacity:0.986" fill="#e4b8c5" d="M 310.5,179.5 C 342.322,196.742 374.322,213.409 406.5,229.5C 407.404,230.209 407.737,231.209 407.5,232.5C 375.469,216.151 343.469,199.818 311.5,183.5C 311.167,182.167 310.833,180.833 310.5,179.5 Z"/></g>
<g><path style="opacity:0.987" fill="#eabec6" d="M 311.5,183.5 C 343.469,199.818 375.469,216.151 407.5,232.5C 407.5,233.167 407.5,233.833 407.5,234.5C 375.77,218.14 343.77,202.14 311.5,186.5C 311.5,185.5 311.5,184.5 311.5,183.5 Z"/></g>
<g><path style="opacity:1" fill="#b3a2a4" d="M 148.5,173.5 C 162.513,179.397 176.18,186.064 189.5,193.5C 188.833,194.5 188.167,195.5 187.5,196.5C 174.113,190.593 161.113,183.926 148.5,176.5C 148.5,175.5 148.5,174.5 148.5,173.5 Z"/></g>
<g><path style="opacity:0.986" fill="#88888e" d="M 197.5,181.5 C 209.917,187.542 222.25,193.876 234.5,200.5C 233.921,203.331 232.588,205.664 230.5,207.5C 218.526,200.846 205.86,194.513 192.5,188.5C 193.11,187.609 193.443,186.609 193.5,185.5C 194.833,184.167 196.167,182.833 197.5,181.5 Z"/></g>
<g><path style="opacity:0.993" fill="#f7cac8" d="M 312.5,188.5 C 344.375,205.352 376.375,222.018 408.5,238.5C 408.629,240.216 408.962,241.883 409.5,243.5C 403.062,242.117 397.729,238.951 393.5,234C 380.721,228.416 368.387,222.082 356.5,215C 342.112,208.261 327.779,201.427 313.5,194.5C 312.659,192.621 312.325,190.621 312.5,188.5 Z"/></g>
<g><path style="opacity:0.999" fill="#999297" d="M 148.5,186.5 C 156.701,190.511 165.034,194.345 173.5,198C 176.102,201.096 179.435,202.596 183.5,202.5C 183.5,202.833 183.5,203.167 183.5,203.5C 181.917,205.663 180.584,207.996 179.5,210.5C 178.512,211.795 177.512,213.128 176.5,214.5C 166.919,210.233 157.585,205.566 148.5,200.5C 148.5,195.833 148.5,191.167 148.5,186.5 Z"/></g>
<g><path style="opacity:1" fill="#7d8288" d="M 192.5,188.5 C 205.86,194.513 218.526,200.846 230.5,207.5C 229.331,210.511 227.664,213.178 225.5,215.5C 213.353,208.093 200.687,201.76 187.5,196.5C 188.167,195.5 188.833,194.5 189.5,193.5C 190.248,191.668 191.248,190.001 192.5,188.5 Z"/></g>
<g><path style="opacity:0.983" fill="#67747d" d="M 183.5,203.5 C 196.481,209.324 209.148,215.657 221.5,222.5C 220.242,224.687 219.242,227.02 218.5,229.5C 205.378,223.352 192.378,217.019 179.5,210.5C 180.584,207.996 181.917,205.663 183.5,203.5 Z"/></g>
<g><path style="opacity:0.999" fill="#88888e" d="M 148.5,200.5 C 157.585,205.566 166.919,210.233 176.5,214.5C 176.5,214.833 176.5,215.167 176.5,215.5C 174.684,217.118 173.351,219.118 172.5,221.5C 172.167,221.5 171.833,221.5 171.5,221.5C 164.081,217.333 156.414,213.666 148.5,210.5C 148.5,207.167 148.5,203.833 148.5,200.5 Z"/></g>
<g><path style="opacity:0.952" fill="#717a82" d="M 187.5,196.5 C 200.687,201.76 213.353,208.093 225.5,215.5C 224.921,218.331 223.588,220.664 221.5,222.5C 209.148,215.657 196.481,209.324 183.5,203.5C 183.5,203.167 183.5,202.833 183.5,202.5C 184.82,200.537 186.154,198.537 187.5,196.5 Z"/></g>
<g><path style="opacity:0.991" fill="#717781" d="M 179.5,210.5 C 192.378,217.019 205.378,223.352 218.5,229.5C 243.802,242.818 269.135,256.152 294.5,269.5C 289.833,269.5 285.167,269.5 280.5,269.5C 251.832,254.148 222.666,238.815 193,223.5C 192.667,223.833 192.333,224.167 192,224.5C 187.323,220.663 182.156,217.663 176.5,215.5C 176.5,215.167 176.5,214.833 176.5,214.5C 177.512,213.128 178.512,211.795 179.5,210.5 Z"/></g>
<g><path style="opacity:0.999" fill="#7c8188" d="M 148.5,210.5 C 156.414,213.666 164.081,217.333 171.5,221.5C 171.443,222.609 171.11,223.609 170.5,224.5C 169.248,226.001 168.248,227.668 167.5,229.5C 167.5,230.167 167.167,230.5 166.5,230.5C 166.631,229.624 166.298,228.957 165.5,228.5C 159.678,225.68 154.011,222.68 148.5,219.5C 148.5,216.5 148.5,213.5 148.5,210.5 Z"/></g>
<g><path style="opacity:1" fill="#f1c4c7" d="M 311.5,186.5 C 343.77,202.14 375.77,218.14 407.5,234.5C 408.234,235.708 408.567,237.041 408.5,238.5C 376.375,222.018 344.375,205.352 312.5,188.5C 312.167,187.833 311.833,187.167 311.5,186.5 Z"/></g>
<g><path style="opacity:0.993" fill="#7d7a85" d="M 176.5,215.5 C 182.156,217.663 187.323,220.663 192,224.5C 192.333,224.167 192.667,223.833 193,223.5C 222.666,238.815 251.832,254.148 280.5,269.5C 276.5,269.5 272.5,269.5 268.5,269.5C 240.854,256.267 214.021,242.267 188,227.5C 187.667,227.833 187.333,228.167 187,228.5C 182.576,225.204 177.743,222.871 172.5,221.5C 173.351,219.118 174.684,217.118 176.5,215.5 Z"/></g>
<g><path style="opacity:0.991" fill="#ac9ea1" d="M 317.5,216.5 C 349.368,232.6 381.035,248.933 412.5,265.5C 413.371,268.003 414.037,270.67 414.5,273.5C 382.75,256.625 350.75,240.292 318.5,224.5C 317.908,221.873 317.575,219.206 317.5,216.5 Z"/></g>
<g><path style="opacity:0.989" fill="#90808d" d="M 170.5,224.5 C 177.918,227.373 185.251,230.54 192.5,234C 214.607,246.31 236.941,258.143 259.5,269.5C 255.167,269.5 250.833,269.5 246.5,269.5C 222.137,256.234 197.304,243.567 172,231.5C 170.951,229.893 169.451,229.227 167.5,229.5C 168.248,227.668 169.248,226.001 170.5,224.5 Z"/></g>
<g><path style="opacity:1" fill="#eec6c3" d="M 313.5,194.5 C 327.779,201.427 342.112,208.261 356.5,215C 368.387,222.082 380.721,228.416 393.5,234C 397.729,238.951 403.062,242.117 409.5,243.5C 409.5,244.833 409.5,246.167 409.5,247.5C 377.631,231.648 345.964,215.315 314.5,198.5C 313.566,197.432 313.232,196.099 313.5,194.5 Z"/></g>
<g><path style="opacity:1" fill="#707881" d="M 148.5,219.5 C 154.011,222.68 159.678,225.68 165.5,228.5C 166.298,228.957 166.631,229.624 166.5,230.5C 166.167,231.167 165.833,231.833 165.5,232.5C 163.914,234.67 162.58,237.004 161.5,239.5C 160.18,241.463 158.846,243.463 157.5,245.5C 156.248,247.001 155.248,248.668 154.5,250.5C 152.914,252.67 151.58,255.004 150.5,257.5C 149.833,258.167 149.167,258.833 148.5,259.5C 148.5,246.167 148.5,232.833 148.5,219.5 Z"/></g>
<g><path style="opacity:0.985" fill="#67747d" d="M 218.5,229.5 C 224.5,229.5 230.5,229.5 236.5,229.5C 261.287,242.473 286.287,255.807 311.5,269.5C 305.833,269.5 300.167,269.5 294.5,269.5C 269.135,256.152 243.802,242.818 218.5,229.5 Z"/></g>
<g><path style="opacity:0.996" fill="#797f86" d="M 253.5,229.5 C 256.5,229.5 259.5,229.5 262.5,229.5C 315.333,256.944 368,283.944 420.5,310.5C 421.15,312.435 421.483,314.435 421.5,316.5C 365.123,287.318 309.123,258.318 253.5,229.5 Z"/></g>
<g><path style="opacity:0.995" fill="#86878d" d="M 273.5,229.5 C 276.5,229.5 279.5,229.5 282.5,229.5C 327.589,253.243 372.923,276.577 418.5,299.5C 419.301,301.042 419.634,302.708 419.5,304.5C 370.486,279.994 321.819,254.994 273.5,229.5 Z"/></g>
<g><path style="opacity:0.994" fill="#8c8b90" d="M 282.5,229.5 C 285.833,229.5 289.167,229.5 292.5,229.5C 333.859,251.733 375.526,273.399 417.5,294.5C 418.451,295.919 418.784,297.585 418.5,299.5C 372.923,276.577 327.589,253.243 282.5,229.5 Z"/></g>
<g><path style="opacity:0.996" fill="#928e93" d="M 292.5,229.5 C 295.5,229.5 298.5,229.5 301.5,229.5C 325.96,242.757 350.127,255.091 374,266.5C 382.319,271.16 390.652,275.827 399,280.5C 399.333,280.167 399.667,279.833 400,279.5C 403.956,282.103 407.956,284.77 412,287.5C 413.016,286.366 413.683,286.699 414,288.5C 414.77,287.402 415.603,287.402 416.5,288.5C 417.461,290.265 417.795,292.265 417.5,294.5C 375.526,273.399 333.859,251.733 292.5,229.5 Z"/></g>
<g><path style="opacity:0.995" fill="#999297" d="M 301.5,229.5 C 304.833,229.5 308.167,229.5 311.5,229.5C 335.19,242.43 359.356,254.763 384,266.5C 394.694,273.172 405.527,278.838 416.5,283.5C 416.5,285.167 416.5,286.833 416.5,288.5C 415.603,287.402 414.77,287.402 414,288.5C 413.683,286.699 413.016,286.366 412,287.5C 407.956,284.77 403.956,282.103 400,279.5C 399.667,279.833 399.333,280.167 399,280.5C 390.652,275.827 382.319,271.16 374,266.5C 350.127,255.091 325.96,242.757 301.5,229.5 Z"/></g>
<g><path style="opacity:0.996" fill="#a1979b" d="M 318.5,224.5 C 350.75,240.292 382.75,256.625 414.5,273.5C 414.956,276.906 415.622,280.239 416.5,283.5C 405.527,278.838 394.694,273.172 384,266.5C 359.356,254.763 335.19,242.43 311.5,229.5C 314.247,229.813 316.914,229.48 319.5,228.5C 318.754,227.264 318.421,225.93 318.5,224.5 Z"/></g>
<g><path style="opacity:1" fill="#bba7a9" d="M 316.5,212.5 C 348.911,228.371 380.911,244.704 412.5,261.5C 412.5,262.833 412.5,264.167 412.5,265.5C 381.035,248.933 349.368,232.6 317.5,216.5C 316.566,215.432 316.232,214.099 316.5,212.5 Z"/></g>
<g><path style="opacity:0.982" fill="#a58795" d="M 165.5,232.5 C 172.708,235.182 179.708,238.348 186.5,242C 204.053,250.941 221.386,260.108 238.5,269.5C 231.5,269.5 224.5,269.5 217.5,269.5C 198.931,259.546 180.265,249.546 161.5,239.5C 162.58,237.004 163.914,234.67 165.5,232.5 Z"/></g>
<g><path style="opacity:1" fill="#dfbdbb" d="M 314.5,198.5 C 345.964,215.315 377.631,231.648 409.5,247.5C 410.434,248.568 410.768,249.901 410.5,251.5C 378.5,235.5 346.5,219.5 314.5,203.5C 314.5,201.833 314.5,200.167 314.5,198.5 Z"/></g>
<g><path style="opacity:1" fill="#d3b5b5" d="M 314.5,203.5 C 346.5,219.5 378.5,235.5 410.5,251.5C 411.038,253.117 411.371,254.784 411.5,256.5C 379.469,240.151 347.469,223.818 315.5,207.5C 315.567,206.041 315.234,204.708 314.5,203.5 Z"/></g>
<g><path style="opacity:0.982" fill="#b58c9b" d="M 161.5,239.5 C 180.265,249.546 198.931,259.546 217.5,269.5C 213.167,269.5 208.833,269.5 204.5,269.5C 200.5,269.5 196.5,269.5 192.5,269.5C 195.305,268.681 198.305,268.181 201.5,268C 187.025,260.262 172.359,252.762 157.5,245.5C 158.846,243.463 160.18,241.463 161.5,239.5 Z"/></g>
<g><path style="opacity:1" fill="#c6aeae" d="M 315.5,207.5 C 347.469,223.818 379.469,240.151 411.5,256.5C 411.629,258.216 411.962,259.883 412.5,261.5C 380.911,244.704 348.911,228.371 316.5,212.5C 315.962,210.883 315.629,209.216 315.5,207.5 Z"/></g>
<g><path style="opacity:1" fill="#c190a1" d="M 157.5,245.5 C 172.359,252.762 187.025,260.262 201.5,268C 198.305,268.181 195.305,268.681 192.5,269.5C 192.5,270.167 192.167,270.5 191.5,270.5C 179.345,263.588 167.012,256.921 154.5,250.5C 155.248,248.668 156.248,247.001 157.5,245.5 Z"/></g>
<g><path style="opacity:1" fill="#707a82" d="M 236.5,229.5 C 242.167,229.5 247.833,229.5 253.5,229.5C 309.123,258.318 365.123,287.318 421.5,316.5C 422.167,319.833 422.833,323.167 423.5,326.5C 391.598,310.215 359.598,293.881 327.5,277.5C 327.167,274.833 326.833,272.167 326.5,269.5C 321.5,269.5 316.5,269.5 311.5,269.5C 286.287,255.807 261.287,242.473 236.5,229.5 Z"/></g>
<g><path style="opacity:1" fill="#7f8389" d="M 262.5,229.5 C 266.167,229.5 269.833,229.5 273.5,229.5C 321.819,254.994 370.486,279.994 419.5,304.5C 420.15,306.435 420.483,308.435 420.5,310.5C 368,283.944 315.333,256.944 262.5,229.5 Z"/></g>
<g><path style="opacity:1" fill="#867d89" d="M 171.5,221.5 C 171.833,221.5 172.167,221.5 172.5,221.5C 177.743,222.871 182.576,225.204 187,228.5C 187.333,228.167 187.667,227.833 188,227.5C 214.021,242.267 240.854,256.267 268.5,269.5C 265.5,269.5 262.5,269.5 259.5,269.5C 236.941,258.143 214.607,246.31 192.5,234C 185.251,230.54 177.918,227.373 170.5,224.5C 171.11,223.609 171.443,222.609 171.5,221.5 Z"/></g>
<g><path style="opacity:0.995" fill="#db98ab" d="M 150.5,257.5 C 153.908,258.367 157.242,259.533 160.5,261C 169.734,266.117 179.068,270.95 188.5,275.5C 187.921,278.331 186.588,280.664 184.5,282.5C 183.22,281.069 181.553,280.402 179.5,280.5C 179.719,279.325 179.386,278.325 178.5,277.5C 167.91,271.711 157.577,266.378 147.5,261.5C 147.833,260.833 148.167,260.167 148.5,259.5C 149.167,258.833 149.833,258.167 150.5,257.5 Z"/></g>
<g><path style="opacity:0.934" fill="#988390" d="M 167.5,229.5 C 169.451,229.227 170.951,229.893 172,231.5C 197.304,243.567 222.137,256.234 246.5,269.5C 243.833,269.5 241.167,269.5 238.5,269.5C 221.386,260.108 204.053,250.941 186.5,242C 179.708,238.348 172.708,235.182 165.5,232.5C 165.833,231.833 166.167,231.167 166.5,230.5C 167.167,230.5 167.5,230.167 167.5,229.5 Z"/></g>
<g><path style="opacity:1" fill="#ce94a6" d="M 154.5,250.5 C 167.012,256.921 179.345,263.588 191.5,270.5C 191.107,272.284 190.441,273.95 189.5,275.5C 189.167,275.5 188.833,275.5 188.5,275.5C 179.068,270.95 169.734,266.117 160.5,261C 157.242,259.533 153.908,258.367 150.5,257.5C 151.58,255.004 152.914,252.67 154.5,250.5 Z"/></g>
<g><path style="opacity:0.977" fill="#e89cb0" d="M 147.5,261.5 C 157.577,266.378 167.91,271.711 178.5,277.5C 179.386,278.325 179.719,279.325 179.5,280.5C 181.553,280.402 183.22,281.069 184.5,282.5C 184.5,283.167 184.5,283.833 184.5,284.5C 183.728,285.694 182.728,286.694 181.5,287.5C 169.468,279.815 156.802,273.149 143.5,267.5C 144.475,265.205 145.808,263.205 147.5,261.5 Z"/></g>
<g><path style="opacity:0.987" fill="#f5a1b6" d="M 143.5,267.5 C 156.802,273.149 169.468,279.815 181.5,287.5C 181.5,288.167 181.5,288.833 181.5,289.5C 180.11,290.899 179.11,292.566 178.5,294.5C 177.728,295.694 176.728,296.694 175.5,297.5C 173.5,295.735 171.333,294.068 169,292.5C 163.023,290.013 157.357,287.013 152,283.5C 151.667,283.833 151.333,284.167 151,284.5C 146.97,281.641 142.804,278.974 138.5,276.5C 139.901,273.366 141.568,270.366 143.5,267.5 Z"/></g>
<g><path style="opacity:0.998" fill="#817c87" d="M 192.5,269.5 C 196.5,269.5 200.5,269.5 204.5,269.5C 204.5,274.167 204.5,278.833 204.5,283.5C 199.016,281.593 194.016,278.927 189.5,275.5C 190.441,273.95 191.107,272.284 191.5,270.5C 192.167,270.5 192.5,270.167 192.5,269.5 Z"/></g>
<g><path style="opacity:0.988" fill="#67747d" d="M 327.5,277.5 C 359.598,293.881 391.598,310.215 423.5,326.5C 423.963,329.482 424.296,332.482 424.5,335.5C 392.814,319.466 361.147,303.466 329.5,287.5C 328.96,284.135 328.294,280.802 327.5,277.5 Z"/></g>
<g><path style="opacity:0.982" fill="#f8abbb" d="M 138.5,276.5 C 142.804,278.974 146.97,281.641 151,284.5C 151.333,284.167 151.667,283.833 152,283.5C 157.357,287.013 163.023,290.013 169,292.5C 171.333,294.068 173.5,295.735 175.5,297.5C 175.5,298.167 175.5,298.833 175.5,299.5C 174.833,300.167 174.167,300.833 173.5,301.5C 173.047,300.542 172.381,299.708 171.5,299C 159.977,293.724 148.81,287.891 138,281.5C 137.23,282.598 136.397,282.598 135.5,281.5C 136.11,279.566 137.11,277.899 138.5,276.5 Z"/></g>
<g><path style="opacity:0.983" fill="#f7b1be" d="M 135.5,281.5 C 136.397,282.598 137.23,282.598 138,281.5C 148.81,287.891 159.977,293.724 171.5,299C 172.381,299.708 173.047,300.542 173.5,301.5C 172.737,303.368 171.737,305.035 170.5,306.5C 158.592,298.641 145.926,291.974 132.5,286.5C 132.75,284.326 133.75,282.659 135.5,281.5 Z"/></g>
<g><path style="opacity:0.999" fill="#96828f" d="M 188.5,275.5 C 188.833,275.5 189.167,275.5 189.5,275.5C 194.016,278.927 199.016,281.593 204.5,283.5C 204.5,287.167 204.5,290.833 204.5,294.5C 197.625,291.635 190.958,288.302 184.5,284.5C 184.5,283.833 184.5,283.167 184.5,282.5C 186.588,280.664 187.921,278.331 188.5,275.5 Z"/></g>
<g><path style="opacity:0.98" fill="#f7b8c1" d="M 132.5,286.5 C 145.926,291.974 158.592,298.641 170.5,306.5C 170.5,307.167 170.5,307.833 170.5,308.5C 169.833,308.833 169.167,309.167 168.5,309.5C 155.367,303.35 142.367,297.017 129.5,290.5C 130.026,288.77 131.026,287.436 132.5,286.5 Z"/></g>
<g><path style="opacity:0.998" fill="#a38695" d="M 184.5,284.5 C 190.958,288.302 197.625,291.635 204.5,294.5C 204.5,296.833 204.5,299.167 204.5,301.5C 196.792,297.429 189.125,293.429 181.5,289.5C 181.5,288.833 181.5,288.167 181.5,287.5C 182.728,286.694 183.728,285.694 184.5,284.5 Z"/></g>
<g><path style="opacity:0.987" fill="#f6bec4" d="M 129.5,290.5 C 142.367,297.017 155.367,303.35 168.5,309.5C 168.25,311.674 167.25,313.341 165.5,314.5C 153.212,307.28 140.545,300.613 127.5,294.5C 127.733,292.938 128.4,291.605 129.5,290.5 Z"/></g>
<g><path style="opacity:0.999" fill="#b08a9a" d="M 181.5,289.5 C 189.125,293.429 196.792,297.429 204.5,301.5C 204.5,303.833 204.5,306.167 204.5,308.5C 196.241,304.515 187.908,300.515 179.5,296.5C 178.702,296.043 178.369,295.376 178.5,294.5C 179.11,292.566 180.11,290.899 181.5,289.5 Z"/></g>
<g><path style="opacity:0.99" fill="#717781" d="M 329.5,287.5 C 361.147,303.466 392.814,319.466 424.5,335.5C 425.371,338.003 426.037,340.67 426.5,343.5C 393.896,327.595 361.896,311.595 330.5,295.5C 330.425,292.794 330.092,290.127 329.5,287.5 Z"/></g>
<g><path style="opacity:0.99" fill="#f6c4c7" d="M 127.5,294.5 C 140.545,300.613 153.212,307.28 165.5,314.5C 165.5,315.167 165.5,315.833 165.5,316.5C 164.833,317.167 164.167,317.833 163.5,318.5C 150.954,311.086 137.954,304.419 124.5,298.5C 125.512,297.128 126.512,295.795 127.5,294.5 Z"/></g>
<g><path style="opacity:0.987" fill="#f6caca" d="M 124.5,298.5 C 137.954,304.419 150.954,311.086 163.5,318.5C 162.833,319.833 162.167,321.167 161.5,322.5C 161.5,323.167 161.167,323.5 160.5,323.5C 147.746,316.463 134.746,309.796 121.5,303.5C 122.752,301.999 123.752,300.332 124.5,298.5 Z"/></g>
<g><path style="opacity:0.983" fill="#7d7a85" d="M 330.5,295.5 C 361.896,311.595 393.896,327.595 426.5,343.5C 426.833,346.167 427.167,348.833 427.5,351.5C 396.034,335.267 364.368,319.267 332.5,303.5C 331.833,300.833 331.167,298.167 330.5,295.5 Z"/></g>
<g><path style="opacity:0.988" fill="#f5d1cd" d="M 121.5,303.5 C 134.746,309.796 147.746,316.463 160.5,323.5C 159.559,325.05 158.893,326.716 158.5,328.5C 158.167,328.5 157.833,328.5 157.5,328.5C 156.284,326.549 154.618,325.049 152.5,324C 141.178,318.127 130.178,312.627 119.5,307.5C 119.733,305.938 120.4,304.605 121.5,303.5 Z"/></g>
<g><path style="opacity:0.999" fill="#cb93a4" d="M 175.5,299.5 C 175.953,300.458 176.619,301.292 177.5,302C 186.495,306.498 195.495,310.998 204.5,315.5C 204.5,319.167 204.5,322.833 204.5,326.5C 192.878,321.023 181.545,315.023 170.5,308.5C 170.5,307.833 170.5,307.167 170.5,306.5C 171.737,305.035 172.737,303.368 173.5,301.5C 174.167,300.833 174.833,300.167 175.5,299.5 Z"/></g>
<g><path style="opacity:0.998" fill="#bc8e9f" d="M 178.5,294.5 C 178.369,295.376 178.702,296.043 179.5,296.5C 187.908,300.515 196.241,304.515 204.5,308.5C 204.5,310.833 204.5,313.167 204.5,315.5C 195.495,310.998 186.495,306.498 177.5,302C 176.619,301.292 175.953,300.458 175.5,299.5C 175.5,298.833 175.5,298.167 175.5,297.5C 176.728,296.694 177.728,295.694 178.5,294.5 Z"/></g>
<g><path style="opacity:0.985" fill="#f5d7d0" d="M 119.5,307.5 C 130.178,312.627 141.178,318.127 152.5,324C 154.618,325.049 156.284,326.549 157.5,328.5C 157.573,330.027 156.906,331.027 155.5,331.5C 142.551,324.842 129.551,318.176 116.5,311.5C 117.512,310.128 118.512,308.795 119.5,307.5 Z"/></g>
<g><path style="opacity:0.983" fill="#90808d" d="M 332.5,306.5 C 364.495,322.831 396.495,339.164 428.5,355.5C 429.642,359.117 431.308,362.45 433.5,365.5C 400.082,348.611 367.082,331.611 334.5,314.5C 333.629,311.997 332.963,309.33 332.5,306.5 Z"/></g>
<g><path style="opacity:0.987" fill="#f4ddd3" d="M 116.5,311.5 C 129.551,318.176 142.551,324.842 155.5,331.5C 155.5,332.167 155.5,332.833 155.5,333.5C 154.599,334.29 153.932,335.29 153.5,336.5C 153.167,336.5 152.833,336.5 152.5,336.5C 152.631,335.624 152.298,334.957 151.5,334.5C 138.516,328.672 126.182,322.339 114.5,315.5C 115.167,314.167 115.833,312.833 116.5,311.5 Z"/></g>
<g><path style="opacity:0.986" fill="#f4e3d6" d="M 114.5,315.5 C 126.182,322.339 138.516,328.672 151.5,334.5C 152.298,334.957 152.631,335.624 152.5,336.5C 152.167,337.833 151.833,339.167 151.5,340.5C 150.833,341.167 150.167,341.833 149.5,342.5C 149.657,341.127 149.49,339.793 149,338.5C 148.586,338.957 148.086,339.291 147.5,339.5C 135.138,332.996 123.138,326.662 111.5,320.5C 112.263,318.632 113.263,316.965 114.5,315.5 Z"/></g>
<g><path style="opacity:1" fill="#e19aad" d="M 170.5,308.5 C 181.545,315.023 192.878,321.023 204.5,326.5C 204.5,330.167 204.5,333.833 204.5,337.5C 191.372,330.769 178.372,323.769 165.5,316.5C 165.5,315.833 165.5,315.167 165.5,314.5C 167.25,313.341 168.25,311.674 168.5,309.5C 169.167,309.167 169.833,308.833 170.5,308.5 Z"/></g>
<g><path style="opacity:0.999" fill="#ee9eb3" d="M 165.5,316.5 C 178.372,323.769 191.372,330.769 204.5,337.5C 204.5,339.5 204.5,341.5 204.5,343.5C 190.225,336.312 175.892,329.312 161.5,322.5C 162.167,321.167 162.833,319.833 163.5,318.5C 164.167,317.833 164.833,317.167 165.5,316.5 Z"/></g>
<g><path style="opacity:0.982" fill="#f3ead8" d="M 111.5,320.5 C 123.138,326.662 135.138,332.996 147.5,339.5C 148.086,339.291 148.586,338.957 149,338.5C 149.49,339.793 149.657,341.127 149.5,342.5C 149.167,343.167 148.833,343.833 148.5,344.5C 144.882,342.389 141.382,340.055 138,337.5C 137.667,337.833 137.333,338.167 137,338.5C 135.686,337.687 134.519,336.687 133.5,335.5C 131.936,336.186 130.269,336.019 128.5,335C 121.688,331.667 115.022,328.167 108.5,324.5C 109.512,323.128 110.512,321.795 111.5,320.5 Z"/></g>
<g><path style="opacity:0.993" fill="#f3f0db" d="M 108.5,324.5 C 115.022,328.167 121.688,331.667 128.5,335C 130.269,336.019 131.936,336.186 133.5,335.5C 134.519,336.687 135.686,337.687 137,338.5C 137.333,338.167 137.667,337.833 138,337.5C 141.382,340.055 144.882,342.389 148.5,344.5C 148.5,345.167 148.5,345.833 148.5,346.5C 147.728,347.694 146.728,348.694 145.5,349.5C 141.325,346.93 137.159,344.263 133,341.5C 124.108,337.973 115.274,333.64 106.5,328.5C 107.167,327.167 107.833,325.833 108.5,324.5 Z"/></g>
<g><path style="opacity:0.996" fill="#f8a4b8" d="M 161.5,322.5 C 175.892,329.312 190.225,336.312 204.5,343.5C 204.5,346.833 204.5,350.167 204.5,353.5C 188.807,345.002 173.474,336.669 158.5,328.5C 158.893,326.716 159.559,325.05 160.5,323.5C 161.167,323.5 161.5,323.167 161.5,322.5 Z"/></g>
<g><path style="opacity:0.974" fill="#f1f5df" d="M 106.5,328.5 C 115.274,333.64 124.108,337.973 133,341.5C 137.159,344.263 141.325,346.93 145.5,349.5C 145.008,351.819 144.008,353.819 142.5,355.5C 129.45,348.308 116.117,341.642 102.5,335.5C 103.584,332.996 104.917,330.663 106.5,328.5 Z"/></g>
<g><path style="opacity:1" fill="#988390" d="M 334.5,314.5 C 367.082,331.611 400.082,348.611 433.5,365.5C 445.231,371.138 457.231,376.305 469.5,381C 470.768,383.163 470.768,385.33 469.5,387.5C 424.594,364.547 379.594,341.881 334.5,319.5C 334.5,317.833 334.5,316.167 334.5,314.5 Z"/></g>
<g><path style="opacity:1" fill="#867d89" d="M 332.5,303.5 C 364.368,319.267 396.034,335.267 427.5,351.5C 427.833,352.833 428.167,354.167 428.5,355.5C 396.495,339.164 364.495,322.831 332.5,306.5C 332.5,305.5 332.5,304.5 332.5,303.5 Z"/></g>
<g><path style="opacity:0.987" fill="#f8acbb" d="M 157.5,328.5 C 157.833,328.5 158.167,328.5 158.5,328.5C 173.474,336.669 188.807,345.002 204.5,353.5C 204.5,355.167 204.5,356.833 204.5,358.5C 188.941,349.55 172.608,341.217 155.5,333.5C 155.5,332.833 155.5,332.167 155.5,331.5C 156.906,331.027 157.573,330.027 157.5,328.5 Z"/></g>
<g><path style="opacity:0.991" fill="#b18b9a" d="M 336.5,330.5 C 380.274,352.554 423.941,374.887 467.5,397.5C 467.737,398.791 467.404,399.791 466.5,400.5C 423.437,378.801 380.437,356.801 337.5,334.5C 337.167,333.167 336.833,331.833 336.5,330.5 Z"/></g>
<g><path style="opacity:0.997" fill="#f7b2be" d="M 155.5,333.5 C 172.608,341.217 188.941,349.55 204.5,358.5C 203.699,360.042 203.366,361.708 203.5,363.5C 191.522,357.511 179.522,351.511 167.5,345.5C 163.637,343.069 159.637,340.902 155.5,339C 154.619,338.292 153.953,337.458 153.5,336.5C 153.932,335.29 154.599,334.29 155.5,333.5 Z"/></g>
<g><path style="opacity:0.976" fill="#e9f0e2" d="M 102.5,335.5 C 116.117,341.642 129.45,348.308 142.5,355.5C 142.068,356.71 141.401,357.71 140.5,358.5C 127.821,351.494 114.488,344.827 100.5,338.5C 100.932,337.29 101.599,336.29 102.5,335.5 Z"/></g>
<g><path style="opacity:0.971" fill="#e3ebe4" d="M 100.5,338.5 C 114.488,344.827 127.821,351.494 140.5,358.5C 140.573,360.027 139.906,361.027 138.5,361.5C 125.723,354.275 112.723,347.275 99.5,340.5C 99.3284,339.508 99.6618,338.842 100.5,338.5 Z"/></g>
<g><path style="opacity:0.993" fill="#f7b8c1" d="M 152.5,336.5 C 152.833,336.5 153.167,336.5 153.5,336.5C 153.953,337.458 154.619,338.292 155.5,339C 159.637,340.902 163.637,343.069 167.5,345.5C 179.522,351.511 191.522,357.511 203.5,363.5C 203.5,365.5 203.5,367.5 203.5,369.5C 186.82,360.821 169.82,351.987 152.5,343C 151.748,342.329 151.414,341.496 151.5,340.5C 151.833,339.167 152.167,337.833 152.5,336.5 Z"/></g>
<g><path style="opacity:0.997" fill="#f7bec4" d="M 151.5,340.5 C 151.414,341.496 151.748,342.329 152.5,343C 169.82,351.987 186.82,360.821 203.5,369.5C 202.766,370.708 202.433,372.041 202.5,373.5C 184.631,364.374 166.631,355.374 148.5,346.5C 148.5,345.833 148.5,345.167 148.5,344.5C 148.833,343.833 149.167,343.167 149.5,342.5C 150.167,341.833 150.833,341.167 151.5,340.5 Z"/></g>
<g><path style="opacity:1" fill="#ab8998" d="M 336.5,326.5 C 380.186,349.344 424.186,371.677 468.5,393.5C 468.167,394.833 467.833,396.167 467.5,397.5C 423.941,374.887 380.274,352.554 336.5,330.5C 336.5,329.167 336.5,327.833 336.5,326.5 Z"/></g>
<g><path style="opacity:1" fill="#bc8e9e" d="M 337.5,334.5 C 380.437,356.801 423.437,378.801 466.5,400.5C 466.5,401.5 466.5,402.5 466.5,403.5C 463.5,403.5 460.5,403.5 457.5,403.5C 418.059,382.726 378.393,362.393 338.5,342.5C 338.167,339.833 337.833,337.167 337.5,334.5 Z"/></g>
<g><path style="opacity:0.992" fill="#d3ddea" d="M 95.5,346.5 C 100.299,348.733 104.965,351.233 109.5,354C 115.344,355.629 121.011,357.629 126.5,360C 142.217,368.859 158.217,377.192 174.5,385C 176.692,386.067 178.358,387.567 179.5,389.5C 179.5,389.833 179.5,390.167 179.5,390.5C 179.737,391.791 179.404,392.791 178.5,393.5C 175.722,391.196 172.889,388.863 170,386.5C 152.268,378.927 134.768,370.094 117.5,360C 109.606,356.72 101.94,352.887 94.5,348.5C 94.3284,347.508 94.6618,346.842 95.5,346.5 Z"/></g>
<g><path style="opacity:0.997" fill="#f6c4c7" d="M 148.5,346.5 C 166.631,355.374 184.631,364.374 202.5,373.5C 202.784,375.415 202.451,377.081 201.5,378.5C 183.174,369.188 165.507,360.188 148.5,351.5C 148.5,349.833 148.5,348.167 148.5,346.5 Z"/></g>
<g><path style="opacity:0.993" fill="#ca93a4" d="M 339.5,346.5 C 376.224,364.371 413.224,383.371 450.5,403.5C 447.833,403.5 445.167,403.5 442.5,403.5C 408.788,385.47 374.788,367.804 340.5,350.5C 339.566,349.432 339.232,348.099 339.5,346.5 Z"/></g>
<g><path style="opacity:0.994" fill="#ccd7ec" d="M 94.5,348.5 C 101.94,352.887 109.606,356.72 117.5,360C 134.768,370.094 152.268,378.927 170,386.5C 172.889,388.863 175.722,391.196 178.5,393.5C 178.567,394.959 178.234,396.292 177.5,397.5C 176.153,396.829 174.986,396.829 174,397.5C 172.899,395.606 171.566,394.939 170,395.5C 167.012,392.435 163.679,390.768 160,390.5C 159.685,387.853 158.518,387.187 156.5,388.5C 150.783,385.557 145.283,382.223 140,378.5C 139.667,378.833 139.333,379.167 139,379.5C 137.667,378.167 136.333,376.833 135,375.5C 134.667,375.833 134.333,376.167 134,376.5C 131.567,374.374 128.734,373.041 125.5,372.5C 124.135,371.059 122.635,369.726 121,368.5C 120.667,368.833 120.333,369.167 120,369.5C 110.464,363.528 100.63,358.528 90.5,354.5C 91.4746,352.205 92.8079,350.205 94.5,348.5 Z"/></g>
<g><path style="opacity:0.995" fill="#f6cbca" d="M 148.5,351.5 C 165.507,360.188 183.174,369.188 201.5,378.5C 201.795,380.735 201.461,382.735 200.5,384.5C 183.146,375.49 165.812,366.49 148.5,357.5C 148.5,355.5 148.5,353.5 148.5,351.5 Z"/></g>
<g><path style="opacity:0.996" fill="#a38695" d="M 334.5,319.5 C 379.594,341.881 424.594,364.547 469.5,387.5C 469.483,389.565 469.15,391.565 468.5,393.5C 424.186,371.677 380.186,349.344 336.5,326.5C 335.732,324.285 335.065,321.952 334.5,319.5 Z"/></g>
<g><path style="opacity:0.995" fill="#c4d0ef" d="M 89.5,356.5 C 98.3223,360.526 106.989,364.693 115.5,369C 136.463,381.093 156.796,391.593 176.5,400.5C 176.5,401.5 176.5,402.5 176.5,403.5C 172.833,403.5 169.167,403.5 165.5,403.5C 158.667,399.039 151,395.206 142.5,392C 138.534,389.681 134.701,387.181 131,384.5C 130.667,384.833 130.333,385.167 130,385.5C 125.191,380.886 119.525,377.886 113,376.5C 110.687,373.346 107.52,371.68 103.5,371.5C 103.192,370.692 102.692,370.025 102,369.5C 100.667,369.5 99.3333,369.5 98,369.5C 93.8571,366.181 89.3571,363.514 84.5,361.5C 85.8333,359.5 87.5,357.833 89.5,356.5 Z"/></g>
<g><path style="opacity:0.996" fill="#f5d1cd" d="M 148.5,357.5 C 165.812,366.49 183.146,375.49 200.5,384.5C 200.5,386.167 200.5,387.833 200.5,389.5C 183.131,380.483 165.797,371.483 148.5,362.5C 148.5,360.833 148.5,359.167 148.5,357.5 Z"/></g>
<g><path style="opacity:0.993" fill="#db98ab" d="M 340.5,353.5 C 371.685,369.776 403.685,386.443 436.5,403.5C 431.833,403.5 427.167,403.5 422.5,403.5C 396.353,389.068 369.686,375.402 342.5,362.5C 341.525,359.689 340.858,356.689 340.5,353.5 Z"/></g>
<g><path style="opacity:0.979" fill="#dae3e7" d="M 99.5,340.5 C 112.723,347.275 125.723,354.275 138.5,361.5C 138.586,362.496 138.252,363.329 137.5,364C 141.192,365.515 144.859,367.015 148.5,368.5C 159.304,373.395 170.304,378.062 181.5,382.5C 180.933,384.982 180.266,387.316 179.5,389.5C 178.358,387.567 176.692,386.067 174.5,385C 158.217,377.192 142.217,368.859 126.5,360C 121.011,357.629 115.344,355.629 109.5,354C 104.965,351.233 100.299,348.733 95.5,346.5C 96.4746,344.205 97.8079,342.205 99.5,340.5 Z"/></g>
<g><path style="opacity:0.991" fill="#becbf1" d="M 84.5,361.5 C 89.3571,363.514 93.8571,366.181 98,369.5C 99.3333,369.5 100.667,369.5 102,369.5C 102.692,370.025 103.192,370.692 103.5,371.5C 107.52,371.68 110.687,373.346 113,376.5C 119.525,377.886 125.191,380.886 130,385.5C 130.333,385.167 130.667,384.833 131,384.5C 134.701,387.181 138.534,389.681 142.5,392C 151,395.206 158.667,399.039 165.5,403.5C 163.833,403.5 162.167,403.5 160.5,403.5C 158.167,403.5 155.833,403.5 153.5,403.5C 152.5,403.5 151.5,403.5 150.5,403.5C 127.602,390.972 104.768,379.305 82,368.5C 80.8904,366.963 79.3904,366.297 77.5,366.5C 79.5313,364.478 81.8646,362.811 84.5,361.5 Z"/></g>
<g><path style="opacity:0.99" fill="#f4d8d1" d="M 148.5,362.5 C 165.797,371.483 183.131,380.483 200.5,389.5C 199.5,392.833 198.5,396.167 197.5,399.5C 196.778,399.082 196.278,398.416 196,397.5C 194.636,398.258 193.469,397.758 192.5,396C 188.396,393.614 184.062,391.781 179.5,390.5C 179.5,390.167 179.5,389.833 179.5,389.5C 180.266,387.316 180.933,384.982 181.5,382.5C 170.304,378.062 159.304,373.395 148.5,368.5C 148.5,366.5 148.5,364.5 148.5,362.5 Z"/></g>
<g><path style="opacity:1" fill="#c491a2" d="M 338.5,342.5 C 378.393,362.393 418.059,382.726 457.5,403.5C 455.167,403.5 452.833,403.5 450.5,403.5C 413.224,383.371 376.224,364.371 339.5,346.5C 339.167,345.167 338.833,343.833 338.5,342.5 Z"/></g>
<g><path style="opacity:0.991" fill="#e49bae" d="M 342.5,362.5 C 369.686,375.402 396.353,389.068 422.5,403.5C 419.5,403.5 416.5,403.5 413.5,403.5C 403.08,396.545 392.247,390.878 381,386.5C 368.092,378.975 355.259,371.975 342.5,365.5C 342.5,364.5 342.5,363.5 342.5,362.5 Z"/></g>
<g><path style="opacity:1" fill="#c8d3ed" d="M 90.5,354.5 C 100.63,358.528 110.464,363.528 120,369.5C 120.333,369.167 120.667,368.833 121,368.5C 122.635,369.726 124.135,371.059 125.5,372.5C 128.734,373.041 131.567,374.374 134,376.5C 134.333,376.167 134.667,375.833 135,375.5C 136.333,376.833 137.667,378.167 139,379.5C 139.333,379.167 139.667,378.833 140,378.5C 145.283,382.223 150.783,385.557 156.5,388.5C 158.518,387.187 159.685,387.853 160,390.5C 163.679,390.768 167.012,392.435 170,395.5C 171.566,394.939 172.899,395.606 174,397.5C 174.986,396.829 176.153,396.829 177.5,397.5C 177.5,398.5 177.5,399.5 177.5,400.5C 177.167,400.5 176.833,400.5 176.5,400.5C 156.796,391.593 136.463,381.093 115.5,369C 106.989,364.693 98.3223,360.526 89.5,356.5C 89.3284,355.508 89.6618,354.842 90.5,354.5 Z"/></g>
<g><path style="opacity:0.989" fill="#b9c6f2" d="M 77.5,366.5 C 79.3904,366.297 80.8904,366.963 82,368.5C 104.768,379.305 127.602,390.972 150.5,403.5C 149.167,403.5 147.833,403.5 146.5,403.5C 145.167,403.5 143.833,403.5 142.5,403.5C 138.302,401.336 133.969,399.836 129.5,399C 127.833,398 126.167,397 124.5,396C 124.833,395.667 125.167,395.333 125.5,395C 124.451,394.508 123.451,394.674 122.5,395.5C 121.41,394.273 120.076,393.44 118.5,393C 119.833,392.333 119.833,391.667 118.5,391C 113.893,390.412 109.893,388.579 106.5,385.5C 104.675,386.571 103.508,385.904 103,383.5C 102.667,383.833 102.333,384.167 102,384.5C 98.9324,381.217 95.099,379.384 90.5,379C 90.9574,378.586 91.2907,378.086 91.5,377.5C 89.1724,376.176 86.8391,374.843 84.5,373.5C 83.0055,376.33 81.5055,375.663 80,371.5C 79.195,373.901 78.3617,373.734 77.5,371C 77.8333,370.667 78.1667,370.333 78.5,370C 77.451,369.508 76.451,369.674 75.5,370.5C 74.3044,370.154 74.3044,369.654 75.5,369C 74.9056,368.536 74.2389,368.369 73.5,368.5C 74.5137,367.326 75.847,366.66 77.5,366.5 Z"/></g>
<g><path style="opacity:0.985" fill="#ee9eb2" d="M 342.5,365.5 C 355.259,371.975 368.092,378.975 381,386.5C 392.247,390.878 403.08,396.545 413.5,403.5C 409.5,403.5 405.5,403.5 401.5,403.5C 378.794,392.037 356.127,380.37 333.5,368.5C 336.215,366.928 339.215,365.928 342.5,365.5 Z"/></g>
<g><path style="opacity:0.989" fill="#f8a4b8" d="M 333.5,368.5 C 356.127,380.37 378.794,392.037 401.5,403.5C 395.5,403.5 389.5,403.5 383.5,403.5C 363.55,392.857 343.55,382.19 323.5,371.5C 326.833,370.5 330.167,369.5 333.5,368.5 Z"/></g>
<g><path style="opacity:0.985" fill="#b1bff5" d="M 69.5,370.5 C 69.3691,371.376 69.7025,372.043 70.5,372.5C 72.6145,373.034 74.4478,374.034 76,375.5C 76.3333,375.167 76.6667,374.833 77,374.5C 78.594,375.716 80.094,377.049 81.5,378.5C 97.3089,385.466 111.476,392.799 124,400.5C 124.333,400.167 124.667,399.833 125,399.5C 126.866,401.809 129.033,403.142 131.5,403.5C 127.167,403.5 122.833,403.5 118.5,403.5C 109.717,398.949 100.384,394.449 90.5,390C 80.5827,383.88 70.5827,378.713 60.5,374.5C 63.0884,372.408 66.0884,371.075 69.5,370.5 Z"/></g>
<g><path style="opacity:0.991" fill="#f8abbb" d="M 323.5,371.5 C 343.55,382.19 363.55,392.857 383.5,403.5C 379.833,403.5 376.167,403.5 372.5,403.5C 354.004,393.427 335.671,383.76 317.5,374.5C 319.426,373.514 321.426,372.514 323.5,371.5 Z"/></g>
<g><path style="opacity:0.985" fill="#f7b1be" d="M 317.5,374.5 C 335.671,383.76 354.004,393.427 372.5,403.5C 368.167,403.5 363.833,403.5 359.5,403.5C 346.131,395.537 332.464,388.037 318.5,381C 315.479,379.82 312.479,378.654 309.5,377.5C 311.792,375.733 314.458,374.733 317.5,374.5 Z"/></g>
<g><path style="opacity:0.992" fill="#acb9f5" d="M 60.5,374.5 C 70.5827,378.713 80.5827,383.88 90.5,390C 100.384,394.449 109.717,398.949 118.5,403.5C 110.833,403.5 103.167,403.5 95.5,403.5C 80.1522,395.704 64.8188,387.704 49.5,379.5C 52.9789,377.597 56.6456,375.93 60.5,374.5 Z"/></g>
<g><path style="opacity:0.982" fill="#f7b8c1" d="M 309.5,377.5 C 312.479,378.654 315.479,379.82 318.5,381C 332.464,388.037 346.131,395.537 359.5,403.5C 355.833,403.5 352.167,403.5 348.5,403.5C 334.028,394.761 319.028,386.761 303.5,379.5C 305.214,378.262 307.214,377.595 309.5,377.5 Z"/></g>
<g><path style="opacity:1" fill="#d195a7" d="M 340.5,350.5 C 374.788,367.804 408.788,385.47 442.5,403.5C 440.5,403.5 438.5,403.5 436.5,403.5C 403.685,386.443 371.685,369.776 340.5,353.5C 340.5,352.5 340.5,351.5 340.5,350.5 Z"/></g>
<g><path style="opacity:0.984" fill="#f6bec4" d="M 303.5,379.5 C 319.028,386.761 334.028,394.761 348.5,403.5C 345.167,403.5 341.833,403.5 338.5,403.5C 324.978,395.78 311.311,388.447 297.5,381.5C 299.297,380.27 301.297,379.604 303.5,379.5 Z"/></g>
<g><path style="opacity:0.979" fill="#f6c4c7" d="M 297.5,381.5 C 311.311,388.447 324.978,395.78 338.5,403.5C 335.167,403.5 331.833,403.5 328.5,403.5C 317.904,397.035 306.904,391.369 295.5,386.5C 295.796,384.597 296.463,382.93 297.5,381.5 Z"/></g>
<g><path style="opacity:0.979" fill="#afb0db" d="M 43.5,385.5 C 54.9689,391.159 66.6355,397.159 78.5,403.5C 72.5,403.5 66.5,403.5 60.5,403.5C 54.3212,399.91 47.9879,396.577 41.5,393.5C 42.0427,390.782 42.7094,388.115 43.5,385.5 Z"/></g>
<g><path style="opacity:0.982" fill="#f6caca" d="M 295.5,386.5 C 306.904,391.369 317.904,397.035 328.5,403.5C 324.5,403.5 320.5,403.5 316.5,403.5C 309.441,399.354 302.107,395.687 294.5,392.5C 294.833,390.5 295.167,388.5 295.5,386.5 Z"/></g>
<g><path style="opacity:1" fill="#adb4e8" d="M 49.5,379.5 C 64.8188,387.704 80.1522,395.704 95.5,403.5C 89.8333,403.5 84.1667,403.5 78.5,403.5C 66.6355,397.159 54.9689,391.159 43.5,385.5C 43.795,381.871 45.795,379.871 49.5,379.5 Z"/></g>
<g><path style="opacity:1" fill="#b5c3f4" d="M 73.5,368.5 C 74.2389,368.369 74.9056,368.536 75.5,369C 74.3044,369.654 74.3044,370.154 75.5,370.5C 76.451,369.674 77.451,369.508 78.5,370C 78.1667,370.333 77.8333,370.667 77.5,371C 78.3617,373.734 79.195,373.901 80,371.5C 81.5055,375.663 83.0055,376.33 84.5,373.5C 86.8391,374.843 89.1724,376.176 91.5,377.5C 91.2907,378.086 90.9574,378.586 90.5,379C 95.099,379.384 98.9324,381.217 102,384.5C 102.333,384.167 102.667,383.833 103,383.5C 103.508,385.904 104.675,386.571 106.5,385.5C 109.893,388.579 113.893,390.412 118.5,391C 119.833,391.667 119.833,392.333 118.5,393C 120.076,393.44 121.41,394.273 122.5,395.5C 123.451,394.674 124.451,394.508 125.5,395C 125.167,395.333 124.833,395.667 124.5,396C 126.167,397 127.833,398 129.5,399C 133.969,399.836 138.302,401.336 142.5,403.5C 138.833,403.5 135.167,403.5 131.5,403.5C 129.033,403.142 126.866,401.809 125,399.5C 124.667,399.833 124.333,400.167 124,400.5C 111.476,392.799 97.3089,385.466 81.5,378.5C 80.094,377.049 78.594,375.716 77,374.5C 76.6667,374.833 76.3333,375.167 76,375.5C 74.4478,374.034 72.6145,373.034 70.5,372.5C 69.7025,372.043 69.3691,371.376 69.5,370.5C 70.5137,369.326 71.847,368.66 73.5,368.5 Z"/></g>
<g><path style="opacity:0.969" fill="#f5d2cd" d="M 294.5,392.5 C 302.107,395.687 309.441,399.354 316.5,403.5C 308.16,403.666 299.827,403.5 291.5,403C 292.69,399.544 293.69,396.044 294.5,392.5 Z"/></g>
<g><path style="opacity:0.962" fill="#b1adcf" d="M 41.5,393.5 C 47.9879,396.577 54.3212,399.91 60.5,403.5C 53.5,403.5 46.5,403.5 39.5,403.5C 40.0396,400.135 40.7063,396.802 41.5,393.5 Z"/></g>
<g><path style="opacity:1" fill="#f3e8d8" d="M 179.5,390.5 C 184.062,391.781 188.396,393.614 192.5,396C 193.469,397.758 194.636,398.258 196,397.5C 196.278,398.416 196.778,399.082 197.5,399.5C 197.101,403.116 196.101,406.45 194.5,409.5C 189.169,405.939 183.502,402.939 177.5,400.5C 177.5,399.5 177.5,398.5 177.5,397.5C 178.234,396.292 178.567,394.959 178.5,393.5C 179.404,392.791 179.737,391.791 179.5,390.5 Z"/></g>
<g><path style="opacity:0.989" fill="#e3ebe4" d="M 146.5,403.5 C 147.833,403.5 149.167,403.5 150.5,403.5C 151.5,403.5 152.5,403.5 153.5,403.5C 165.004,411.045 177.004,417.711 189.5,423.5C 189.443,424.609 189.11,425.609 188.5,426.5C 174.45,419.413 160.45,412.413 146.5,405.5C 146.5,404.833 146.5,404.167 146.5,403.5 Z"/></g>
<g><path style="opacity:0.989" fill="#e9f0e2" d="M 153.5,403.5 C 155.833,403.5 158.167,403.5 160.5,403.5C 170.352,409.55 180.352,415.216 190.5,420.5C 190.737,421.791 190.404,422.791 189.5,423.5C 177.004,417.711 165.004,411.045 153.5,403.5 Z"/></g>
<g><path style="opacity:0.982" fill="#f1f4de" d="M 176.5,400.5 C 176.833,400.5 177.167,400.5 177.5,400.5C 183.502,402.939 189.169,405.939 194.5,409.5C 193.935,413.537 192.601,417.203 190.5,420.5C 180.352,415.216 170.352,409.55 160.5,403.5C 162.167,403.5 163.833,403.5 165.5,403.5C 169.167,403.5 172.833,403.5 176.5,403.5C 176.5,402.5 176.5,401.5 176.5,400.5 Z"/></g>
<g><path style="opacity:0.99" fill="#dde6e6" d="M 146.5,405.5 C 160.45,412.413 174.45,419.413 188.5,426.5C 188.167,427.167 187.833,427.833 187.5,428.5C 173.841,422.499 160.175,415.499 146.5,407.5C 146.5,406.833 146.5,406.167 146.5,405.5 Z"/></g>
<g><path style="opacity:0.988" fill="#cdd8eb" d="M 146.5,411.5 C 159.59,418.31 172.59,425.31 185.5,432.5C 184.921,435.331 183.588,437.664 181.5,439.5C 173.479,437.065 165.979,433.065 159,427.5C 158.667,427.833 158.333,428.167 158,428.5C 156.116,427.023 154.116,425.69 152,424.5C 151.667,424.833 151.333,425.167 151,425.5C 149.366,423.503 147.532,421.836 145.5,420.5C 145.368,417.43 145.701,414.43 146.5,411.5 Z"/></g>
<g><path style="opacity:1" fill="#d8e1e8" d="M 146.5,407.5 C 160.175,415.499 173.841,422.499 187.5,428.5C 187.011,429.995 186.345,431.329 185.5,432.5C 172.59,425.31 159.59,418.31 146.5,411.5C 146.5,410.167 146.5,408.833 146.5,407.5 Z"/></g>
<g><path style="opacity:0.982" fill="#c5d0ee" d="M 145.5,420.5 C 147.532,421.836 149.366,423.503 151,425.5C 151.333,425.167 151.667,424.833 152,424.5C 154.116,425.69 156.116,427.023 158,428.5C 158.333,428.167 158.667,427.833 159,427.5C 165.979,433.065 173.479,437.065 181.5,439.5C 180.617,442.704 178.95,445.371 176.5,447.5C 166.155,442.309 155.155,436.642 143.5,430.5C 143.753,426.96 144.419,423.627 145.5,420.5 Z"/></g>
<g><path style="opacity:0.981" fill="#becbf1" d="M 143.5,430.5 C 155.155,436.642 166.155,442.309 176.5,447.5C 175.66,449.853 174.326,451.853 172.5,453.5C 163.195,448.988 154.028,443.988 145,438.5C 144.667,438.833 144.333,439.167 144,439.5C 143.302,438.309 142.469,437.309 141.5,436.5C 141.875,434.302 142.542,432.302 143.5,430.5 Z"/></g>
<g><path style="opacity:0.992" fill="#b4a7be" d="M 28.5,437.5 C 61.6689,454.584 94.6689,471.917 127.5,489.5C 126.22,490.931 124.553,491.598 122.5,491.5C 90.6535,474.026 58.9868,457.693 27.5,442.5C 27.2155,440.585 27.5489,438.919 28.5,437.5 Z"/></g>
<g><path style="opacity:0.997" fill="#b3a9c4" d="M 28.5,437.5 C 31.5,437.5 34.5,437.5 37.5,437.5C 69.1271,454.099 100.794,470.766 132.5,487.5C 130.95,488.441 129.284,489.107 127.5,489.5C 94.6689,471.917 61.6689,454.584 28.5,437.5 Z"/></g>
<g><path style="opacity:0.969" fill="#b2abca" d="M 37.5,437.5 C 50.8842,442.532 64.2175,447.532 77.5,452.5C 97.5407,463.843 117.541,474.51 137.5,484.5C 136.035,485.737 134.368,486.737 132.5,487.5C 100.794,470.766 69.1271,454.099 37.5,437.5 Z"/></g>
<g><path style="opacity:0.996" fill="#b4a5b8" d="M 27.5,442.5 C 58.9868,457.693 90.6535,474.026 122.5,491.5C 120.786,492.738 118.786,493.405 116.5,493.5C 108.474,488.87 99.8071,484.537 90.5,480.5C 89.914,480.709 89.414,481.043 89,481.5C 87.7318,478.516 85.7318,477.516 83,478.5C 82.7508,477.376 82.2508,476.376 81.5,475.5C 77.4194,474.049 73.7527,472.049 70.5,469.5C 69.914,469.709 69.414,470.043 69,470.5C 66.4098,467.257 63.4098,464.59 60,462.5C 58.6667,462.5 57.3333,462.5 56,462.5C 46.972,456.57 37.472,451.57 27.5,447.5C 27.5,445.833 27.5,444.167 27.5,442.5 Z"/></g>
<g><path style="opacity:0.977" fill="#b6c4f3" d="M 141.5,436.5 C 142.469,437.309 143.302,438.309 144,439.5C 144.333,439.167 144.667,438.833 145,438.5C 154.028,443.988 163.195,448.988 172.5,453.5C 171.557,456.109 169.89,458.109 167.5,459.5C 166.883,459.611 166.383,459.944 166,460.5C 156.542,455.328 146.709,449.995 136.5,444.5C 138.232,441.79 139.899,439.124 141.5,436.5 Z"/></g>
<g><path style="opacity:0.965" fill="#b1bff5" d="M 136.5,444.5 C 146.709,449.995 156.542,455.328 166,460.5C 166.383,459.944 166.883,459.611 167.5,459.5C 166.581,462.089 164.914,464.089 162.5,465.5C 162.047,464.542 161.381,463.708 160.5,463C 150.903,458.431 141.57,453.597 132.5,448.5C 133.833,447.167 135.167,445.833 136.5,444.5 Z"/></g>
<g><path style="opacity:0.991" fill="#b6a3b1" d="M 27.5,447.5 C 37.472,451.57 46.972,456.57 56,462.5C 57.3333,462.5 58.6667,462.5 60,462.5C 63.4098,464.59 66.4098,467.257 69,470.5C 69.414,470.043 69.914,469.709 70.5,469.5C 73.7527,472.049 77.4194,474.049 81.5,475.5C 82.2508,476.376 82.7508,477.376 83,478.5C 85.7318,477.516 87.7318,478.516 89,481.5C 89.414,481.043 89.914,480.709 90.5,480.5C 99.8071,484.537 108.474,488.87 116.5,493.5C 114.786,494.738 112.786,495.405 110.5,495.5C 82.4687,481.151 54.4687,466.818 26.5,452.5C 26.2155,450.585 26.5489,448.919 27.5,447.5 Z"/></g>
<g><path style="opacity:0.993" fill="#b7a2ac" d="M 26.5,452.5 C 54.4687,466.818 82.4687,481.151 110.5,495.5C 105.11,497.375 99.4436,498.375 93.5,498.5C 71.2207,486.024 48.554,474.024 25.5,462.5C 26.0508,459.193 26.3841,455.86 26.5,452.5 Z"/></g>
<g><path style="opacity:0.973" fill="#b1add1" d="M 77.5,452.5 C 82.5363,453.343 87.5363,454.343 92.5,455.5C 109.065,464.918 125.399,473.918 141.5,482.5C 140.486,483.674 139.153,484.34 137.5,484.5C 117.541,474.51 97.5407,463.843 77.5,452.5 Z"/></g>
<g><path style="opacity:0.964" fill="#acb8f2" d="M 132.5,448.5 C 141.57,453.597 150.903,458.431 160.5,463C 161.381,463.708 162.047,464.542 162.5,465.5C 160.431,468.573 157.764,470.906 154.5,472.5C 143.459,466.168 132.125,460.168 120.5,454.5C 124.713,453.06 128.713,451.06 132.5,448.5 Z"/></g>
<g><path style="opacity:0.946" fill="#afb0db" d="M 92.5,455.5 C 98.5,455.5 104.5,455.5 110.5,455.5C 111.941,459.381 114.441,461.381 118,461.5C 128.272,467.378 138.439,472.712 148.5,477.5C 146.469,479.522 144.135,481.189 141.5,482.5C 125.399,473.918 109.065,464.918 92.5,455.5 Z"/></g>
<g><path style="opacity:0.997" fill="#adb4e8" d="M 120.5,454.5 C 132.125,460.168 143.459,466.168 154.5,472.5C 153.109,474.89 151.109,476.557 148.5,477.5C 138.439,472.712 128.272,467.378 118,461.5C 114.441,461.381 111.941,459.381 110.5,455.5C 113.833,455.167 117.167,454.833 120.5,454.5 Z"/></g>
<g><path style="opacity:0.995" fill="#baacbc" d="M 25.5,462.5 C 48.554,474.024 71.2207,486.024 93.5,498.5C 93.5,498.833 93.5,499.167 93.5,499.5C 91.5,499.5 89.5,499.5 87.5,499.5C 67.4683,487.816 46.8017,477.149 25.5,467.5C 25.5,465.833 25.5,464.167 25.5,462.5 Z"/></g>
<g><path style="opacity:0.978" fill="#bdbcd7" d="M 24.5,472.5 C 41.8796,480.947 58.8796,489.947 75.5,499.5C 71.8333,499.5 68.1667,499.5 64.5,499.5C 51.0592,497.542 37.7258,494.542 24.5,490.5C 23.6945,484.528 23.6945,478.528 24.5,472.5 Z"/></g>
<g><path style="opacity:1" fill="#bbb2c6" d="M 25.5,467.5 C 46.8017,477.149 67.4683,487.816 87.5,499.5C 83.5,499.5 79.5,499.5 75.5,499.5C 58.8796,489.947 41.8796,480.947 24.5,472.5C 24.6287,470.784 24.962,469.117 25.5,467.5 Z"/></g>
</svg>
