<?xml version="1.0" encoding="UTF-8"?>
<!DOCTYPE svg PUBLIC "-//W3C//DTD SVG 1.1//EN" "http://www.w3.org/Graphics/SVG/1.1/DTD/svg11.dtd">
<svg xmlns="http://www.w3.org/2000/svg" version="1.1" width="2356px" height="1767px" style="shape-rendering:geometricPrecision; text-rendering:geometricPrecision; image-rendering:optimizeQuality; fill-rule:evenodd; clip-rule:evenodd" xmlns:xlink="http://www.w3.org/1999/xlink">
<g><path style="opacity:0.998" fill="#514999" d="M 745.5,316.5 C 1033.5,316.333 1321.5,316.5 1609.5,317C 1669.84,327.338 1709.01,361.838 1727,420.5C 1730.42,433.44 1732.25,446.607 1732.5,460C 1729.75,516.028 1731.92,571.862 1739,627.5C 1744.28,672.272 1755.94,715.272 1774,756.5C 1787.48,786.333 1807.65,810.5 1834.5,829C 1851.24,838.747 1869.24,844.581 1888.5,846.5C 1888.5,870.833 1888.5,895.167 1888.5,919.5C 1847.93,924.027 1816.1,943.027 1793,976.5C 1774.52,1004.47 1761.19,1034.81 1753,1067.5C 1737.53,1130.89 1730.36,1195.22 1731.5,1260.5C 1731.58,1275.67 1731.91,1290.84 1732.5,1306C 1730.69,1360.04 1707.36,1401.71 1662.5,1431C 1645.41,1440.81 1627.08,1446.81 1607.5,1449C 1320.83,1449.67 1034.17,1449.67 747.5,1449C 691.625,1440.33 653.125,1409.83 632,1357.5C 625.94,1340.7 622.773,1323.37 622.5,1305.5C 625.92,1238.74 622.087,1172.4 611,1106.5C 604.258,1067.61 591.924,1030.61 574,995.5C 560.7,970.199 541.867,950.032 517.5,935C 501.58,926.27 484.58,921.103 466.5,919.5C 466.5,895.167 466.5,870.833 466.5,846.5C 503.099,842.288 532.933,825.955 556,797.5C 575.022,771.789 589.022,743.455 598,712.5C 611.769,664.12 619.769,614.787 622,564.5C 623.622,526.837 623.955,489.17 623,451.5C 627.9,394.984 655.4,353.817 705.5,328C 718.51,322.585 731.844,318.752 745.5,316.5 Z M 991.5,582.5 C 1077.85,582.027 1164.19,582.527 1250.5,584C 1297.01,588.006 1336.17,606.839 1368,640.5C 1395.92,676.736 1405.25,717.403 1396,762.5C 1382.33,810.166 1352.17,842.333 1305.5,859C 1300.22,860.486 1294.89,861.653 1289.5,862.5C 1289.29,864.144 1289.62,865.644 1290.5,867C 1334.51,871.75 1371.01,890.583 1400,923.5C 1427.11,961.091 1436.11,1002.76 1427,1048.5C 1415.69,1101.81 1385.19,1139.64 1335.5,1162C 1305.42,1174.48 1274.09,1181.48 1241.5,1183C 1158.17,1183.67 1074.83,1183.67 991.5,1183C 982.333,1180.5 976.5,1174.67 974,1165.5C 973.333,977.167 973.333,788.833 974,600.5C 976.71,591.292 982.543,585.292 991.5,582.5 Z"/></g>
<g><path style="opacity:0.989" fill="#514999" d="M 1067.5,657.5 C 1114.83,657.333 1162.17,657.5 1209.5,658C 1233.04,658.848 1254.7,665.514 1274.5,678C 1295.58,695.184 1305.91,717.517 1305.5,745C 1304.4,786.417 1284.4,814.084 1245.5,828C 1227.98,833.903 1209.98,837.237 1191.5,838C 1150.17,838.5 1108.83,838.667 1067.5,838.5C 1067.5,778.167 1067.5,717.833 1067.5,657.5 Z"/></g>
<g><path style="opacity:0.989" fill="#514999" d="M 1067.5,908.5 C 1119.18,908.088 1170.85,908.588 1222.5,910C 1249.53,911.335 1274.53,919.002 1297.5,933C 1322.29,951.612 1334.29,976.612 1333.5,1008C 1333.37,1051.32 1313.37,1080.98 1273.5,1097C 1253.09,1104.01 1232.09,1107.68 1210.5,1108C 1162.83,1108.5 1115.17,1108.67 1067.5,1108.5C 1067.5,1041.83 1067.5,975.167 1067.5,908.5 Z"/></g>
</svg>
