<?xml version="1.0" encoding="UTF-8"?>
<!DOCTYPE svg PUBLIC "-//W3C//DTD SVG 1.1//EN" "http://www.w3.org/Graphics/SVG/1.1/DTD/svg11.dtd">
<svg xmlns="http://www.w3.org/2000/svg" version="1.1" width="375px" height="360px" style="shape-rendering:geometricPrecision; text-rendering:geometricPrecision; image-rendering:optimizeQuality; fill-rule:evenodd; clip-rule:evenodd" xmlns:xlink="http://www.w3.org/1999/xlink">
<g><path style="opacity:0.049" fill="#020202" d="M 180.5,1.5 C 189.401,1.0336 198.068,2.20026 206.5,5C 247.663,28.0803 288.663,51.4137 329.5,75C 340.261,82.7696 346.427,93.2696 348,106.5C 348.667,155.167 348.667,203.833 348,252.5C 346.619,268.118 339.119,279.618 325.5,287C 290.167,307.333 254.833,327.667 219.5,348C 200.35,359.429 180.683,360.429 160.5,351C 122.997,329.081 85.3299,307.414 47.5,286C 35.5032,278.523 28.6698,267.69 27,253.5C 26.3333,204.167 26.3333,154.833 27,105.5C 28.3788,93.907 33.5455,84.407 42.5,77C 82.003,53.7475 121.67,30.7475 161.5,8C 167.59,4.73801 173.924,2.57134 180.5,1.5 Z"/></g>
<g><path style="opacity:0.416" fill="#969696" d="M 191.5,7.5 C 184.786,7.73031 178.12,8.39698 171.5,9.5C 178.018,6.85504 184.684,6.18838 191.5,7.5 Z"/></g>
<g><path style="opacity:0.999" fill="#f9f8fa" d="M 191.5,7.5 C 194.059,7.19845 196.393,7.53178 198.5,8.5C 198.47,9.49722 198.97,10.1639 200,10.5C 202.835,11.2331 205.668,11.8997 208.5,12.5C 211.549,14.8627 214.882,16.8627 218.5,18.5C 219.492,18.3284 220.158,18.6618 220.5,19.5C 222.663,21.0828 224.996,22.4161 227.5,23.5C 229.663,25.0828 231.996,26.4161 234.5,27.5C 236.663,29.0828 238.996,30.4161 241.5,31.5C 243.663,33.0828 245.996,34.4161 248.5,35.5C 250.663,37.0828 252.996,38.4161 255.5,39.5C 258.549,41.8627 261.882,43.8627 265.5,45.5C 266.492,45.3284 267.158,45.6618 267.5,46.5C 269.663,48.0828 271.996,49.4161 274.5,50.5C 276.663,52.0828 278.996,53.4161 281.5,54.5C 283.663,56.0828 285.996,57.4161 288.5,58.5C 290.663,60.0828 292.996,61.4161 295.5,62.5C 298.549,64.8627 301.882,66.8627 305.5,68.5C 306.492,68.3284 307.158,68.6618 307.5,69.5C 308.261,70.3909 309.261,71.0576 310.5,71.5C 311.386,72.325 311.719,73.325 311.5,74.5C 314.421,74.2826 317.087,74.9493 319.5,76.5C 324.664,79.5823 329.664,82.9156 334.5,86.5C 335.65,90.7711 337.484,94.7711 340,98.5C 340.882,101.789 341.548,105.123 342,108.5C 342.5,155.832 342.667,203.165 342.5,250.5C 342.442,255.394 341.442,260.061 339.5,264.5C 337.461,265.911 336.461,267.911 336.5,270.5C 334.988,272.596 333.322,274.596 331.5,276.5C 329.821,276.285 328.821,276.952 328.5,278.5C 326.821,278.285 325.821,278.952 325.5,280.5C 323.447,280.402 321.78,281.069 320.5,282.5C 320.5,282.833 320.5,283.167 320.5,283.5C 318.447,283.402 316.78,284.069 315.5,285.5C 314.833,286.167 314.167,286.833 313.5,287.5C 311.447,287.402 309.78,288.069 308.5,289.5C 307.833,290.167 307.167,290.833 306.5,291.5C 304.447,291.402 302.78,292.069 301.5,293.5C 301.5,293.833 301.5,294.167 301.5,294.5C 299.447,294.402 297.78,295.069 296.5,296.5C 295.833,297.167 295.167,297.833 294.5,298.5C 292.447,298.402 290.78,299.069 289.5,300.5C 288.833,301.167 288.167,301.833 287.5,302.5C 285.447,302.402 283.78,303.069 282.5,304.5C 281.833,305.167 281.167,305.833 280.5,306.5C 278.447,306.402 276.78,307.069 275.5,308.5C 274.833,309.167 274.167,309.833 273.5,310.5C 271.447,310.402 269.78,311.069 268.5,312.5C 268.5,312.833 268.5,313.167 268.5,313.5C 266.447,313.402 264.78,314.069 263.5,315.5C 262.833,316.167 262.167,316.833 261.5,317.5C 259.447,317.402 257.78,318.069 256.5,319.5C 255.833,320.167 255.167,320.833 254.5,321.5C 252.447,321.402 250.78,322.069 249.5,323.5C 248.833,324.167 248.167,324.833 247.5,325.5C 245.447,325.402 243.78,326.069 242.5,327.5C 241.833,328.167 241.167,328.833 240.5,329.5C 238.447,329.402 236.78,330.069 235.5,331.5C 235.5,331.833 235.5,332.167 235.5,332.5C 233.447,332.402 231.78,333.069 230.5,334.5C 229.833,335.167 229.167,335.833 228.5,336.5C 226.447,336.402 224.78,337.069 223.5,338.5C 222.833,339.167 222.167,339.833 221.5,340.5C 219.447,340.402 217.78,341.069 216.5,342.5C 215.833,343.167 215.167,343.833 214.5,344.5C 212.447,344.402 210.78,345.069 209.5,346.5C 205.205,349.932 200.205,351.598 194.5,351.5C 185.315,351.955 176.315,350.955 167.5,348.5C 166.766,347.292 166.433,345.959 166.5,344.5C 163.833,344.167 161.167,343.833 158.5,343.5C 154.827,342 151.494,340 148.5,337.5C 148.631,336.761 148.464,336.094 148,335.5C 143.943,332.478 139.443,330.478 134.5,329.5C 132.652,326.069 129.652,324.403 125.5,324.5C 121.827,323 118.494,321 115.5,318.5C 115.631,317.761 115.464,317.094 115,316.5C 110.943,313.478 106.443,311.478 101.5,310.5C 99.6523,307.069 96.6523,305.403 92.5,305.5C 91.7659,304.292 91.4326,302.959 91.5,301.5C 88.8333,301.167 86.1667,300.833 83.5,300.5C 83.5,299.833 83.1667,299.5 82.5,299.5C 82.631,298.761 82.4643,298.094 82,297.5C 77.943,294.478 73.443,292.478 68.5,291.5C 68.631,290.761 68.4643,290.094 68,289.5C 63.943,286.478 59.443,284.478 54.5,283.5C 54.5858,282.504 54.2524,281.671 53.5,281C 50.6394,279.36 47.6394,278.193 44.5,277.5C 42.1594,274.161 39.8261,270.828 37.5,267.5C 36.1452,262.228 34.9785,256.894 34,251.5C 33.5,203.501 33.3333,155.501 33.5,107.5C 34.0067,103.14 34.6734,98.8072 35.5,94.5C 39.8272,90.1683 43.8272,85.5017 47.5,80.5C 48.4674,79.1938 49.8007,78.5271 51.5,78.5C 92.1607,56.5076 132.161,33.5076 171.5,9.5C 178.12,8.39698 184.786,7.73031 191.5,7.5 Z"/></g>
<g><path style="opacity:0.82" fill="#bbbbbb" d="M 198.5,8.5 C 202.332,8.88161 205.665,10.2149 208.5,12.5C 205.668,11.8997 202.835,11.2331 200,10.5C 198.97,10.1639 198.47,9.49722 198.5,8.5 Z"/></g>
<g><path style="opacity:0.341" fill="#858585" d="M 208.5,12.5 C 212.639,13.335 215.972,15.335 218.5,18.5C 214.882,16.8627 211.549,14.8627 208.5,12.5 Z"/></g>
<g><path style="opacity:1" fill="#a179db" d="M 194.5,20.5 C 204.244,24.2628 213.244,29.2628 221.5,35.5C 198.266,52.3841 175.266,69.7174 152.5,87.5C 151.45,88.4288 151.45,89.0954 152.5,89.5C 135.645,96.9977 121.312,107.998 109.5,122.5C 109.103,121.475 108.437,121.308 107.5,122C 88.2106,136.954 69.2106,152.287 50.5,168C 48.9221,169.094 47.2554,169.928 45.5,170.5C 45.3334,155.163 45.5001,139.83 46,124.5C 58.9964,116.837 70.8297,107.671 81.5,97C 92.0528,89.2306 102.386,81.2306 112.5,73C 111.167,72.3333 111.167,71.6667 112.5,71C 114.279,71.9791 115.945,71.6458 117.5,70C 128.015,61.5519 138.348,53.7185 148.5,46.5C 149.275,48.4753 150.609,49.3087 152.5,49C 165.065,39.8585 176.731,30.5252 187.5,21C 189.81,20.5034 192.143,20.3367 194.5,20.5 Z"/></g>
<g><path style="opacity:0.341" fill="#858585" d="M 220.5,19.5 C 223.614,19.5548 225.948,20.8881 227.5,23.5C 224.996,22.4161 222.663,21.0828 220.5,19.5 Z"/></g>
<g><path style="opacity:0.718" fill="#b4b4b4" d="M 171.5,9.5 C 132.161,33.5076 92.1607,56.5076 51.5,78.5C 51.3691,77.6236 51.7025,76.9569 52.5,76.5C 79.1667,61.1667 105.833,45.8333 132.5,30.5C 145.445,23.31 158.445,16.31 171.5,9.5 Z"/></g>
<g><path style="opacity:0.341" fill="#858585" d="M 227.5,23.5 C 230.614,23.5548 232.948,24.8881 234.5,27.5C 231.996,26.4161 229.663,25.0828 227.5,23.5 Z"/></g>
<g><path style="opacity:0.341" fill="#858585" d="M 234.5,27.5 C 237.614,27.5548 239.948,28.8881 241.5,31.5C 238.996,30.4161 236.663,29.0828 234.5,27.5 Z"/></g>
<g><path style="opacity:0.341" fill="#858585" d="M 241.5,31.5 C 244.614,31.5548 246.948,32.8881 248.5,35.5C 245.996,34.4161 243.663,33.0828 241.5,31.5 Z"/></g>
<g><path style="opacity:1" fill="#9e74d9" d="M 221.5,35.5 C 232.328,40.7439 242.661,46.7439 252.5,53.5C 250.407,54.0447 248.407,54.878 246.5,56C 235.305,65.364 223.972,74.5307 212.5,83.5C 211.479,84.0016 211.312,84.6683 212,85.5C 212.333,85.1667 212.667,84.8333 213,84.5C 213.69,86.3502 214.856,87.6836 216.5,88.5C 212.497,87.4996 208.497,86.4996 204.5,85.5C 199.41,84.0349 194.077,83.3682 188.5,83.5C 184.982,83.5016 181.649,83.8349 178.5,84.5C 178.167,84.5 177.833,84.5 177.5,84.5C 173.183,84.0834 169.183,84.7501 165.5,86.5C 161.341,88.1326 157.008,89.1326 152.5,89.5C 151.45,89.0954 151.45,88.4288 152.5,87.5C 175.266,69.7174 198.266,52.3841 221.5,35.5 Z"/></g>
<g><path style="opacity:0.341" fill="#858585" d="M 248.5,35.5 C 251.614,35.5548 253.948,36.8881 255.5,39.5C 252.996,38.4161 250.663,37.0828 248.5,35.5 Z"/></g>
<g><path style="opacity:0.341" fill="#848484" d="M 255.5,39.5 C 259.639,40.335 262.972,42.335 265.5,45.5C 261.882,43.8627 258.549,41.8627 255.5,39.5 Z"/></g>
<g><path style="opacity:0.341" fill="#858585" d="M 267.5,46.5 C 270.614,46.5548 272.948,47.8881 274.5,50.5C 271.996,49.4161 269.663,48.0828 267.5,46.5 Z"/></g>
<g><path style="opacity:1" fill="#a480de" d="M 194.5,20.5 C 192.143,20.3367 189.81,20.5034 187.5,21C 176.731,30.5252 165.065,39.8585 152.5,49C 150.609,49.3087 149.275,48.4753 148.5,46.5C 138.348,53.7185 128.015,61.5519 117.5,70C 115.945,71.6458 114.279,71.9791 112.5,71C 111.167,71.6667 111.167,72.3333 112.5,73C 102.386,81.2306 92.0528,89.2306 81.5,97C 70.8297,107.671 58.9964,116.837 46,124.5C 45.5001,139.83 45.3334,155.163 45.5,170.5C 45.1667,170.5 44.8333,170.5 44.5,170.5C 44.3334,148.164 44.5,125.831 45,103.5C 47.5493,98.9194 50.716,94.7527 54.5,91C 96.1003,67.0384 137.767,43.3717 179.5,20C 184.684,19.1837 189.684,19.3503 194.5,20.5 Z"/></g>
<g><path style="opacity:0.341" fill="#858585" d="M 274.5,50.5 C 277.614,50.5548 279.948,51.8881 281.5,54.5C 278.996,53.4161 276.663,52.0828 274.5,50.5 Z"/></g>
<g><path style="opacity:1" fill="#9b6ed6" d="M 252.5,53.5 C 264.155,59.3258 275.488,65.6592 286.5,72.5C 284.488,71.9862 282.488,71.8195 280.5,72C 268.013,82.0729 255.68,91.5729 243.5,100.5C 243.863,101.183 244.196,101.85 244.5,102.5C 235.365,97.2659 226.032,92.5993 216.5,88.5C 214.856,87.6836 213.69,86.3502 213,84.5C 212.667,84.8333 212.333,85.1667 212,85.5C 211.312,84.6683 211.479,84.0016 212.5,83.5C 223.972,74.5307 235.305,65.364 246.5,56C 248.407,54.878 250.407,54.0447 252.5,53.5 Z"/></g>
<g><path style="opacity:0.341" fill="#858585" d="M 281.5,54.5 C 284.614,54.5548 286.948,55.8881 288.5,58.5C 285.996,57.4161 283.663,56.0828 281.5,54.5 Z"/></g>
<g><path style="opacity:0.341" fill="#858585" d="M 288.5,58.5 C 291.614,58.5548 293.948,59.8881 295.5,62.5C 292.996,61.4161 290.663,60.0828 288.5,58.5 Z"/></g>
<g><path style="opacity:0.341" fill="#848484" d="M 295.5,62.5 C 299.639,63.335 302.972,65.335 305.5,68.5C 301.882,66.8627 298.549,64.8627 295.5,62.5 Z"/></g>
<g><path style="opacity:0.961" fill="#aeaeae" d="M 307.5,69.5 C 311.126,71.0931 314.793,72.7597 318.5,74.5C 319.298,74.9569 319.631,75.6236 319.5,76.5C 317.087,74.9493 314.421,74.2826 311.5,74.5C 311.719,73.325 311.386,72.325 310.5,71.5C 309.261,71.0576 308.261,70.3909 307.5,69.5 Z"/></g>
<g><path style="opacity:1" fill="#9766d3" d="M 286.5,72.5 C 297.505,78.6687 308.505,84.8354 319.5,91C 322.447,93.4356 324.78,96.2689 326.5,99.5C 307.037,109.731 288.037,120.731 269.5,132.5C 269.509,130.692 269.009,129.025 268,127.5C 264.909,122.986 261.575,118.653 258,114.5C 253.306,110.635 248.806,106.635 244.5,102.5C 244.196,101.85 243.863,101.183 243.5,100.5C 255.68,91.5729 268.013,82.0729 280.5,72C 282.488,71.8195 284.488,71.9862 286.5,72.5 Z"/></g>
<g><path style="opacity:0.337" fill="#7f7f7f" d="M 319.5,76.5 C 325.667,78.0835 330.667,81.4168 334.5,86.5C 329.664,82.9156 324.664,79.5823 319.5,76.5 Z"/></g>
<g><path style="opacity:1" fill="#baa4da" d="M 178.5,84.5 C 181.649,83.8349 184.982,83.5016 188.5,83.5C 194.077,83.3682 199.41,84.0349 204.5,85.5C 195.848,84.8539 187.182,84.5205 178.5,84.5 Z"/></g>
<g><path style="opacity:0.773" fill="#c3c3c3" d="M 47.5,80.5 C 43.8272,85.5017 39.8272,90.1683 35.5,94.5C 38.4175,88.9151 42.4175,84.2484 47.5,80.5 Z"/></g>
<g><path style="opacity:1" fill="#c4afe4" d="M 177.5,84.5 C 173.684,85.4824 169.684,86.1491 165.5,86.5C 169.183,84.7501 173.183,84.0834 177.5,84.5 Z"/></g>
<g><path style="opacity:1" fill="#fdfdfe" d="M 177.5,84.5 C 177.833,84.5 178.167,84.5 178.5,84.5C 187.182,84.5205 195.848,84.8539 204.5,85.5C 208.497,86.4996 212.497,87.4996 216.5,88.5C 226.032,92.5993 235.365,97.2659 244.5,102.5C 248.806,106.635 253.306,110.635 258,114.5C 261.575,118.653 264.909,122.986 268,127.5C 269.009,129.025 269.509,130.692 269.5,132.5C 266.339,133.913 263.339,135.58 260.5,137.5C 258.973,137.427 257.973,138.094 257.5,139.5C 252.127,142.518 246.794,145.518 241.5,148.5C 239.973,148.427 238.973,149.094 238.5,150.5C 235.366,151.901 232.366,153.568 229.5,155.5C 226.417,152.237 223.417,148.737 220.5,145C 217.778,142.642 214.778,140.809 211.5,139.5C 207.343,136.551 202.677,134.551 197.5,133.5C 194.305,131.97 190.805,131.304 187,131.5C 183.195,131.304 179.695,131.97 176.5,133.5C 157.999,138.5 145.832,150.167 140,168.5C 139.333,174.167 139.333,179.833 140,185.5C 140.21,187.058 140.71,188.391 141.5,189.5C 142.531,195.267 144.531,200.601 147.5,205.5C 152.267,212.934 158.6,218.601 166.5,222.5C 168.509,224.065 170.843,225.065 173.5,225.5C 195.952,230.402 213.952,223.735 227.5,205.5C 228.391,204.89 229.391,204.557 230.5,204.5C 240.31,210.544 250.31,216.21 260.5,221.5C 263.5,223.5 266.5,225.5 269.5,227.5C 252.645,255.272 227.978,270.938 195.5,274.5C 185.764,274.692 176.098,274.025 166.5,272.5C 163.308,272.595 160.308,271.929 157.5,270.5C 155.824,268.166 153.491,267.166 150.5,267.5C 147.127,266.934 144.127,265.601 141.5,263.5C 141.027,262.094 140.027,261.427 138.5,261.5C 131.623,257.63 125.289,252.963 119.5,247.5C 114.088,241.43 109.088,235.096 104.5,228.5C 97.2427,215.818 92.9093,202.151 91.5,187.5C 89.799,163.615 95.799,141.949 109.5,122.5C 121.312,107.998 135.645,96.9977 152.5,89.5C 157.008,89.1326 161.341,88.1326 165.5,86.5C 169.684,86.1491 173.684,85.4824 177.5,84.5 Z"/></g>
<g><path style="opacity:1" fill="#3b0399" d="M 326.5,99.5 C 327.906,99.9731 328.573,100.973 328.5,102.5C 329.32,108.797 329.653,115.131 329.5,121.5C 312.274,133.719 295.607,146.719 279.5,160.5C 277.57,162.174 275.57,162.507 273.5,161.5C 273.5,160.5 273.5,159.5 273.5,158.5C 273.5,156.5 273.5,154.5 273.5,152.5C 270.833,152.5 268.167,152.5 265.5,152.5C 265.5,153.833 265.5,155.167 265.5,156.5C 264.908,159.127 264.575,161.794 264.5,164.5C 261.833,164.5 259.167,164.5 256.5,164.5C 256.5,161.833 256.5,159.167 256.5,156.5C 256.5,155.167 256.5,153.833 256.5,152.5C 253.833,152.5 251.167,152.5 248.5,152.5C 248.5,156.5 248.5,160.5 248.5,164.5C 245.833,164.5 243.167,164.5 240.5,164.5C 240.5,167.167 240.5,169.833 240.5,172.5C 242.5,172.5 244.5,172.5 246.5,172.5C 246.5,174.5 246.5,176.5 246.5,178.5C 245.566,179.568 245.232,180.901 245.5,182.5C 242.941,182.198 240.607,182.532 238.5,183.5C 236.631,185.635 235.964,188.302 236.5,191.5C 245.81,191.672 245.81,192.172 236.5,193C 234,194.833 231.5,196.667 229,198.5C 228.383,199.449 228.549,200.282 229.5,201C 227.455,201.49 225.455,201.323 223.5,200.5C 221.566,198.703 219.233,197.703 216.5,197.5C 207.157,190.824 197.157,185.158 186.5,180.5C 190.928,177.109 195.594,173.942 200.5,171C 210.291,165.775 219.958,160.608 229.5,155.5C 232.366,153.568 235.366,151.901 238.5,150.5C 240.027,150.573 241.027,149.906 241.5,148.5C 246.794,145.518 252.127,142.518 257.5,139.5C 259.027,139.573 260.027,138.906 260.5,137.5C 263.339,135.58 266.339,133.913 269.5,132.5C 288.037,120.731 307.037,109.731 326.5,99.5 Z"/></g>
<g><path style="opacity:0.82" fill="#e3e3e3" d="M 33.5,107.5 C 33.3333,155.501 33.5,203.501 34,251.5C 34.9785,256.894 36.1452,262.228 37.5,267.5C 34.0661,262.858 32.3994,257.525 32.5,251.5C 32.1678,203.33 32.5012,155.33 33.5,107.5 Z"/></g>
<g><path style="opacity:0.408" fill="#9b9b9b" d="M 35.5,94.5 C 34.6734,98.8072 34.0067,103.14 33.5,107.5C 32.5012,155.33 32.1678,203.33 32.5,251.5C 31.3351,203.335 31.1684,155.002 32,106.5C 32.569,102.205 33.7356,98.2054 35.5,94.5 Z"/></g>
<g><path style="opacity:0.408" fill="#9d9d9d" d="M 334.5,86.5 C 339.749,92.3901 342.582,99.3901 343,107.5C 343.832,155.335 343.665,203.002 342.5,250.5C 342.667,203.165 342.5,155.832 342,108.5C 341.548,105.123 340.882,101.789 340,98.5C 337.484,94.7711 335.65,90.7711 334.5,86.5 Z"/></g>
<g><path style="opacity:1" fill="#390093" d="M 329.5,121.5 C 329.667,133.171 329.5,144.838 329,156.5C 323.178,159.99 318.345,164.49 314.5,170C 310.217,172.615 306.217,175.615 302.5,179C 300.833,179.333 299.167,179.667 297.5,180C 290.228,187.297 282.228,193.63 273.5,199C 271.506,203.832 270.173,203.666 269.5,198.5C 269.5,197.167 269.5,195.833 269.5,194.5C 270.404,193.791 270.737,192.791 270.5,191.5C 273.059,191.802 275.393,191.468 277.5,190.5C 277.5,188.167 277.5,185.833 277.5,183.5C 275.735,182.539 273.735,182.205 271.5,182.5C 271.5,180.833 271.5,179.167 271.5,177.5C 271.5,175.833 271.5,174.167 271.5,172.5C 274.167,172.5 276.833,172.5 279.5,172.5C 279.5,170.167 279.5,167.833 279.5,165.5C 277.735,164.539 275.735,164.205 273.5,164.5C 273.5,163.5 273.5,162.5 273.5,161.5C 275.57,162.507 277.57,162.174 279.5,160.5C 295.607,146.719 312.274,133.719 329.5,121.5 Z"/></g>
<g><path style="opacity:1" fill="#9e74d9" d="M 109.5,122.5 C 95.799,141.949 89.799,163.615 91.5,187.5C 90.2568,185.036 89.2568,182.37 88.5,179.5C 74.5152,190.496 60.5152,201.496 46.5,212.5C 45.5008,226.484 45.1674,240.484 45.5,254.5C 44.502,226.672 44.1687,198.672 44.5,170.5C 44.8333,170.5 45.1667,170.5 45.5,170.5C 47.2554,169.928 48.9221,169.094 50.5,168C 69.2106,152.287 88.2106,136.954 107.5,122C 108.437,121.308 109.103,121.475 109.5,122.5 Z"/></g>
<g><path style="opacity:1" fill="#cbb6e7" d="M 197.5,133.5 C 190.5,132.167 183.5,132.167 176.5,133.5C 179.695,131.97 183.195,131.304 187,131.5C 190.805,131.304 194.305,131.97 197.5,133.5 Z"/></g>
<g><path style="opacity:1" fill="#9b6ed5" d="M 197.5,133.5 C 202.677,134.551 207.343,136.551 211.5,139.5C 206.569,137.553 201.569,136.053 196.5,135C 197.061,136.566 196.394,137.899 194.5,139C 177.044,151.96 160.044,165.46 143.5,179.5C 142.914,179.291 142.414,178.957 142,178.5C 141.501,182.152 141.335,185.818 141.5,189.5C 140.71,188.391 140.21,187.058 140,185.5C 139.333,179.833 139.333,174.167 140,168.5C 145.832,150.167 157.999,138.5 176.5,133.5C 183.5,132.167 190.5,132.167 197.5,133.5 Z"/></g>
<g><path style="opacity:1" fill="#8766bc" d="M 260.5,137.5 C 260.027,138.906 259.027,139.573 257.5,139.5C 257.973,138.094 258.973,137.427 260.5,137.5 Z"/></g>
<g><path style="opacity:1" fill="#9767d3" d="M 211.5,139.5 C 214.778,140.809 217.778,142.642 220.5,145C 223.417,148.737 226.417,152.237 229.5,155.5C 219.958,160.608 210.291,165.775 200.5,171C 195.594,173.942 190.928,177.109 186.5,180.5C 174.073,187.076 161.74,193.91 149.5,201C 147.963,202.11 147.297,203.61 147.5,205.5C 144.531,200.601 142.531,195.267 141.5,189.5C 141.335,185.818 141.501,182.152 142,178.5C 142.414,178.957 142.914,179.291 143.5,179.5C 160.044,165.46 177.044,151.96 194.5,139C 196.394,137.899 197.061,136.566 196.5,135C 201.569,136.053 206.569,137.553 211.5,139.5 Z"/></g>
<g><path style="opacity:1" fill="#8464ba" d="M 241.5,148.5 C 241.027,149.906 240.027,150.573 238.5,150.5C 238.973,149.094 239.973,148.427 241.5,148.5 Z"/></g>
<g><path style="opacity:1" fill="#cec0e5" d="M 273.5,158.5 C 273.167,158.5 272.833,158.5 272.5,158.5C 272.5,156.833 272.5,155.167 272.5,153.5C 270.5,153.5 268.5,153.5 266.5,153.5C 266.737,154.791 266.404,155.791 265.5,156.5C 265.5,155.167 265.5,153.833 265.5,152.5C 268.167,152.5 270.833,152.5 273.5,152.5C 273.5,154.5 273.5,156.5 273.5,158.5 Z"/></g>
<g><path style="opacity:1" fill="#f7f4fa" d="M 256.5,156.5 C 255.523,159.287 255.19,162.287 255.5,165.5C 258.713,165.81 261.713,165.477 264.5,164.5C 264.575,161.794 264.908,159.127 265.5,156.5C 266.404,155.791 266.737,154.791 266.5,153.5C 268.5,153.5 270.5,153.5 272.5,153.5C 272.5,155.167 272.5,156.833 272.5,158.5C 272.5,160.833 272.5,163.167 272.5,165.5C 274.833,165.5 277.167,165.5 279.5,165.5C 279.5,167.833 279.5,170.167 279.5,172.5C 276.833,172.5 274.167,172.5 271.5,172.5C 271.5,174.167 271.5,175.833 271.5,177.5C 270.539,179.265 270.205,181.265 270.5,183.5C 272.833,183.5 275.167,183.5 277.5,183.5C 277.5,185.833 277.5,188.167 277.5,190.5C 274.833,190.5 272.167,190.5 269.5,190.5C 269.5,191.833 269.5,193.167 269.5,194.5C 269.5,195.833 269.5,197.167 269.5,198.5C 268.549,199.919 268.216,201.585 268.5,203.5C 266.167,203.5 263.833,203.5 261.5,203.5C 261.5,201.833 261.5,200.167 261.5,198.5C 261.5,196.167 261.5,193.833 261.5,191.5C 258.713,190.523 255.713,190.19 252.5,190.5C 252.5,191.833 252.5,193.167 252.5,194.5C 254.506,201.878 251.84,205.211 244.5,204.5C 244.5,199.833 244.5,195.167 244.5,190.5C 242.5,190.5 240.5,190.5 238.5,190.5C 238.5,188.167 238.5,185.833 238.5,183.5C 241.167,183.5 243.833,183.5 246.5,183.5C 246.5,181.833 246.5,180.167 246.5,178.5C 246.5,176.5 246.5,174.5 246.5,172.5C 244.5,172.5 242.5,172.5 240.5,172.5C 240.5,169.833 240.5,167.167 240.5,164.5C 243.167,164.5 245.833,164.5 248.5,164.5C 248.5,160.5 248.5,156.5 248.5,152.5C 251.167,152.5 253.833,152.5 256.5,152.5C 256.5,153.833 256.5,155.167 256.5,156.5 Z"/></g>
<g><path style="opacity:1" fill="#a085cd" d="M 256.5,156.5 C 256.5,159.167 256.5,161.833 256.5,164.5C 259.167,164.5 261.833,164.5 264.5,164.5C 261.713,165.477 258.713,165.81 255.5,165.5C 255.19,162.287 255.523,159.287 256.5,156.5 Z"/></g>
<g><path style="opacity:1" fill="#9b7fc9" d="M 272.5,158.5 C 272.833,158.5 273.167,158.5 273.5,158.5C 273.5,159.5 273.5,160.5 273.5,161.5C 273.5,162.5 273.5,163.5 273.5,164.5C 275.735,164.205 277.735,164.539 279.5,165.5C 277.167,165.5 274.833,165.5 272.5,165.5C 272.5,163.167 272.5,160.833 272.5,158.5 Z"/></g>
<g><path style="opacity:1" fill="#3a028f" d="M 328.5,102.5 C 329.537,103.93 330.204,105.597 330.5,107.5C 330.667,133.502 330.5,159.502 330,185.5C 329.808,183.423 329.308,181.423 328.5,179.5C 328.167,179.667 327.833,179.833 327.5,180C 322.002,185.996 316.002,191.496 309.5,196.5C 297.001,204.59 285.001,213.423 273.5,223C 272.271,223.781 270.938,224.281 269.5,224.5C 266.535,223.291 263.535,222.291 260.5,221.5C 250.31,216.21 240.31,210.544 230.5,204.5C 229.791,203.596 228.791,203.263 227.5,203.5C 225.924,202.857 224.59,201.857 223.5,200.5C 225.455,201.323 227.455,201.49 229.5,201C 228.549,200.282 228.383,199.449 229,198.5C 231.5,196.667 234,194.833 236.5,193C 245.81,192.172 245.81,191.672 236.5,191.5C 235.964,188.302 236.631,185.635 238.5,183.5C 238.5,185.833 238.5,188.167 238.5,190.5C 240.5,190.5 242.5,190.5 244.5,190.5C 244.5,195.167 244.5,199.833 244.5,204.5C 251.84,205.211 254.506,201.878 252.5,194.5C 253.404,193.791 253.737,192.791 253.5,191.5C 256.167,191.5 258.833,191.5 261.5,191.5C 261.5,193.833 261.5,196.167 261.5,198.5C 260.539,200.265 260.205,202.265 260.5,204.5C 263.385,204.806 266.052,204.473 268.5,203.5C 268.216,201.585 268.549,199.919 269.5,198.5C 270.173,203.666 271.506,203.832 273.5,199C 282.228,193.63 290.228,187.297 297.5,180C 299.167,179.667 300.833,179.333 302.5,179C 306.217,175.615 310.217,172.615 314.5,170C 318.345,164.49 323.178,159.99 329,156.5C 329.5,144.838 329.667,133.171 329.5,121.5C 329.653,115.131 329.32,108.797 328.5,102.5 Z"/></g>
<g><path style="opacity:1" fill="#3e0997" d="M 263.5,180.5 C 260.855,182.242 257.855,182.909 254.5,182.5C 254.5,180.833 254.5,179.167 254.5,177.5C 254.5,175.833 254.5,174.167 254.5,172.5C 257.5,172.5 260.5,172.5 263.5,172.5C 263.5,175.167 263.5,177.833 263.5,180.5 Z"/></g>
<g><path style="opacity:1" fill="#9a6cd6" d="M 91.5,187.5 C 92.9093,202.151 97.2427,215.818 104.5,228.5C 103.127,228.343 101.793,228.51 100.5,229C 83.5,238.833 66.5,248.667 49.5,258.5C 48.6143,259.325 48.281,260.325 48.5,261.5C 47.6586,259.188 46.6586,256.855 45.5,254.5C 45.1674,240.484 45.5008,226.484 46.5,212.5C 60.5152,201.496 74.5152,190.496 88.5,179.5C 89.2568,182.37 90.2568,185.036 91.5,187.5 Z"/></g>
<g><path style="opacity:1" fill="#34017f" d="M 186.5,180.5 C 197.157,185.158 207.157,190.824 216.5,197.5C 205.353,206.47 194.019,215.303 182.5,224C 179.518,224.498 176.518,224.665 173.5,224.5C 171.412,223.061 169.079,222.394 166.5,222.5C 158.6,218.601 152.267,212.934 147.5,205.5C 147.297,203.61 147.963,202.11 149.5,201C 161.74,193.91 174.073,187.076 186.5,180.5 Z"/></g>
<g><path style="opacity:1" fill="#7a55b8" d="M 246.5,178.5 C 246.5,180.167 246.5,181.833 246.5,183.5C 243.833,183.5 241.167,183.5 238.5,183.5C 240.607,182.532 242.941,182.198 245.5,182.5C 245.232,180.901 245.566,179.568 246.5,178.5 Z"/></g>
<g><path style="opacity:1" fill="#8765bd" d="M 254.5,177.5 C 254.5,179.167 254.5,180.833 254.5,182.5C 257.855,182.909 260.855,182.242 263.5,180.5C 263.5,181.5 263.5,182.5 263.5,183.5C 260.167,183.5 256.833,183.5 253.5,183.5C 253.205,181.265 253.539,179.265 254.5,177.5 Z"/></g>
<g><path style="opacity:1" fill="#815db9" d="M 271.5,177.5 C 271.5,179.167 271.5,180.833 271.5,182.5C 273.735,182.205 275.735,182.539 277.5,183.5C 275.167,183.5 272.833,183.5 270.5,183.5C 270.205,181.265 270.539,179.265 271.5,177.5 Z"/></g>
<g><path style="opacity:1" fill="#3e098d" d="M 330.5,107.5 C 331.665,154.998 331.832,202.665 331,250.5C 330.169,253.902 328.669,256.902 326.5,259.5C 322.883,258.358 319.55,256.692 316.5,254.5C 300.641,245.74 284.975,236.74 269.5,227.5C 266.5,225.5 263.5,223.5 260.5,221.5C 263.535,222.291 266.535,223.291 269.5,224.5C 270.938,224.281 272.271,223.781 273.5,223C 285.001,213.423 297.001,204.59 309.5,196.5C 316.002,191.496 322.002,185.996 327.5,180C 327.833,179.833 328.167,179.667 328.5,179.5C 329.308,181.423 329.808,183.423 330,185.5C 330.5,159.502 330.667,133.502 330.5,107.5 Z"/></g>
<g><path style="opacity:1" fill="#805eb9" d="M 261.5,191.5 C 258.833,191.5 256.167,191.5 253.5,191.5C 253.737,192.791 253.404,193.791 252.5,194.5C 252.5,193.167 252.5,191.833 252.5,190.5C 255.713,190.19 258.713,190.523 261.5,191.5 Z"/></g>
<g><path style="opacity:1" fill="#7d5ab6" d="M 277.5,190.5 C 275.393,191.468 273.059,191.802 270.5,191.5C 270.737,192.791 270.404,193.791 269.5,194.5C 269.5,193.167 269.5,191.833 269.5,190.5C 272.167,190.5 274.833,190.5 277.5,190.5 Z"/></g>
<g><path style="opacity:1" fill="#35067a" d="M 216.5,197.5 C 219.233,197.703 221.566,198.703 223.5,200.5C 224.59,201.857 225.924,202.857 227.5,203.5C 227.5,204.167 227.5,204.833 227.5,205.5C 213.952,223.735 195.952,230.402 173.5,225.5C 173.5,225.167 173.5,224.833 173.5,224.5C 176.518,224.665 179.518,224.498 182.5,224C 194.019,215.303 205.353,206.47 216.5,197.5 Z"/></g>
<g><path style="opacity:1" fill="#a790c7" d="M 227.5,203.5 C 228.791,203.263 229.791,203.596 230.5,204.5C 229.391,204.557 228.391,204.89 227.5,205.5C 227.5,204.833 227.5,204.167 227.5,203.5 Z"/></g>
<g><path style="opacity:1" fill="#b49fd5" d="M 261.5,198.5 C 261.5,200.167 261.5,201.833 261.5,203.5C 263.833,203.5 266.167,203.5 268.5,203.5C 266.052,204.473 263.385,204.806 260.5,204.5C 260.205,202.265 260.539,200.265 261.5,198.5 Z"/></g>
<g><path style="opacity:1" fill="#7859a2" d="M 166.5,222.5 C 169.079,222.394 171.412,223.061 173.5,224.5C 173.5,224.833 173.5,225.167 173.5,225.5C 170.843,225.065 168.509,224.065 166.5,222.5 Z"/></g>
<g><path style="opacity:1" fill="#360282" d="M 104.5,228.5 C 109.088,235.096 114.088,241.43 119.5,247.5C 119.84,250.675 121.507,252.841 124.5,254C 121.708,254.897 119.041,256.063 116.5,257.5C 107.352,265.571 98.0185,273.405 88.5,281C 87.2396,282.113 86.073,282.28 85,281.5C 84.6667,282.167 84.3333,282.833 84,283.5C 82.6439,282.62 81.1439,282.286 79.5,282.5C 71.6845,277.757 63.6845,273.257 55.5,269C 52.9614,266.63 50.6281,264.13 48.5,261.5C 48.281,260.325 48.6143,259.325 49.5,258.5C 66.5,248.667 83.5,238.833 100.5,229C 101.793,228.51 103.127,228.343 104.5,228.5 Z"/></g>
<g><path style="opacity:1" fill="#2b0167" d="M 269.5,227.5 C 284.975,236.74 300.641,245.74 316.5,254.5C 314.119,253.58 311.786,253.58 309.5,254.5C 286.099,274.436 262.099,293.27 237.5,311C 236.216,311.684 235.049,311.517 234,310.5C 232.482,312.813 232.316,315.146 233.5,317.5C 223.194,323.655 212.861,329.822 202.5,336C 199.47,337.284 196.47,338.451 193.5,339.5C 187.346,339.822 181.346,339.155 175.5,337.5C 169.265,334.601 163.265,331.267 157.5,327.5C 157.027,326.094 156.027,325.427 154.5,325.5C 151.996,324.416 149.663,323.083 147.5,321.5C 150.649,321.789 153.649,321.289 156.5,320C 174.788,306.505 192.788,292.505 210.5,278C 211.5,277.667 212.5,277.333 213.5,277C 213.167,276.667 212.833,276.333 212.5,276C 214.779,275.527 216.779,274.527 218.5,273C 212.189,273.617 205.855,274.617 199.5,276C 192.174,276.5 184.841,276.666 177.5,276.5C 174.848,276.59 172.515,275.924 170.5,274.5C 178.989,275.639 187.323,275.639 195.5,274.5C 227.978,270.938 252.645,255.272 269.5,227.5 Z"/></g>
<g><path style="opacity:1" fill="#2b0363" d="M 316.5,254.5 C 319.55,256.692 322.883,258.358 326.5,259.5C 325.137,263.702 322.47,266.869 318.5,269C 295.867,281.371 273.534,294.205 251.5,307.5C 249.973,307.427 248.973,308.094 248.5,309.5C 243.5,312.167 238.5,314.833 233.5,317.5C 232.316,315.146 232.482,312.813 234,310.5C 235.049,311.517 236.216,311.684 237.5,311C 262.099,293.27 286.099,274.436 309.5,254.5C 311.786,253.58 314.119,253.58 316.5,254.5 Z"/></g>
<g><path style="opacity:1" fill="#320279" d="M 119.5,247.5 C 125.289,252.963 131.623,257.63 138.5,261.5C 138.973,262.906 139.973,263.573 141.5,263.5C 142.252,265.1 143.252,266.6 144.5,268C 131.562,278.554 118.896,288.387 106.5,297.5C 106.167,297.5 105.833,297.5 105.5,297.5C 105.179,295.952 104.179,295.285 102.5,295.5C 102.64,293.876 101.973,292.71 100.5,292C 105.403,289.544 105.403,288.544 100.5,289C 100.833,289.333 101.167,289.667 101.5,290C 99.6547,291.128 97.6547,291.628 95.5,291.5C 89.6697,289.326 84.3364,286.326 79.5,282.5C 81.1439,282.286 82.6439,282.62 84,283.5C 84.3333,282.833 84.6667,282.167 85,281.5C 86.073,282.28 87.2396,282.113 88.5,281C 98.0185,273.405 107.352,265.571 116.5,257.5C 119.041,256.063 121.708,254.897 124.5,254C 121.507,252.841 119.84,250.675 119.5,247.5 Z"/></g>
<g><path style="opacity:1" fill="#a38ec2" d="M 138.5,261.5 C 140.027,261.427 141.027,262.094 141.5,263.5C 139.973,263.573 138.973,262.906 138.5,261.5 Z"/></g>
<g><path style="opacity:0.349" fill="#7e7e7e" d="M 339.5,264.5 C 339.008,266.819 338.008,268.819 336.5,270.5C 336.461,267.911 337.461,265.911 339.5,264.5 Z"/></g>
<g><path style="opacity:1" fill="#300174" d="M 141.5,263.5 C 144.127,265.601 147.127,266.934 150.5,267.5C 152.509,269.065 154.843,270.065 157.5,270.5C 160.308,271.929 163.308,272.595 166.5,272.5C 167.671,273.345 169.005,274.011 170.5,274.5C 172.515,275.924 174.848,276.59 177.5,276.5C 164.054,285.5 151.054,295.833 138.5,307.5C 135.787,308.914 133.12,310.247 130.5,311.5C 123.839,308.104 117.173,304.604 110.5,301C 108.907,300.051 107.574,298.885 106.5,297.5C 118.896,288.387 131.562,278.554 144.5,268C 143.252,266.6 142.252,265.1 141.5,263.5 Z"/></g>
<g><path style="opacity:1" fill="#c3b6d8" d="M 150.5,267.5 C 153.491,267.166 155.824,268.166 157.5,270.5C 154.843,270.065 152.509,269.065 150.5,267.5 Z"/></g>
<g><path style="opacity:0.337" fill="#7f7f7f" d="M 37.5,267.5 C 39.8261,270.828 42.1594,274.161 44.5,277.5C 40.5759,275.248 38.2426,271.915 37.5,267.5 Z"/></g>
<g><path style="opacity:1" fill="#8572a3" d="M 166.5,272.5 C 176.098,274.025 185.764,274.692 195.5,274.5C 187.323,275.639 178.989,275.639 170.5,274.5C 169.005,274.011 167.671,273.345 166.5,272.5 Z"/></g>
<g><path style="opacity:1" fill="#2d006e" d="M 147.5,321.5 C 144.366,320.099 141.366,318.432 138.5,316.5C 138.027,315.094 137.027,314.427 135.5,314.5C 133.326,314.25 131.659,313.25 130.5,311.5C 133.12,310.247 135.787,308.914 138.5,307.5C 151.054,295.833 164.054,285.5 177.5,276.5C 184.841,276.666 192.174,276.5 199.5,276C 205.855,274.617 212.189,273.617 218.5,273C 216.779,274.527 214.779,275.527 212.5,276C 212.833,276.333 213.167,276.667 213.5,277C 212.5,277.333 211.5,277.667 210.5,278C 192.788,292.505 174.788,306.505 156.5,320C 153.649,321.289 150.649,321.789 147.5,321.5 Z"/></g>
<g><path style="opacity:0.345" fill="#787878" d="M 331.5,276.5 C 330.71,277.401 329.71,278.068 328.5,278.5C 328.821,276.952 329.821,276.285 331.5,276.5 Z"/></g>
<g><path style="opacity:0.349" fill="#777777" d="M 328.5,278.5 C 327.71,279.401 326.71,280.068 325.5,280.5C 325.821,278.952 326.821,278.285 328.5,278.5 Z"/></g>
<g><path style="opacity:0.867" fill="#bdbdbd" d="M 44.5,277.5 C 47.6394,278.193 50.6394,279.36 53.5,281C 54.2524,281.671 54.5858,282.504 54.5,283.5C 50.9513,281.799 47.618,279.799 44.5,277.5 Z"/></g>
<g><path style="opacity:0.341" fill="#818181" d="M 325.5,280.5 C 324.22,281.931 322.553,282.598 320.5,282.5C 321.78,281.069 323.447,280.402 325.5,280.5 Z"/></g>
<g><path style="opacity:0.341" fill="#828282" d="M 320.5,283.5 C 319.22,284.931 317.553,285.598 315.5,285.5C 316.78,284.069 318.447,283.402 320.5,283.5 Z"/></g>
<g><path style="opacity:0.957" fill="#bfbfbf" d="M 54.5,283.5 C 59.443,284.478 63.943,286.478 68,289.5C 68.4643,290.094 68.631,290.761 68.5,291.5C 63.4997,289.336 58.833,286.669 54.5,283.5 Z"/></g>
<g><path style="opacity:0.341" fill="#828282" d="M 313.5,287.5 C 312.22,288.931 310.553,289.598 308.5,289.5C 309.78,288.069 311.447,287.402 313.5,287.5 Z"/></g>
<g><path style="opacity:1" fill="#502888" d="M 105.5,297.5 C 101.827,296 98.4937,294 95.5,291.5C 97.6547,291.628 99.6547,291.128 101.5,290C 101.167,289.667 100.833,289.333 100.5,289C 105.403,288.544 105.403,289.544 100.5,292C 101.973,292.71 102.64,293.876 102.5,295.5C 104.179,295.285 105.179,295.952 105.5,297.5 Z"/></g>
<g><path style="opacity:0.345" fill="#808080" d="M 306.5,291.5 C 305.22,292.931 303.553,293.598 301.5,293.5C 302.78,292.069 304.447,291.402 306.5,291.5 Z"/></g>
<g><path style="opacity:0.957" fill="#bfbfbf" d="M 68.5,291.5 C 73.443,292.478 77.943,294.478 82,297.5C 82.4643,298.094 82.631,298.761 82.5,299.5C 77.4997,297.336 72.833,294.669 68.5,291.5 Z"/></g>
<g><path style="opacity:0.341" fill="#828282" d="M 301.5,294.5 C 300.22,295.931 298.553,296.598 296.5,296.5C 297.78,295.069 299.447,294.402 301.5,294.5 Z"/></g>
<g><path style="opacity:0.341" fill="#828282" d="M 294.5,298.5 C 293.22,299.931 291.553,300.598 289.5,300.5C 290.78,299.069 292.447,298.402 294.5,298.5 Z"/></g>
<g><path style="opacity:0.961" fill="#c0c0c0" d="M 83.5,300.5 C 86.1667,300.833 88.8333,301.167 91.5,301.5C 91.4326,302.959 91.7659,304.292 92.5,305.5C 89.3739,304.018 86.3739,302.351 83.5,300.5 Z"/></g>
<g><path style="opacity:0.341" fill="#828282" d="M 287.5,302.5 C 286.22,303.931 284.553,304.598 282.5,304.5C 283.78,303.069 285.447,302.402 287.5,302.5 Z"/></g>
<g><path style="opacity:0.341" fill="#828282" d="M 280.5,306.5 C 279.22,307.931 277.553,308.598 275.5,308.5C 276.78,307.069 278.447,306.402 280.5,306.5 Z"/></g>
<g><path style="opacity:0.867" fill="#bdbdbd" d="M 92.5,305.5 C 96.6523,305.403 99.6523,307.069 101.5,310.5C 98.382,308.974 95.382,307.307 92.5,305.5 Z"/></g>
<g><path style="opacity:1" fill="#9b87b2" d="M 251.5,307.5 C 251.027,308.906 250.027,309.573 248.5,309.5C 248.973,308.094 249.973,307.427 251.5,307.5 Z"/></g>
<g><path style="opacity:0.345" fill="#808080" d="M 273.5,310.5 C 272.22,311.931 270.553,312.598 268.5,312.5C 269.78,311.069 271.447,310.402 273.5,310.5 Z"/></g>
<g><path style="opacity:0.957" fill="#bfbfbf" d="M 101.5,310.5 C 106.443,311.478 110.943,313.478 115,316.5C 115.464,317.094 115.631,317.761 115.5,318.5C 110.5,316.336 105.833,313.669 101.5,310.5 Z"/></g>
<g><path style="opacity:0.341" fill="#828282" d="M 268.5,313.5 C 267.22,314.931 265.553,315.598 263.5,315.5C 264.78,314.069 266.447,313.402 268.5,313.5 Z"/></g>
<g><path style="opacity:1" fill="#7c5ea0" d="M 135.5,314.5 C 137.027,314.427 138.027,315.094 138.5,316.5C 136.973,316.573 135.973,315.906 135.5,314.5 Z"/></g>
<g><path style="opacity:0.341" fill="#828282" d="M 261.5,317.5 C 260.22,318.931 258.553,319.598 256.5,319.5C 257.78,318.069 259.447,317.402 261.5,317.5 Z"/></g>
<g><path style="opacity:0.341" fill="#828282" d="M 254.5,321.5 C 253.22,322.931 251.553,323.598 249.5,323.5C 250.78,322.069 252.447,321.402 254.5,321.5 Z"/></g>
<g><path style="opacity:0.341" fill="#828282" d="M 247.5,325.5 C 246.22,326.931 244.553,327.598 242.5,327.5C 243.78,326.069 245.447,325.402 247.5,325.5 Z"/></g>
<g><path style="opacity:0.867" fill="#bdbdbd" d="M 125.5,324.5 C 129.652,324.403 132.652,326.069 134.5,329.5C 131.382,327.974 128.382,326.307 125.5,324.5 Z"/></g>
<g><path style="opacity:1" fill="#8268a3" d="M 154.5,325.5 C 156.027,325.427 157.027,326.094 157.5,327.5C 155.973,327.573 154.973,326.906 154.5,325.5 Z"/></g>
<g><path style="opacity:0.345" fill="#808080" d="M 240.5,329.5 C 239.22,330.931 237.553,331.598 235.5,331.5C 236.78,330.069 238.447,329.402 240.5,329.5 Z"/></g>
<g><path style="opacity:0.957" fill="#bfbfbf" d="M 134.5,329.5 C 139.443,330.478 143.943,332.478 148,335.5C 148.464,336.094 148.631,336.761 148.5,337.5C 143.5,335.336 138.833,332.669 134.5,329.5 Z"/></g>
<g><path style="opacity:0.341" fill="#828282" d="M 235.5,332.5 C 234.22,333.931 232.553,334.598 230.5,334.5C 231.78,333.069 233.447,332.402 235.5,332.5 Z"/></g>
<g><path style="opacity:0.341" fill="#828282" d="M 228.5,336.5 C 227.22,337.931 225.553,338.598 223.5,338.5C 224.78,337.069 226.447,336.402 228.5,336.5 Z"/></g>
<g><path style="opacity:1" fill="#62438d" d="M 175.5,337.5 C 181.346,339.155 187.346,339.822 193.5,339.5C 189.354,340.647 185.02,340.814 180.5,340C 178.509,339.626 176.842,338.793 175.5,337.5 Z"/></g>
<g><path style="opacity:0.341" fill="#828282" d="M 221.5,340.5 C 220.22,341.931 218.553,342.598 216.5,342.5C 217.78,341.069 219.447,340.402 221.5,340.5 Z"/></g>
<g><path style="opacity:0.961" fill="#c0c0c0" d="M 158.5,343.5 C 161.167,343.833 163.833,344.167 166.5,344.5C 166.433,345.959 166.766,347.292 167.5,348.5C 164.374,347.018 161.374,345.351 158.5,343.5 Z"/></g>
<g><path style="opacity:0.341" fill="#828282" d="M 214.5,344.5 C 213.22,345.931 211.553,346.598 209.5,346.5C 210.78,345.069 212.447,344.402 214.5,344.5 Z"/></g>
<g><path style="opacity:0.402" fill="#979797" d="M 167.5,348.5 C 176.315,350.955 185.315,351.955 194.5,351.5C 185.208,353.356 176.208,352.356 167.5,348.5 Z"/></g>
</svg>
