<?xml version="1.0" encoding="UTF-8"?>
<!DOCTYPE svg PUBLIC "-//W3C//DTD SVG 1.1//EN" "http://www.w3.org/Graphics/SVG/1.1/DTD/svg11.dtd">
<svg xmlns="http://www.w3.org/2000/svg" version="1.1" width="300px" height="300px" style="shape-rendering:geometricPrecision; text-rendering:geometricPrecision; image-rendering:optimizeQuality; fill-rule:evenodd; clip-rule:evenodd" xmlns:xlink="http://www.w3.org/1999/xlink">
<g><path style="opacity:0.999" fill="#4479a1" d="M 132.5,-0.5 C 143.833,-0.5 155.167,-0.5 166.5,-0.5C 221.238,7.45269 261.071,36.1194 286,85.5C 292.674,100.671 297.174,116.338 299.5,132.5C 299.5,143.833 299.5,155.167 299.5,166.5C 291.547,221.238 262.881,261.071 213.5,286C 198.329,292.674 182.662,297.174 166.5,299.5C 155.167,299.5 143.833,299.5 132.5,299.5C 77.7619,291.547 37.9286,262.881 13,213.5C 6.32637,198.329 1.82637,182.662 -0.5,166.5C -0.5,155.167 -0.5,143.833 -0.5,132.5C 7.45269,77.7619 36.1194,37.9286 85.5,13C 100.671,6.32637 116.338,1.82637 132.5,-0.5 Z"/></g>
<g><path style="opacity:1" fill="#eef3f6" d="M 171.5,61.5 C 177.114,61.6491 182.114,63.4824 186.5,67C 201.848,70.005 213.681,78.1717 222,91.5C 225.333,98.8333 228.667,106.167 232,113.5C 240.671,117.519 248.171,123.019 254.5,130C 250.098,130.955 245.764,132.121 241.5,133.5C 245.787,136.613 249.953,139.946 254,143.5C 254.688,144.332 254.521,144.998 253.5,145.5C 247.908,142.79 242.741,139.456 238,135.5C 237.018,134.241 236.685,132.908 237,131.5C 240.92,129.528 245.086,128.361 249.5,128C 243.585,122.875 236.918,119.042 229.5,116.5C 225.033,105.564 219.533,95.2303 213,85.5C 209.419,81.2477 205.252,77.7477 200.5,75C 190.737,72.5798 181.403,69.0798 172.5,64.5C 172.353,68.5357 173.853,71.8691 177,74.5C 179.628,81.0742 182.628,87.4076 186,93.5C 185.634,98.1317 185.134,102.798 184.5,107.5C 184.161,112.825 185.661,117.492 189,121.5C 188.715,116.345 190.382,112.012 194,108.5C 196.785,114.573 199.952,120.406 203.5,126C 201.255,125.805 199.422,124.638 198,122.5C 196.478,120.259 195.145,117.926 194,115.5C 193.667,117.5 193.333,119.5 193,121.5C 190.525,125.405 187.858,125.405 185,121.5C 180.911,113.424 180.411,105.091 183.5,96.5C 180.659,91.487 178.493,86.1537 177,80.5C 174.667,76.8333 172.333,73.1667 170,69.5C 169.109,66.5024 169.609,63.8357 171.5,61.5 Z"/></g>
<g><path style="opacity:1" fill="#f2f5f8" d="M 187.5,76.5 C 190.719,77.0211 191.719,78.6878 190.5,81.5C 189.048,80.0603 188.048,78.3936 187.5,76.5 Z"/></g>
<g><path style="opacity:1" fill="#e08833" d="M 144.5,145.5 C 148.846,145.334 153.179,145.501 157.5,146C 159.779,146.473 161.779,147.473 163.5,149C 162.881,150.757 161.714,151.924 160,152.5C 154.815,150.912 149.815,151.245 145,153.5C 142.749,157.666 143.583,161.166 147.5,164C 151.833,166.333 156.167,168.667 160.5,171C 169.234,180.595 167.901,188.595 156.5,195C 151.5,195.667 146.5,195.667 141.5,195C 138.924,194.218 136.924,192.718 135.5,190.5C 135.919,189.328 136.585,188.328 137.5,187.5C 144.674,192.104 151.174,191.437 157,185.5C 157.667,183.5 157.667,181.5 157,179.5C 151.579,174.914 145.745,170.914 139.5,167.5C 133.051,158.303 134.718,150.97 144.5,145.5 Z"/></g>
<g><path style="opacity:1" fill="#e08833" d="M 182.5,145.5 C 196.179,142.415 205.012,147.415 209,160.5C 209.991,168.651 209.324,176.651 207,184.5C 205.939,187.562 204.106,190.062 201.5,192C 204.661,193.413 207.661,195.08 210.5,197C 209.687,198.803 208.52,200.303 207,201.5C 203,199.5 199,197.5 195,195.5C 177.259,197.432 168.759,189.266 169.5,171C 169.028,159.837 173.362,151.337 182.5,145.5 Z"/></g>
<g><path style="opacity:1" fill="#f9fbfc" d="M 45.5,145.5 C 49.1667,145.5 52.8333,145.5 56.5,145.5C 60.0281,157.585 63.8614,169.585 68,181.5C 72.1424,169.574 75.9757,157.574 79.5,145.5C 83.1667,145.5 86.8333,145.5 90.5,145.5C 92.0886,162.131 93.0886,178.798 93.5,195.5C 90.8333,195.5 88.1667,195.5 85.5,195.5C 85.3048,182.462 84.4715,169.462 83,156.5C 78.1399,169.248 73.9733,182.248 70.5,195.5C 68.1667,195.5 65.8333,195.5 63.5,195.5C 60.0267,182.248 55.8601,169.248 51,156.5C 49.9176,169.479 49.4176,182.479 49.5,195.5C 47.1667,195.5 44.8333,195.5 42.5,195.5C 42.5271,178.761 43.5271,162.094 45.5,145.5 Z"/></g>
<g><path style="opacity:1" fill="#e08832" d="M 224.5,145.5 C 224.5,160.167 224.5,174.833 224.5,189.5C 229.833,189.5 235.167,189.5 240.5,189.5C 240.5,191.5 240.5,193.5 240.5,195.5C 232.5,195.5 224.5,195.5 216.5,195.5C 216.5,178.833 216.5,162.167 216.5,145.5C 219.167,145.5 221.833,145.5 224.5,145.5 Z"/></g>
<g><path style="opacity:1" fill="#707c81" d="M 224.5,145.5 C 225.496,159.657 225.829,173.99 225.5,188.5C 230.695,188.179 235.695,188.513 240.5,189.5C 235.167,189.5 229.833,189.5 224.5,189.5C 224.5,174.833 224.5,160.167 224.5,145.5 Z"/></g>
<g><path style="opacity:1" fill="#48799f" d="M 184.5,151.5 C 192.307,149.42 197.474,152.087 200,159.5C 202.501,168.821 201.668,177.821 197.5,186.5C 193.685,189.424 189.351,190.258 184.5,189C 182.622,187.457 181.122,185.624 180,183.5C 178.47,175.564 178.137,167.564 179,159.5C 180.273,156.403 182.107,153.736 184.5,151.5 Z"/></g>
<g><path style="opacity:1" fill="#f6f9fa" d="M 98.5,158.5 C 101.167,158.5 103.833,158.5 106.5,158.5C 109.023,168.237 111.856,177.904 115,187.5C 118.253,178.068 120.419,168.402 121.5,158.5C 124.167,158.5 126.833,158.5 129.5,158.5C 127.493,173.022 122.993,186.688 116,199.5C 112.129,206.37 106.296,209.203 98.5,208C 97.6198,206.644 97.2865,205.144 97.5,203.5C 103.93,203.977 107.596,201.144 108.5,195C 105.47,182.744 102.136,170.577 98.5,158.5 Z"/></g>
<g><path style="opacity:1" fill="#d98837" d="M 244.5,190.5 C 245.946,189.387 247.613,189.22 249.5,190C 247.954,191.44 247.121,193.273 247,195.5C 246.95,193.256 246.117,191.589 244.5,190.5 Z"/></g>
<g><path style="opacity:1" fill="#d0873e" d="M 250.5,189.5 C 252.411,189.574 253.578,190.574 254,192.5C 254.368,191.09 255.201,190.09 256.5,189.5C 257.641,191.421 257.808,193.421 257,195.5C 256.526,190.373 255.526,190.373 254,195.5C 252.474,190.373 251.474,190.373 251,195.5C 250.505,193.527 250.338,191.527 250.5,189.5 Z"/></g>
</svg>
