<?xml version="1.0" encoding="UTF-8"?>
<!DOCTYPE svg PUBLIC "-//W3C//DTD SVG 1.1//EN" "http://www.w3.org/Graphics/SVG/1.1/DTD/svg11.dtd">
<svg xmlns="http://www.w3.org/2000/svg" version="1.1" width="570px" height="570px" style="shape-rendering:geometricPrecision; text-rendering:geometricPrecision; image-rendering:optimizeQuality; fill-rule:evenodd; clip-rule:evenodd" xmlns:xlink="http://www.w3.org/1999/xlink">
<g><path style="opacity:0.996" fill="#cc6699" d="M 265.5,-0.5 C 278.167,-0.5 290.833,-0.5 303.5,-0.5C 411.641,10.5252 491.141,63.8586 542,159.5C 556.32,189.8 565.487,221.466 569.5,254.5C 569.5,275.167 569.5,295.833 569.5,316.5C 553.556,425.586 495.556,503.086 395.5,549C 370.585,559.144 344.918,565.977 318.5,569.5C 296.167,569.5 273.833,569.5 251.5,569.5C 144.66,553.153 68.1598,496.153 22,398.5C 9.97385,369.507 2.47385,339.507 -0.5,308.5C -0.5,292.833 -0.5,277.167 -0.5,261.5C 11.0667,160.813 60.4,84.9797 147.5,34C 184.599,14.397 223.933,2.897 265.5,-0.5 Z"/></g>
<g><path style="opacity:1" fill="#fefdfd" d="M 343.5,69.5 C 371.377,66.6975 398.377,70.1975 424.5,80C 460.399,96.9755 473.233,124.809 463,163.5C 447.729,207.104 418.562,237.271 375.5,254C 346.465,264.904 316.465,269.238 285.5,267C 264.945,264.988 249.112,255.488 238,238.5C 236.632,235.262 236.299,231.928 237,228.5C 238.049,227.483 239.216,227.316 240.5,228C 249.785,237.976 261.118,244.31 274.5,247C 326.043,249.795 370.543,233.628 408,198.5C 417.325,188.839 424.658,177.839 430,165.5C 442.235,133.134 431.402,113.634 397.5,107C 368.389,102.37 339.723,104.37 311.5,113C 263.838,128.655 220.838,152.321 182.5,184C 165.702,198.456 154.202,216.289 148,237.5C 145.041,258.287 150.708,276.287 165,291.5C 183.522,308.169 202.688,324.002 222.5,339C 227.779,343.789 232.779,348.789 237.5,354C 263.375,347.244 289.375,346.91 315.5,353C 343.49,361.984 359.49,380.984 363.5,410C 362.71,427.926 354.044,440.259 337.5,447C 335.5,447.667 333.5,447.667 331.5,447C 330.483,445.951 330.316,444.784 331,443.5C 351.628,431.603 355.961,415.269 344,394.5C 337.256,385.763 328.756,379.263 318.5,375C 295.918,366.89 272.918,365.39 249.5,370.5C 261.045,405.182 255.878,437.182 234,466.5C 209.576,494.566 179.076,505.066 142.5,498C 131.86,492.341 125.36,483.507 123,471.5C 119.818,449.868 125.818,431.201 141,415.5C 163.156,395.186 187.656,378.186 214.5,364.5C 209.909,359.867 204.909,355.701 199.5,352C 181.304,340.069 163.638,327.402 146.5,314C 127.623,298.801 113.79,279.968 105,257.5C 102.867,247.429 103.2,237.429 106,227.5C 112.596,208.965 122.262,192.298 135,177.5C 166.321,144.416 202.821,118.583 244.5,100C 266.37,89.4879 289.037,81.1545 312.5,75C 322.934,72.919 333.268,71.0857 343.5,69.5 Z"/></g>
<g><path style="opacity:1" fill="#cc6799" d="M 226.5,380.5 C 227.586,380.62 228.253,381.287 228.5,382.5C 235.383,419.392 222.716,447.225 190.5,466C 159.368,478.534 149.534,469.034 161,437.5C 169.052,424.116 179.218,412.616 191.5,403C 202.892,394.977 214.558,387.477 226.5,380.5 Z"/></g>
</svg>
